sorazora-italic-w4.ufo
<glyph name="exclam" format="2">
  <advance width="236"/>
  <unicode hex="0021"/>
  <outline>
    <contour>
      <point x="339.381" y="614.379" type="curve" smooth="yes"/>
      <point x="363.704" y="614.379"/>
      <point x="378.862" y="598.895"/>
      <point x="378.862" y="577.248" type="curve" smooth="yes"/>
      <point x="378.862" y="561.127"/>
      <point x="365.493" y="533.559"/>
      <point x="348.386" y="498.282" type="curve" smooth="yes"/>
      <point x="190.024" y="171.93" type="line"/>
      <point x="170.242" y="171.93" type="line"/>
      <point x="246.833" y="498.4" type="line" smooth="yes"/>
      <point x="252.123" y="520.951"/>
      <point x="257.404" y="542.588"/>
      <point x="263.04" y="558.239" type="curve" smooth="yes"/>
      <point x="274.208" y="589.237"/>
      <point x="308.395" y="614.379"/>
    </contour>
    <contour>
      <point x="196.292" y="60.8285" type="curve" smooth="yes"/>
      <point x="196.292" y="21.9388"/>
      <point x="152.533" y="-19.1787"/>
      <point x="111.263" y="-19.1787" type="curve" smooth="yes"/>
      <point x="85.6289" y="-19.175"/>
      <point x="69.2784" y="-2.89862"/>
      <point x="69.2784" y="20.3204" type="curve" smooth="yes"/>
      <point x="69.2784" y="59.2016"/>
      <point x="113.025" y="100.318"/>
      <point x="154.293" y="100.327" type="curve" smooth="yes"/>
      <point x="179.934" y="100.327"/>
      <point x="196.292" y="84.0557"/>
    </contour>
  </outline>
</glyph>
<glyph name="quotedbl" format="2">
  <advance width="269"/>
  <unicode hex="0022"/>
  <outline>
    <contour>
      <point x="421.876" y="657.343" type="curve" smooth="yes"/>
      <point x="448.41" y="657.343"/>
      <point x="467.557" y="649.242"/>
      <point x="467.557" y="633.314" type="curve" smooth="yes"/>
      <point x="467.557" y="628.539"/>
      <point x="465.836" y="623.06"/>
      <point x="462.077" y="616.885" type="curve" smooth="yes"/>
      <point x="365.645" y="458.438" type="line"/>
      <point x="345.656" y="458.438" type="line"/>
      <point x="368.403" y="567.624"/>
      <point x="377.069" y="618.493"/>
      <point x="378.445" y="644.275" type="curve" smooth="yes"/>
      <point x="379.122" y="656.384"/>
      <point x="411.615" y="657.343"/>
    </contour>
    <contour>
      <point x="303.602" y="657.343" type="curve" smooth="yes"/>
      <point x="330.13" y="657.343"/>
      <point x="349.275" y="649.243"/>
      <point x="349.275" y="633.315" type="curve" smooth="yes"/>
      <point x="349.275" y="628.54"/>
      <point x="347.554" y="623.06"/>
      <point x="343.795" y="616.885" type="curve" smooth="yes"/>
      <point x="247.363" y="458.438" type="line"/>
      <point x="227.382" y="458.438" type="line"/>
      <point x="250.129" y="567.624"/>
      <point x="258.788" y="618.493"/>
      <point x="260.164" y="644.275" type="curve" smooth="yes"/>
      <point x="260.841" y="656.382"/>
      <point x="293.318" y="657.343"/>
    </contour>
  </outline>
</glyph>
<glyph name="numbersign" format="2">
  <advance width="568"/>
  <unicode hex="0023"/>
  <outline>
    <contour>
      <point x="569.021" y="588.718" type="line"/>
      <point x="604.488" y="588.718" type="line"/>
      <point x="567.086" y="481.063" type="line"/>
      <point x="679.358" y="481.063" type="line"/>
      <point x="655.544" y="412.451" type="line"/>
      <point x="543.248" y="412.451" type="line"/>
      <point x="466.6" y="191.839" type="line"/>
      <point x="587.134" y="191.839" type="line"/>
      <point x="563.283" y="123.227" type="line"/>
      <point x="442.762" y="123.227" type="line"/>
      <point x="399.949" y="0" type="line"/>
      <point x="364.482" y="0" type="line"/>
      <point x="407.295" y="123.227" type="line"/>
      <point x="239.481" y="123.227" type="line"/>
      <point x="196.668" y="0" type="line"/>
      <point x="161.201" y="0" type="line"/>
      <point x="204.014" y="123.227" type="line"/>
      <point x="92.1436" y="123.227" type="line"/>
      <point x="115.994" y="191.839" type="line"/>
      <point x="227.852" y="191.839" type="line"/>
      <point x="304.5" y="412.451" type="line"/>
      <point x="184.404" y="412.451" type="line"/>
      <point x="208.218" y="481.063" type="line"/>
      <point x="328.338" y="481.063" type="line"/>
      <point x="365.74" y="588.718" type="line"/>
      <point x="401.207" y="588.718" type="line"/>
      <point x="363.805" y="481.063" type="line"/>
      <point x="531.619" y="481.063" type="line"/>
    </contour>
    <contour>
      <point x="507.781" y="412.451" type="line"/>
      <point x="339.966" y="412.451" type="line"/>
      <point x="263.319" y="191.839" type="line"/>
      <point x="431.133" y="191.839" type="line"/>
    </contour>
  </outline>
</glyph>
<glyph name="dollar" format="2">
  <advance width="413"/>
  <unicode hex="0024"/>
  <outline>
    <contour>
      <point x="426.978" y="675.011" type="line"/>
      <point x="475.503" y="675.011" type="line"/>
      <point x="449.299" y="602.24" type="line"/>
      <point x="450.083" y="602.247"/>
      <point x="450.867" y="602.251"/>
      <point x="451.652" y="602.251" type="curve" smooth="yes"/>
      <point x="513.015" y="602.251"/>
      <point x="552.358" y="583.93"/>
      <point x="575.143" y="559.282" type="curve"/>
      <point x="566.918" y="551.304"/>
      <point x="555.206" y="527.937"/>
      <point x="547.657" y="510.367" type="curve" smooth="yes"/>
      <point x="528.53" y="465.874" type="line"/>
      <point x="509.263" y="465.874" type="line"/>
      <point x="512.566" y="479.74" type="line" smooth="yes"/>
      <point x="514.186" y="486.546"/>
      <point x="514.946" y="492.976"/>
      <point x="514.946" y="499.028" type="curve" smooth="yes"/>
      <point x="514.946" y="541.335"/>
      <point x="477.817" y="565.217"/>
      <point x="437.72" y="570.083" type="curve"/>
      <point x="360.424" y="355.422" type="line"/>
      <point x="404.274" y="314.189" type="line" smooth="yes"/>
      <point x="432.353" y="287.796"/>
      <point x="458.635" y="262.476"/>
      <point x="458.635" y="217.622" type="curve" smooth="yes"/>
      <point x="458.635" y="133.423"/>
      <point x="368.751" y="2.29828"/>
      <point x="226.64" y="-16.11" type="curve"/>
      <point x="200.485" y="-88.7451" type="line"/>
      <point x="151.961" y="-88.7451" type="line"/>
      <point x="177.511" y="-17.7898" type="line"/>
      <point x="111.656" y="-13.7274"/>
      <point x="74.0257" y="15.8569"/>
      <point x="48.5547" y="43.459" type="curve"/>
      <point x="63.3271" y="65.3848"/>
      <point x="76.0391" y="89.7227"/>
      <point x="104.687" y="149.659" type="curve"/>
      <point x="124.469" y="149.659" type="line"/>
      <point x="121.673" y="138.741" type="line" smooth="yes"/>
      <point x="118.646" y="126.948"/>
      <point x="116.771" y="114.274"/>
      <point x="116.771" y="101.706" type="curve" smooth="yes"/>
      <point x="116.771" y="63.2454"/>
      <point x="134.334" y="25.7695"/>
      <point x="190.229" y="17.5307" type="curve"/>
      <point x="286.976" y="286.21" type="line"/>
      <point x="248.694" y="321.906" type="line" smooth="yes"/>
      <point x="225.31" y="343.709"/>
      <point x="206.155" y="370.458"/>
      <point x="206.155" y="406.217" type="curve" smooth="yes"/>
      <point x="206.155" y="479.845"/>
      <point x="289.111" y="573.112"/>
      <point x="398.749" y="596.617" type="curve"/>
    </contour>
    <contour>
      <point x="238.934" y="18.0315" type="line"/>
      <point x="312.962" y="31.0352"/>
      <point x="375.936" y="97.4791"/>
      <point x="375.936" y="164.689" type="curve" smooth="yes"/>
      <point x="375.936" y="203.259"/>
      <point x="350.999" y="226.512"/>
      <point x="323.304" y="252.336" type="curve"/>
    </contour>
    <contour>
      <point x="387.8" y="566.21" type="line"/>
      <point x="327.026" y="549.033"/>
      <point x="287.73" y="490.494"/>
      <point x="287.73" y="453.3" type="curve" smooth="yes"/>
      <point x="287.73" y="431.964"/>
      <point x="299.761" y="413.514"/>
      <point x="324.202" y="389.591" type="curve"/>
    </contour>
  </outline>
</glyph>
<glyph name="percent" format="2">
  <advance width="615"/>
  <unicode hex="0025"/>
  <outline>
    <contour>
      <point x="543.67" y="229.022" type="curve" smooth="yes"/>
      <point x="474.618" y="229.018"/>
      <point x="417.645" y="126.652"/>
      <point x="417.645" y="63.5379" type="curve" smooth="yes"/>
      <point x="417.645" y="28.6942"/>
      <point x="435.415" y="9.1709"/>
      <point x="464.468" y="9.1709" type="curve" smooth="yes"/>
      <point x="532.806" y="9.1709"/>
      <point x="590.242" y="110.331"/>
      <point x="590.242" y="173.929" type="curve" smooth="yes"/>
      <point x="590.242" y="208.949"/>
      <point x="572.506" y="229.022"/>
    </contour>
    <contour>
      <point x="643.673" y="166.908" type="curve" smooth="yes"/>
      <point x="643.673" y="87.0238"/>
      <point x="560.641" y="-11.4531"/>
      <point x="457.037" y="-11.4531" type="curve" smooth="yes"/>
      <point x="396.67" y="-11.4531"/>
      <point x="364.481" y="22.9428"/>
      <point x="364.481" y="71.5068" type="curve" smooth="yes"/>
      <point x="364.481" y="150.646"/>
      <point x="446.654" y="249.641"/>
      <point x="551.078" y="249.646" type="curve" smooth="yes"/>
      <point x="611.663" y="249.646"/>
      <point x="643.673" y="215.355"/>
    </contour>
    <contour>
      <point x="282.962" y="359.694" type="curve" smooth="yes"/>
      <point x="351" y="359.694"/>
      <point x="408.972" y="461.959"/>
      <point x="408.972" y="525.171" type="curve" smooth="yes"/>
      <point x="408.972" y="560.021"/>
      <point x="391.205" y="579.547"/>
      <point x="362.149" y="579.547" type="curve" smooth="yes"/>
      <point x="293.811" y="579.547"/>
      <point x="236.37" y="478.399"/>
      <point x="236.37" y="414.797" type="curve" smooth="yes"/>
      <point x="236.37" y="379.769"/>
      <point x="254.114" y="359.694"/>
    </contour>
    <contour>
      <point x="182.943" y="421.805" type="curve" smooth="yes"/>
      <point x="182.943" y="501.701"/>
      <point x="265.986" y="600.173"/>
      <point x="369.58" y="600.173" type="curve" smooth="yes"/>
      <point x="429.947" y="600.173"/>
      <point x="462.137" y="565.776"/>
      <point x="462.137" y="517.211" type="curve" smooth="yes"/>
      <point x="462.137" y="438.077"/>
      <point x="379.971" y="339.069"/>
      <point x="275.537" y="339.068" type="curve" smooth="yes"/>
      <point x="214.949" y="339.068"/>
      <point x="182.943" y="373.359"/>
    </contour>
    <contour>
      <point x="701.082" y="588.717" type="line"/>
      <point x="749.372" y="588.717" type="line"/>
      <point x="125.535" y="0" type="line"/>
      <point x="77.2451" y="0" type="line"/>
    </contour>
  </outline>
</glyph>
<glyph name="ampersand" format="2">
  <advance width="705"/>
  <unicode hex="0026"/>
  <outline>
    <contour>
      <point x="520.227" y="535.163" type="curve" smooth="yes"/>
      <point x="520.227" y="511.559"/>
      <point x="499.851" y="526.1"/>
      <point x="435.071" y="458.267" type="curve"/>
      <point x="443.179" y="443.201"/>
      <point x="448.41" y="422.431"/>
      <point x="448.41" y="409.343" type="curve" smooth="yes"/>
      <point x="448.41" y="396.674"/>
      <point x="443.78" y="393.84"/>
      <point x="428.953" y="387.21" type="curve" smooth="yes"/>
      <point x="413.204" y="380.168"/>
      <point x="385.125" y="363.224"/>
      <point x="340.776" y="322.364" type="curve" smooth="yes"/>
      <point x="336.623" y="313.186"/>
      <point x="333.366" y="305.254"/>
      <point x="327.884" y="289.291" type="curve"/>
      <point x="426.46" y="358.549"/>
      <point x="610.843" y="414.013"/>
      <point x="622.02" y="414.013" type="curve" smooth="yes"/>
      <point x="622.373" y="414.013"/>
      <point x="622.553" y="413.958"/>
      <point x="622.553" y="413.846" type="curve" smooth="yes"/>
      <point x="622.553" y="413.566"/>
      <point x="621.411" y="412.927"/>
      <point x="618.996" y="411.91" type="curve"/>
      <point x="701.134" y="411.91"/>
      <point x="759.827" y="376.37"/>
      <point x="759.827" y="298.678" type="curve" smooth="yes"/>
      <point x="759.827" y="276.166"/>
      <point x="754.899" y="250.115"/>
      <point x="744.186" y="220.364" type="curve" smooth="yes"/>
      <point x="691.607" y="74.3564"/>
      <point x="547.04" y="-4.43945"/>
      <point x="366.035" y="-14.3574" type="curve"/>
      <point x="365.188" y="-0.745117" type="line"/>
      <point x="641.501" y="56.8056"/>
      <point x="665.202" y="243.455"/>
      <point x="665.202" y="276.101" type="curve" smooth="yes"/>
      <point x="665.202" y="333.041"/>
      <point x="628.687" y="369.998"/>
      <point x="562.945" y="369.998" type="curve" smooth="yes"/>
      <point x="488.094" y="369.998"/>
      <point x="412.803" y="320.849"/>
      <point x="305.745" y="213.984" type="curve"/>
      <point x="286.694" y="138.352"/>
      <point x="278.281" y="73.0209"/>
      <point x="270.198" y="50.5732" type="curve" smooth="yes"/>
      <point x="258.906" y="19.2178"/>
      <point x="219.827" y="-25.4258"/>
      <point x="207.343" y="-25.4258" type="curve" smooth="yes"/>
      <point x="197.259" y="-25.4258"/>
      <point x="187.655" y="-14.1936"/>
      <point x="187.655" y="24.7719" type="curve" smooth="yes"/>
      <point x="187.655" y="44.3284"/>
      <point x="187.655" y="74.0249"/>
      <point x="166.785" y="118.016" type="curve"/>
      <point x="155.115" y="101.139"/>
      <point x="146.174" y="87.1967"/>
      <point x="138.937" y="75.9122" type="curve" smooth="yes"/>
      <point x="121.336" y="48.4661"/>
      <point x="113.816" y="36.7402"/>
      <point x="101.634" y="36.7402" type="curve" smooth="yes"/>
      <point x="90.5902" y="36.7402"/>
      <point x="79.5039" y="69.5053"/>
      <point x="79.5039" y="102.048" type="curve" smooth="yes"/>
      <point x="79.5039" y="139.333"/>
      <point x="82.8048" y="142.265"/>
      <point x="141.285" y="194.219" type="curve" smooth="yes"/>
      <point x="183.428" y="231.659"/>
      <point x="250.061" y="290.855"/>
      <point x="345.076" y="387.963" type="curve" smooth="yes"/>
      <point x="349.416" y="396.012"/>
      <point x="353.724" y="403.76"/>
      <point x="358.018" y="411.341" type="curve"/>
      <point x="251.097" y="356.902"/>
      <point x="247.274" y="332.933"/>
      <point x="227.787" y="332.933" type="curve" smooth="yes"/>
      <point x="215.35" y="332.933"/>
      <point x="202.925" y="383.456"/>
      <point x="202.925" y="408.67" type="curve" smooth="yes"/>
      <point x="202.925" y="413.302"/>
      <point x="202.925" y="424.57"/>
      <point x="215.921" y="438.262" type="curve"/>
      <point x="220.754" y="424.769"/>
      <point x="227.809" y="419.208"/>
      <point x="244.281" y="419.208" type="curve" smooth="yes"/>
      <point x="273.54" y="419.208"/>
      <point x="323.224" y="431.236"/>
      <point x="380.573" y="450.446" type="curve"/>
      <point x="419.881" y="518.354"/>
      <point x="440.978" y="561.021"/>
      <point x="440.978" y="587.196" type="curve" smooth="yes"/>
      <point x="440.978" y="593.833"/>
      <point x="439.607" y="599.496"/>
      <point x="436.615" y="604.062" type="curve"/>
      <point x="463.422" y="606.97"/>
      <point x="463.422" y="606.97"/>
      <point x="466.704" y="606.97" type="curve" smooth="yes"/>
      <point x="479.192" y="606.97"/>
      <point x="520.227" y="563.595"/>
    </contour>
    <contour>
      <point x="292.991" y="274.657" type="curve"/>
      <point x="239.203" y="217.028"/>
      <point x="192.817" y="154.275"/>
      <point x="183.716" y="141.823" type="curve"/>
      <point x="222.731" y="111.946"/>
      <point x="222.731" y="111.946"/>
      <point x="228.795" y="108.901" type="curve"/>
      <point x="288.06" y="257.514"/>
      <point x="292.346" y="273"/>
    </contour>
  </outline>
</glyph>
<glyph name="quotesingle" format="2">
  <advance width="149"/>
  <unicode hex="0027"/>
  <outline>
    <contour>
      <point x="303.61" y="657.343" type="curve" smooth="yes"/>
      <point x="330.144" y="657.343"/>
      <point x="349.29" y="649.242"/>
      <point x="349.29" y="633.314" type="curve" smooth="yes"/>
      <point x="349.29" y="628.539"/>
      <point x="347.569" y="623.06"/>
      <point x="343.811" y="616.885" type="curve" smooth="yes"/>
      <point x="247.378" y="458.438" type="line"/>
      <point x="227.397" y="458.438" type="line"/>
      <point x="250.137" y="567.624"/>
      <point x="258.796" y="618.492"/>
      <point x="260.179" y="644.275" type="curve" smooth="yes"/>
      <point x="260.856" y="656.385"/>
      <point x="293.35" y="657.343"/>
    </contour>
  </outline>
</glyph>
<glyph name="parenleft" format="2">
  <advance width="353"/>
  <unicode hex="0028"/>
  <outline>
    <contour>
      <point x="538.197" y="588.718" type="curve"/>
      <point x="528.236" y="561.057" type="line"/>
      <point x="400.775" y="519.831"/>
      <point x="297.215" y="444.471"/>
      <point x="204.672" y="187.456" type="curve" smooth="yes"/>
      <point x="171.252" y="94.6403"/>
      <point x="155.481" y="23.2581"/>
      <point x="155.481" y="-30.7299" type="curve" smooth="yes"/>
      <point x="155.481" y="-111.283"/>
      <point x="187.623" y="-155.973"/>
      <point x="259.186" y="-186.145" type="curve"/>
      <point x="249.225" y="-213.806" type="line"/>
      <point x="142.786" y="-198.04"/>
      <point x="71.6663" y="-135.124"/>
      <point x="71.6663" y="-21.5896" type="curve" smooth="yes"/>
      <point x="71.6663" y="84.9593"/>
      <point x="143.158" y="282.383"/>
      <point x="216.604" y="388.562" type="curve" smooth="yes"/>
      <point x="298.61" y="507.107"/>
      <point x="417.694" y="572.589"/>
    </contour>
  </outline>
</glyph>
<glyph name="parenright" format="2">
  <advance width="353"/>
  <unicode hex="0029"/>
  <outline>
    <contour>
      <point x="239.094" y="588.718" type="line"/>
      <point x="345.533" y="572.953"/>
      <point x="416.652" y="510.036"/>
      <point x="416.652" y="396.502" type="curve" smooth="yes"/>
      <point x="416.652" y="289.953"/>
      <point x="345.16" y="92.5274"/>
      <point x="271.713" y="-13.6504" type="curve" smooth="yes"/>
      <point x="189.708" y="-132.195"/>
      <point x="70.624" y="-197.676"/>
      <point x="-49.8789" y="-213.806" type="curve"/>
      <point x="-39.918" y="-186.145" type="line"/>
      <point x="87.7544" y="-144.851"/>
      <point x="191.183" y="-69.3334"/>
      <point x="283.646" y="187.456" type="curve" smooth="yes"/>
      <point x="317.053" y="280.234"/>
      <point x="332.843" y="351.645"/>
      <point x="332.843" y="405.623" type="curve" smooth="yes"/>
      <point x="332.843" y="486.189"/>
      <point x="300.701" y="530.882"/>
      <point x="229.133" y="561.057" type="curve"/>
    </contour>
  </outline>
</glyph>
<glyph name="asterisk" format="2">
  <advance width="351"/>
  <unicode hex="002A"/>
  <outline>
    <contour>
      <point x="208.456" y="474.168" type="curve" smooth="yes"/>
      <point x="208.456" y="496.892"/>
      <point x="211.881" y="528.988"/>
      <point x="231.231" y="528.988" type="curve" smooth="yes"/>
      <point x="243.905" y="528.988"/>
      <point x="272.495" y="521.971"/>
      <point x="346.974" y="498.823" type="curve"/>
      <point x="341.191" y="483.788" type="line"/>
      <point x="210.299" y="449.34" type="line"/>
      <point x="209.251" y="454.962"/>
      <point x="208.456" y="464.073"/>
    </contour>
    <contour>
      <point x="269.101" y="348.51" type="curve" smooth="yes"/>
      <point x="259.811" y="348.51"/>
      <point x="228.7" y="349.367"/>
      <point x="228.7" y="360.848" type="curve" smooth="yes"/>
      <point x="228.7" y="367.801"/>
      <point x="243.883" y="385.882"/>
      <point x="339.905" y="479.543" type="curve"/>
      <point x="352.29" y="474.546" type="line"/>
      <point x="304.016" y="351.211" type="line"/>
      <point x="295.848" y="349.769"/>
      <point x="282.388" y="348.51"/>
    </contour>
    <contour>
      <point x="410.624" y="372.383" type="curve" smooth="yes"/>
      <point x="405.151" y="372.383"/>
      <point x="399.671" y="372.383"/>
      <point x="356.009" y="473.452" type="curve"/>
      <point x="369.439" y="485.397" type="line"/>
      <point x="470.508" y="443.621" type="line"/>
      <point x="470.153" y="442.896"/>
      <point x="433.378" y="372.383"/>
    </contour>
    <contour>
      <point x="502.421" y="534.085" type="curve" smooth="yes"/>
      <point x="478.592" y="524.789"/>
      <point x="428.948" y="507.299"/>
      <point x="373.035" y="488.969" type="curve"/>
      <point x="368.938" y="501.35" type="line"/>
      <point x="479.662" y="598.859" type="line"/>
      <point x="492.486" y="591.545"/>
      <point x="519.966" y="568.34"/>
      <point x="519.966" y="551.605" type="curve" smooth="yes"/>
      <point x="519.966" y="542.088"/>
      <point x="512.958" y="538.2"/>
    </contour>
    <contour>
      <point x="396.457" y="642.312" type="curve" smooth="yes"/>
      <point x="400.518" y="642.312"/>
      <point x="403.62" y="642.312"/>
      <point x="403.62" y="635.119" type="curve" smooth="yes"/>
      <point x="403.62" y="623.073"/>
      <point x="394.918" y="590.848"/>
      <point x="367.447" y="504.647" type="curve"/>
      <point x="351.497" y="500.354" type="line"/>
      <point x="318.852" y="602.393" type="line"/>
      <point x="335.265" y="614.968"/>
      <point x="378.811" y="642.312"/>
    </contour>
  </outline>
</glyph>
<glyph name="plus" format="2">
  <advance width="471"/>
  <unicode hex="002B"/>
  <outline>
    <contour>
      <point x="288.189" y="226.886" type="line"/>
      <point x="347.294" y="391.025" type="line"/>
      <point x="405.029" y="391.025" type="line"/>
      <point x="345.924" y="226.886" type="line"/>
      <point x="513.481" y="226.886" type="line"/>
      <point x="494.098" y="173.057" type="line"/>
      <point x="326.541" y="173.057" type="line"/>
      <point x="260.765" y="-9.61035" type="line"/>
      <point x="203.029" y="-9.61035" type="line"/>
      <point x="268.806" y="173.057" type="line"/>
      <point x="101.248" y="173.057" type="line"/>
      <point x="120.632" y="226.886" type="line"/>
    </contour>
  </outline>
</glyph>
<glyph name="comma" format="2">
  <advance width="173"/>
  <unicode hex="002C"/>
  <outline>
    <contour>
      <point x="42.8039" y="32.9569" type="curve" smooth="yes"/>
      <point x="42.8039" y="68.0682"/>
      <point x="81.9467" y="100.328"/>
      <point x="117.767" y="100.328" type="curve" smooth="yes"/>
      <point x="153.009" y="100.328"/>
      <point x="170.204" y="84.0253"/>
      <point x="170.204" y="55.0244" type="curve" smooth="yes"/>
      <point x="170.204" y="4.39987"/>
      <point x="124.848" y="-80.921"/>
      <point x="-0.831055" y="-134.723" type="curve"/>
      <point x="-13.3086" y="-109.325" type="line"/>
      <point x="61.3824" y="-72.9065"/>
      <point x="93.0676" y="-33.5262"/>
      <point x="93.0676" y="-14.2794" type="curve" smooth="yes"/>
      <point x="93.0676" y="-8.03453"/>
      <point x="89.7319" y="-3.90924"/>
      <point x="83.4473" y="-2.69238" type="curve" smooth="yes"/>
      <point x="55.631" y="2.68353"/>
      <point x="42.8039" y="14.7793"/>
    </contour>
  </outline>
</glyph>
<glyph name="hyphen" format="2">
  <advance width="494"/>
  <unicode hex="002D"/>
  <outline>
    <contour>
      <point x="168.189" y="208.122" type="line"/>
      <point x="475.745" y="208.122" type="line"/>
      <point x="453.558" y="146.507" type="line"/>
      <point x="146.002" y="146.507" type="line"/>
    </contour>
  </outline>
</glyph>
<glyph name="period" format="2">
  <advance width="178"/>
  <unicode hex="002E"/>
  <outline>
    <contour>
      <point x="167.711" y="60.8285" type="curve" smooth="yes"/>
      <point x="167.711" y="21.9399"/>
      <point x="123.952" y="-19.1787"/>
      <point x="82.6816" y="-19.1787" type="curve" smooth="yes"/>
      <point x="57.0505" y="-19.1769"/>
      <point x="40.6902" y="-2.90849"/>
      <point x="40.6902" y="20.319" type="curve" smooth="yes"/>
      <point x="40.6902" y="59.2068"/>
      <point x="84.4452" y="100.326"/>
      <point x="125.716" y="100.327" type="curve" smooth="yes"/>
      <point x="151.346" y="100.327"/>
      <point x="167.711" y="84.0608"/>
    </contour>
  </outline>
</glyph>
<glyph name="slash" format="2">
  <advance width="217"/>
  <unicode hex="002F"/>
  <outline>
    <contour>
      <point x="373.178" y="588.718" type="line"/>
      <point x="428.626" y="588.718" type="line"/>
      <point x="55.4473" y="0" type="line"/>
      <point x="0" y="0" type="line"/>
    </contour>
  </outline>
</glyph>
<glyph name="zero" format="2">
  <advance width="473"/>
  <unicode hex="0030"/>
  <outline>
    <contour>
      <point x="235.069" y="17.2695" type="curve" smooth="yes"/>
      <point x="353.84" y="17.2695"/>
      <point x="442.759" y="197.838"/>
      <point x="442.759" y="297.644" type="curve" smooth="yes"/>
      <point x="442.759" y="350.739"/>
      <point x="418.398" y="384.77"/>
      <point x="367.402" y="384.77" type="curve" smooth="yes"/>
      <point x="247.78" y="384.77"/>
      <point x="159.846" y="203.606"/>
      <point x="159.846" y="104.829" type="curve" smooth="yes"/>
      <point x="159.846" y="51.4861"/>
      <point x="184.328" y="17.2695"/>
    </contour>
    <contour>
      <point x="84.7232" y="112.905" type="curve" smooth="yes"/>
      <point x="84.7232" y="229.948"/>
      <point x="195.189" y="415.221"/>
      <point x="378.364" y="415.221" type="curve" smooth="yes"/>
      <point x="472.487" y="415.221"/>
      <point x="517.905" y="364.722"/>
      <point x="517.905" y="289.757" type="curve" smooth="yes"/>
      <point x="517.905" y="170.561"/>
      <point x="405.244" y="-13.1807"/>
      <point x="224.101" y="-13.1807" type="curve" smooth="yes"/>
      <point x="130.51" y="-13.1807"/>
      <point x="84.7232" y="37.5973"/>
    </contour>
  </outline>
</glyph>
<glyph name="one" format="2">
  <advance width="270"/>
  <unicode hex="0031"/>
  <outline>
    <contour>
      <point x="305.144" y="357.902" type="curve" smooth="yes"/>
      <point x="190.24" y="38.8063"/>
      <point x="190.24" y="38.8063"/>
      <point x="190.24" y="35.0637" type="curve" smooth="yes"/>
      <point x="190.24" y="26.2321"/>
      <point x="198.643" y="24.2129"/>
      <point x="217.164" y="24.2129" type="curve" smooth="yes"/>
      <point x="256.14" y="24.2129" type="line"/>
      <point x="247.422" y="0" type="line"/>
      <point x="247.422" y="0"/>
      <point x="176.268" y="0"/>
      <point x="176.268" y="0.00195312" type="curve"/>
      <point x="176.268" y="0.00195312"/>
      <point x="95.0059" y="0.00195312"/>
      <point x="95.0049" y="0" type="curve" smooth="yes"/>
      <point x="23.8506" y="0" type="line"/>
      <point x="32.5684" y="24.2129" type="line"/>
      <point x="71.5449" y="24.2129" type="line" smooth="yes"/>
      <point x="95.4688" y="24.2129"/>
      <point x="104.937" y="27.582"/>
      <point x="111.08" y="44.6504" type="curve" smooth="yes"/>
      <point x="225.983" y="363.719"/>
      <point x="225.983" y="363.719"/>
      <point x="225.983" y="367.489" type="curve" smooth="yes"/>
      <point x="225.983" y="376.321"/>
      <point x="217.581" y="378.34"/>
      <point x="199.059" y="378.34" type="curve" smooth="yes"/>
      <point x="160.083" y="378.34" type="line"/>
      <point x="168.801" y="402.553" type="line"/>
      <point x="392.372" y="402.553" type="line"/>
      <point x="383.654" y="378.34" type="line"/>
      <point x="344.679" y="378.34" type="line" smooth="yes"/>
      <point x="320.754" y="378.34"/>
      <point x="311.286" y="374.971"/>
    </contour>
  </outline>
</glyph>
<glyph name="two" format="2">
  <advance width="335"/>
  <unicode hex="0032"/>
  <outline>
    <contour>
      <point x="315.494" y="414.231" type="curve" smooth="yes"/>
      <point x="371.473" y="414.231"/>
      <point x="410.701" y="384.903"/>
      <point x="410.701" y="339.092" type="curve" smooth="yes"/>
      <point x="410.701" y="266.507"/>
      <point x="338.623" y="222.581"/>
      <point x="268.917" y="180.101" type="curve" smooth="yes"/>
      <point x="177.615" y="124.46"/>
      <point x="140.794" y="99.7038"/>
      <point x="114.251" y="64.8359" type="curve"/>
      <point x="300.464" y="64.8359" type="line" smooth="yes"/>
      <point x="319.305" y="64.8359"/>
      <point x="325.051" y="70.1973"/>
      <point x="338.977" y="88.4033" type="curve"/>
      <point x="356.258" y="88.4033" type="line"/>
      <point x="314.214" y="20.0908" type="line" smooth="yes"/>
      <point x="308.733" y="11.1895"/>
      <point x="306.607" y="7.48828"/>
      <point x="303.318" y="0" type="curve"/>
      <point x="17.5908" y="0" type="line"/>
      <point x="23.5195" y="16.4668" type="line"/>
      <point x="105.364" y="141.011"/>
      <point x="279.547" y="177.357"/>
      <point x="318.827" y="286.454" type="curve" smooth="yes"/>
      <point x="321.95" y="295.125"/>
      <point x="323.436" y="303.413"/>
      <point x="323.436" y="311.117" type="curve" smooth="yes"/>
      <point x="323.436" y="341.453"/>
      <point x="300.396" y="362.742"/>
      <point x="263.512" y="362.742" type="curve" smooth="yes"/>
      <point x="225.734" y="362.742"/>
      <point x="182.337" y="341.995"/>
      <point x="160.598" y="312.409" type="curve"/>
      <point x="136.284" y="312.409" type="line"/>
      <point x="173.517" y="373.394"/>
      <point x="243.28" y="414.231"/>
    </contour>
  </outline>
</glyph>
<glyph name="three" format="2">
  <advance width="325"/>
  <unicode hex="0033"/>
  <outline>
    <contour>
      <point x="-78.5332" y="-224.2" type="line"/>
      <point x="141.85" y="-161.256"/>
      <point x="220.326" y="-22.2231"/>
      <point x="220.326" y="64.3084" type="curve" smooth="yes"/>
      <point x="220.326" y="119.733"/>
      <point x="185.359" y="152.413"/>
      <point x="129.787" y="160.74" type="curve"/>
      <point x="136.077" y="178.198" type="line"/>
      <point x="149.904" y="181.666"/>
      <point x="293.128" y="219.891"/>
      <point x="293.128" y="315.548" type="curve" smooth="yes"/>
      <point x="293.128" y="348.829"/>
      <point x="268.048" y="364.401"/>
      <point x="235.43" y="364.401" type="curve" smooth="yes"/>
      <point x="210.174" y="364.401"/>
      <point x="175.362" y="347.557"/>
      <point x="152.799" y="330.519" type="curve"/>
      <point x="139.079" y="343.558" type="line"/>
      <point x="184.228" y="383.299"/>
      <point x="241.955" y="413.288"/>
      <point x="302.148" y="413.288" type="curve" smooth="yes"/>
      <point x="352.827" y="413.288"/>
      <point x="384.358" y="385.754"/>
      <point x="384.358" y="344.538" type="curve" smooth="yes"/>
      <point x="384.358" y="325.594"/>
      <point x="375.858" y="249.556"/>
      <point x="251.836" y="190.082" type="curve"/>
      <point x="290.297" y="177.552"/>
      <point x="315.076" y="148.028"/>
      <point x="315.076" y="100.678" type="curve" smooth="yes"/>
      <point x="315.076" y="-10.4308"/>
      <point x="191.133" y="-191.441"/>
      <point x="-75.9219" y="-243.559" type="curve"/>
    </contour>
  </outline>
</glyph>
<glyph name="four" format="2">
  <advance width="478"/>
  <unicode hex="0034"/>
  <outline>
    <contour>
      <point x="469.221" y="414.938" type="line"/>
      <point x="491.519" y="414.938" type="line"/>
      <point x="368.23" y="72.5547" type="line"/>
      <point x="441.346" y="72.5547" type="line" smooth="yes"/>
      <point x="462.725" y="72.5547"/>
      <point x="490.099" y="73.5645"/>
      <point x="509.366" y="75.2725" type="curve"/>
      <point x="514.104" y="68.1328" type="line"/>
      <point x="469.051" y="16.2432" type="line"/>
      <point x="454.705" y="18.46"/>
      <point x="438.587" y="19.0107"/>
      <point x="412.198" y="19.0107" type="curve" smooth="yes"/>
      <point x="348.949" y="19.0107" type="line"/>
      <point x="284.625" y="-159.624" type="line" smooth="yes"/>
      <point x="280.879" y="-170.026"/>
      <point x="280.879" y="-170.026"/>
      <point x="278.269" y="-192.85" type="curve"/>
      <point x="183.117" y="-237.68" type="line"/>
      <point x="175.893" y="-231.669" type="line"/>
      <point x="182.028" y="-218.262"/>
      <point x="187.236" y="-204.406"/>
      <point x="192.739" y="-189.121" type="curve" smooth="yes"/>
      <point x="267.687" y="19.0107" type="line"/>
      <point x="53.5059" y="19.0107" type="line" smooth="yes"/>
      <point x="27.2275" y="19.0107"/>
      <point x="23.8652" y="17.7939"/>
      <point x="4.87793" y="8.30469" type="curve"/>
      <point x="-3.97949" y="16.6191" type="line"/>
    </contour>
    <contour>
      <point x="286.968" y="72.5547" type="line"/>
      <point x="363.489" y="285.058" type="line"/>
      <point x="110.227" y="72.5547" type="line"/>
    </contour>
  </outline>
</glyph>
<glyph name="five" format="2">
  <advance width="350"/>
  <unicode hex="0035"/>
  <outline>
    <contour>
      <point x="-57.5068" y="-224.081" type="line"/>
      <point x="180.021" y="-151.589"/>
      <point x="239.738" y="-2.02414"/>
      <point x="239.738" y="66.3073" type="curve" smooth="yes"/>
      <point x="239.738" y="122.601"/>
      <point x="204.648" y="172.778"/>
      <point x="105.319" y="183.847" type="curve"/>
      <point x="249.335" y="402.552" type="line"/>
      <point x="399.537" y="402.552" type="line" smooth="yes"/>
      <point x="423.623" y="402.552"/>
      <point x="431.392" y="405.993"/>
      <point x="442.302" y="419.068" type="curve"/>
      <point x="459.436" y="419.068" type="line"/>
      <point x="415.523" y="359.034" type="line" smooth="yes"/>
      <point x="410.609" y="352.321"/>
      <point x="407.151" y="347.084"/>
      <point x="401.163" y="337.717" type="curve"/>
      <point x="239.889" y="337.717" type="line"/>
      <point x="182.197" y="248.762" type="line"/>
      <point x="292.401" y="237.777"/>
      <point x="339.069" y="183.258"/>
      <point x="339.069" y="111.784" type="curve" smooth="yes"/>
      <point x="339.069" y="-21.8545"/>
      <point x="187.274" y="-197.698"/>
      <point x="-54.6455" y="-243.558" type="curve"/>
    </contour>
  </outline>
</glyph>
<glyph name="six" format="2">
  <advance width="450"/>
  <unicode hex="0036"/>
  <outline>
    <contour>
      <point x="253.778" y="25.3799" type="curve" smooth="yes"/>
      <point x="326.811" y="25.3799"/>
      <point x="409.356" y="123.036"/>
      <point x="409.356" y="211.694" type="curve" smooth="yes"/>
      <point x="409.356" y="250.803"/>
      <point x="390.698" y="281.749"/>
      <point x="339.874" y="281.749" type="curve" smooth="yes"/>
      <point x="302.768" y="281.749"/>
      <point x="252.058" y="258.639"/>
      <point x="204.43" y="222.914" type="curve"/>
      <point x="190.669" y="179.011"/>
      <point x="184.498" y="142.929"/>
      <point x="184.498" y="114.176" type="curve" smooth="yes"/>
      <point x="184.498" y="53.4217"/>
      <point x="212.049" y="25.3799"/>
    </contour>
    <contour>
      <point x="497.051" y="236.678" type="curve" smooth="yes"/>
      <point x="497.051" y="123.538"/>
      <point x="360.646" y="-9.27441"/>
      <point x="231.237" y="-9.27441" type="curve" smooth="yes"/>
      <point x="155.378" y="-9.27441"/>
      <point x="99.7902" y="36.3779"/>
      <point x="99.7902" y="125.454" type="curve" smooth="yes"/>
      <point x="99.7902" y="239.234"/>
      <point x="205.644" y="525.122"/>
      <point x="598.396" y="598.039" type="curve"/>
      <point x="595.182" y="577.838" type="line"/>
      <point x="387.588" y="526.583"/>
      <point x="268.293" y="392.491"/>
      <point x="217.704" y="261.236" type="curve"/>
      <point x="268.64" y="300.237"/>
      <point x="384.434" y="333.422"/>
      <point x="391.18" y="333.422" type="curve"/>
      <point x="391.18" y="333.422"/>
      <point x="391.449" y="333.098"/>
      <point x="389.818" y="332.424" type="curve"/>
      <point x="467.628" y="332.424"/>
      <point x="497.051" y="288.394"/>
    </contour>
  </outline>
</glyph>
<glyph name="seven" format="2">
  <advance width="398"/>
  <unicode hex="0037"/>
  <outline>
    <contour>
      <point x="197.314" y="402.553" type="curve"/>
      <point x="536.726" y="402.553" type="line"/>
      <point x="531.156" y="387.087" type="line"/>
      <point x="345.781" y="164.923" type="line" smooth="yes"/>
      <point x="234.356" y="30.7803"/>
      <point x="125.903" y="-128.882"/>
      <point x="82.8662" y="-211.798" type="curve"/>
      <point x="20.4658" y="-211.798" type="line"/>
      <point x="67.1963" y="-129.957"/>
      <point x="171.073" y="0.796875"/>
      <point x="302.752" y="158.398" type="curve" smooth="yes"/>
      <point x="452.571" y="337.719" type="line"/>
      <point x="222.093" y="337.719" type="line" smooth="yes"/>
      <point x="196.277" y="337.719"/>
      <point x="182.248" y="335.438"/>
      <point x="167.711" y="319.326" type="curve" smooth="yes"/>
      <point x="155.139" y="305.389" type="line"/>
      <point x="138.8" y="305.389" type="line"/>
      <point x="180.02" y="372.915" type="line" smooth="yes"/>
      <point x="186.961" y="383.833"/>
      <point x="193.168" y="393.595"/>
    </contour>
  </outline>
</glyph>
<glyph name="eight" format="2">
  <advance width="433"/>
  <unicode hex="0038"/>
  <outline>
    <contour>
      <point x="208.823" y="420.145" type="curve" smooth="yes"/>
      <point x="208.823" y="501.92"/>
      <point x="325.043" y="596.289"/>
      <point x="438.204" y="596.289" type="curve" smooth="yes"/>
      <point x="509.663" y="596.289"/>
      <point x="551.575" y="558.474"/>
      <point x="551.575" y="508.6" type="curve" smooth="yes"/>
      <point x="551.575" y="457.523"/>
      <point x="507.66" y="391.022"/>
      <point x="392.679" y="333.247" type="curve"/>
      <point x="411.617" y="318.098" type="line" smooth="yes"/>
      <point x="445.963" y="290.621"/>
      <point x="472.914" y="263.573"/>
      <point x="472.914" y="219.025" type="curve" smooth="yes"/>
      <point x="472.914" y="113.632"/>
      <point x="344.26" y="-8.13379"/>
      <point x="215.869" y="-8.13379" type="curve" smooth="yes"/>
      <point x="131.144" y="-8.13379"/>
      <point x="79.085" y="35.7661"/>
      <point x="79.085" y="101.057" type="curve" smooth="yes"/>
      <point x="79.085" y="112.345"/>
      <point x="83.0631" y="254.258"/>
      <point x="281.631" y="309.95" type="curve"/>
      <point x="269.323" y="319.543" type="line" smooth="yes"/>
      <point x="232.35" y="348.357"/>
      <point x="208.823" y="382.502"/>
    </contour>
    <contour>
      <point x="232.753" y="26.7744" type="curve" smooth="yes"/>
      <point x="313.185" y="26.7744"/>
      <point x="392.831" y="104.715"/>
      <point x="392.831" y="182.343" type="curve" smooth="yes"/>
      <point x="392.831" y="211.691"/>
      <point x="378.558" y="234.407"/>
      <point x="349.526" y="257.034" type="curve" smooth="yes"/>
      <point x="301.19" y="294.707" type="line"/>
      <point x="232.8" y="266.997"/>
      <point x="186.529" y="222.246"/>
      <point x="165.049" y="162.586" type="curve" smooth="yes"/>
      <point x="158.753" y="145.102"/>
      <point x="155.776" y="128.121"/>
      <point x="155.776" y="112.426" type="curve" smooth="yes"/>
      <point x="155.776" y="63.3085"/>
      <point x="184.929" y="26.7744"/>
    </contour>
    <contour>
      <point x="416.2" y="565.404" type="curve" smooth="yes"/>
      <point x="349.745" y="565.404"/>
      <point x="284.593" y="510.522"/>
      <point x="284.593" y="454.797" type="curve" smooth="yes"/>
      <point x="284.593" y="425.744"/>
      <point x="304.824" y="403.528"/>
      <point x="337.263" y="377.579" type="curve" smooth="yes"/>
      <point x="371.432" y="350.245" type="line"/>
      <point x="405.794" y="371.694"/>
      <point x="479.002" y="417.391"/>
      <point x="479.002" y="497.853" type="curve" smooth="yes"/>
      <point x="479.002" y="537.305"/>
      <point x="455.998" y="565.404"/>
    </contour>
  </outline>
</glyph>
<glyph name="nine" format="2">
  <advance width="450"/>
  <unicode hex="0039"/>
  <outline>
    <contour>
      <point x="99.683" y="175.204" type="curve" smooth="yes"/>
      <point x="99.683" y="283.735"/>
      <point x="224.444" y="410.854"/>
      <point x="357.743" y="410.854" type="curve" smooth="yes"/>
      <point x="434.218" y="410.854"/>
      <point x="491.895" y="362.591"/>
      <point x="491.895" y="271.142" type="curve" smooth="yes"/>
      <point x="491.895" y="106.804"/>
      <point x="303.895" y="-172.222"/>
      <point x="-36.3428" y="-235.39" type="curve"/>
      <point x="-33.1279" y="-215.188" type="line"/>
      <point x="168.184" y="-165.484"/>
      <point x="325.713" y="-9.57587"/>
      <point x="379.334" y="143.848" type="curve"/>
      <point x="337.716" y="106.783"/>
      <point x="215.565" y="68.8605"/>
      <point x="208.564" y="68.8605" type="curve"/>
      <point x="208.564" y="68.8605"/>
      <point x="208.351" y="69.2685"/>
      <point x="210.321" y="70.1279" type="curve"/>
      <point x="131.005" y="70.1279"/>
      <point x="99.683" y="120.076"/>
    </contour>
    <contour>
      <point x="335.202" y="376.199" type="curve" smooth="yes"/>
      <point x="255.818" y="376.199"/>
      <point x="189.857" y="282.63"/>
      <point x="189.857" y="210.55" type="curve" smooth="yes"/>
      <point x="189.857" y="164.442"/>
      <point x="214.301" y="124.245"/>
      <point x="264.945" y="124.245" type="curve" smooth="yes"/>
      <point x="313.646" y="124.245"/>
      <point x="352.096" y="149.122"/>
      <point x="393.239" y="188.406" type="curve"/>
      <point x="403.009" y="224.409"/>
      <point x="407.398" y="254.868"/>
      <point x="407.398" y="280.095" type="curve" smooth="yes"/>
      <point x="407.398" y="346.009"/>
      <point x="377.435" y="376.199"/>
    </contour>
  </outline>
</glyph>
<glyph name="colon" format="2">
  <advance width="179"/>
  <unicode hex="003A"/>
  <outline>
    <contour>
      <point x="167.711" y="60.8295" type="curve" smooth="yes"/>
      <point x="167.711" y="21.9395"/>
      <point x="123.952" y="-19.1787"/>
      <point x="82.6826" y="-19.1787" type="curve" smooth="yes"/>
      <point x="57.0492" y="-19.1769"/>
      <point x="40.6902" y="-2.9059"/>
      <point x="40.6902" y="20.3194" type="curve" smooth="yes"/>
      <point x="40.6902" y="59.2078"/>
      <point x="84.4481" y="100.326"/>
      <point x="125.716" y="100.327" type="curve" smooth="yes"/>
      <point x="151.345" y="100.327"/>
      <point x="167.711" y="84.0612"/>
    </contour>
    <contour>
      <point x="269.558" y="343.676" type="curve" smooth="yes"/>
      <point x="269.558" y="304.786"/>
      <point x="225.799" y="263.668"/>
      <point x="184.529" y="263.668" type="curve" smooth="yes"/>
      <point x="158.9" y="263.67"/>
      <point x="142.537" y="279.936"/>
      <point x="142.537" y="303.166" type="curve" smooth="yes"/>
      <point x="142.537" y="342.055"/>
      <point x="186.296" y="383.174"/>
      <point x="227.565" y="383.174" type="curve" smooth="yes"/>
      <point x="253.2" y="383.172"/>
      <point x="269.558" y="366.901"/>
    </contour>
  </outline>
</glyph>
<glyph name="semicolon" format="2">
  <advance width="178"/>
  <unicode hex="003B"/>
  <outline>
    <contour>
      <point x="269.543" y="343.676" type="curve" smooth="yes"/>
      <point x="269.543" y="304.791"/>
      <point x="225.793" y="263.673"/>
      <point x="184.521" y="263.668" type="curve" smooth="yes"/>
      <point x="158.89" y="263.67"/>
      <point x="142.53" y="279.938"/>
      <point x="142.53" y="303.166" type="curve" smooth="yes"/>
      <point x="142.53" y="342.056"/>
      <point x="186.289" y="383.174"/>
      <point x="227.559" y="383.174" type="curve" smooth="yes"/>
      <point x="253.191" y="383.168"/>
      <point x="269.543" y="366.897"/>
    </contour>
    <contour>
      <point x="44.9152" y="32.9579" type="curve" smooth="yes"/>
      <point x="44.9152" y="68.0698"/>
      <point x="84.0605" y="100.329"/>
      <point x="119.878" y="100.329" type="curve" smooth="yes"/>
      <point x="155.115" y="100.329"/>
      <point x="172.308" y="84.027"/>
      <point x="172.308" y="55.0273" type="curve" smooth="yes"/>
      <point x="172.308" y="4.40042"/>
      <point x="126.952" y="-80.9208"/>
      <point x="1.27246" y="-134.722" type="curve"/>
      <point x="-11.2041" y="-109.324" type="line"/>
      <point x="63.4974" y="-72.9043"/>
      <point x="95.1725" y="-33.5216"/>
      <point x="95.1725" y="-14.2762" type="curve" smooth="yes"/>
      <point x="95.1725" y="-8.03256"/>
      <point x="91.8387" y="-3.90835"/>
      <point x="85.5586" y="-2.69238" type="curve" smooth="yes"/>
      <point x="57.7424" y="2.68427"/>
      <point x="44.9152" y="14.7803"/>
    </contour>
  </outline>
</glyph>
<glyph name="less" format="2">
  <advance width="424"/>
  <unicode hex="003C"/>
  <outline>
    <contour>
      <point x="182.773" y="199.02" type="line"/>
      <point x="398.72" y="40.2461" type="line"/>
      <point x="375.307" y="-24.7725" type="line"/>
      <point x="279.979" y="46.5107"/>
      <point x="184.651" y="117.793"/>
      <point x="89.3154" y="189.076" type="curve"/>
      <point x="96.4717" y="208.948" type="line"/>
      <point x="536.478" y="422.811" type="line"/>
      <point x="513.064" y="357.793" type="line"/>
    </contour>
  </outline>
</glyph>
<glyph name="equal" format="2">
  <advance width="471"/>
  <unicode hex="003D"/>
  <outline>
    <contour>
      <point x="148.095" y="303.154" type="line"/>
      <point x="540.944" y="303.154" type="line"/>
      <point x="521.561" y="249.325" type="line"/>
      <point x="128.711" y="249.325" type="line"/>
    </contour>
    <contour>
      <point x="87.8135" y="135.747" type="line"/>
      <point x="480.663" y="135.747" type="line"/>
      <point x="461.279" y="81.918" type="line"/>
      <point x="68.4297" y="81.918" type="line"/>
    </contour>
  </outline>
</glyph>
<glyph name="greater" format="2">
  <advance width="424"/>
  <unicode hex="003E"/>
  <outline>
    <contour>
      <point x="192.433" y="422.811" type="line"/>
      <point x="478.419" y="208.948" type="line"/>
      <point x="471.264" y="189.076" type="line"/>
      <point x="324.592" y="117.793"/>
      <point x="177.927" y="46.5107"/>
      <point x="31.2627" y="-24.7725" type="curve"/>
      <point x="54.6748" y="40.2461" type="line"/>
      <point x="384.967" y="199.02" type="line"/>
      <point x="328.405" y="240.595"/>
      <point x="171.18" y="356.205"/>
      <point x="169.021" y="357.793" type="curve"/>
    </contour>
  </outline>
</glyph>
<glyph name="question" format="2">
  <advance width="280"/>
  <unicode hex="003F"/>
  <outline>
    <contour>
      <point x="245.061" y="635.726" type="curve"/>
      <point x="286.733" y="626.203"/>
      <point x="394.084" y="563.004"/>
      <point x="394.084" y="440.88" type="curve" smooth="yes"/>
      <point x="394.084" y="275.59"/>
      <point x="213.162" y="294.36"/>
      <point x="179.115" y="226.019" type="curve" smooth="yes"/>
      <point x="146.906" y="161.412" type="line"/>
      <point x="126.447" y="161.412" type="line"/>
      <point x="134.797" y="197.891" type="line" smooth="yes"/>
      <point x="152.893" y="276.991"/>
      <point x="154.548" y="294.471"/>
      <point x="154.851" y="308.437" type="curve"/>
      <point x="215.471" y="334.288"/>
      <point x="287.089" y="369.024"/>
      <point x="330.72" y="393.059" type="curve" smooth="yes"/>
      <point x="343.399" y="400.042"/>
      <point x="363.618" y="415.299"/>
      <point x="363.618" y="441.583" type="curve" smooth="yes"/>
      <point x="363.618" y="480.431"/>
      <point x="301.757" y="512.07"/>
      <point x="226.291" y="539.736" type="curve"/>
      <point x="224.136" y="546.003"/>
      <point x="223.171" y="553.226"/>
      <point x="223.171" y="560.96" type="curve" smooth="yes"/>
      <point x="223.171" y="585.481"/>
      <point x="232.867" y="615.137"/>
    </contour>
    <contour>
      <point x="160.295" y="60.8285" type="curve" smooth="yes"/>
      <point x="160.295" y="21.9401"/>
      <point x="116.538" y="-19.1797"/>
      <point x="75.2656" y="-19.1797" type="curve" smooth="yes"/>
      <point x="49.6353" y="-19.1778"/>
      <point x="33.2725" y="-2.91121"/>
      <point x="33.2725" y="20.3194" type="curve" smooth="yes"/>
      <point x="33.2725" y="59.2036"/>
      <point x="77.0249" y="100.325"/>
      <point x="118.299" y="100.326" type="curve" smooth="yes"/>
      <point x="143.941" y="100.326"/>
      <point x="160.295" y="84.0502"/>
    </contour>
  </outline>
</glyph>
<glyph name="at" format="2">
  <advance width="784"/>
  <unicode hex="0040"/>
  <outline>
    <contour>
      <point x="87.9208" y="74.5419" type="curve" smooth="yes"/>
      <point x="87.9208" y="294.272"/>
      <point x="326.799" y="545.61"/>
      <point x="590.327" y="545.61" type="curve" smooth="yes"/>
      <point x="669.324" y="545.61"/>
      <point x="736.233" y="523.669"/>
      <point x="788.988" y="462.402" type="curve"/>
      <point x="752.712" y="438.613" type="line"/>
      <point x="706.784" y="494.613"/>
      <point x="646.798" y="516.155"/>
      <point x="578.497" y="516.155" type="curve" smooth="yes"/>
      <point x="424.043" y="516.155"/>
      <point x="220.306" y="394.609"/>
      <point x="148.665" y="195.639" type="curve" smooth="yes"/>
      <point x="133.884" y="154.59"/>
      <point x="127.172" y="116.96"/>
      <point x="127.172" y="83.0853" type="curve" smooth="yes"/>
      <point x="127.172" y="-47.2385"/>
      <point x="226.518" y="-121.981"/>
      <point x="347.952" y="-121.981" type="curve" smooth="yes"/>
      <point x="500.957" y="-121.981"/>
      <point x="703.805" y="-4.8291"/>
      <point x="775.989" y="195.639" type="curve" smooth="yes"/>
      <point x="785.982" y="223.389"/>
      <point x="790.83" y="248.021"/>
      <point x="790.83" y="269.342" type="curve" smooth="yes"/>
      <point x="790.83" y="332.551"/>
      <point x="748.218" y="366.66"/>
      <point x="670.707" y="366.66" type="curve" smooth="yes"/>
      <point x="484.802" y="366.66" type="line"/>
      <point x="517.701" y="361.299"/>
      <point x="548.585" y="352.311"/>
      <point x="590.452" y="339.895" type="curve" smooth="yes"/>
      <point x="650.027" y="322.229"/>
      <point x="677.642" y="285.9"/>
      <point x="677.642" y="239.352" type="curve" smooth="yes"/>
      <point x="677.642" y="142.909"/>
      <point x="560.226" y="-2.37891"/>
      <point x="393.645" y="-2.37891" type="curve" smooth="yes"/>
      <point x="298.654" y="-2.37891"/>
      <point x="248.22" y="48.9279"/>
      <point x="248.22" y="113.914" type="curve" smooth="yes"/>
      <point x="248.22" y="202.12"/>
      <point x="337.781" y="298.604"/>
      <point x="439.352" y="298.604" type="curve" smooth="yes"/>
      <point x="484.222" y="298.604"/>
      <point x="520.213" y="277.448"/>
      <point x="524.499" y="235.326" type="curve"/>
      <point x="495.256" y="220.583" type="line"/>
      <point x="489.585" y="240.414"/>
      <point x="468.876" y="252.11"/>
      <point x="444.077" y="252.11" type="curve" smooth="yes"/>
      <point x="378.215" y="252.11"/>
      <point x="335.959" y="180.307"/>
      <point x="335.959" y="123.447" type="curve" smooth="yes"/>
      <point x="335.959" y="64.5199"/>
      <point x="384.331" y="37.1221"/>
      <point x="423.602" y="37.1221" type="curve" smooth="yes"/>
      <point x="533.452" y="37.1221"/>
      <point x="584.232" y="153.589"/>
      <point x="584.232" y="210.399" type="curve" smooth="yes"/>
      <point x="584.232" y="277.857"/>
      <point x="528.555" y="294.03"/>
      <point x="434.619" y="321.318" type="curve" smooth="yes"/>
      <point x="390.803" y="334.045"/>
      <point x="343.181" y="347.879"/>
      <point x="293.593" y="366.66" type="curve"/>
      <point x="297.801" y="378.34" type="line"/>
      <point x="381.808" y="406.163" type="line"/>
      <point x="396.124" y="404.23"/>
      <point x="421.424" y="402.552"/>
      <point x="443.582" y="402.552" type="curve" smooth="yes"/>
      <point x="673.98" y="402.552" type="line" smooth="yes"/>
      <point x="773.99" y="402.552"/>
      <point x="831.984" y="363.674"/>
      <point x="831.984" y="283.87" type="curve" smooth="yes"/>
      <point x="831.984" y="258.758"/>
      <point x="826.241" y="229.594"/>
      <point x="814.259" y="196.313" type="curve" smooth="yes"/>
      <point x="743.906" y="0.943359"/>
      <point x="538.153" y="-151.245"/>
      <point x="338.072" y="-151.245" type="curve" smooth="yes"/>
      <point x="181.885" y="-151.245"/>
      <point x="87.9208" y="-59.3827"/>
    </contour>
  </outline>
</glyph>
<glyph name="bracketleft" format="2">
  <advance width="311"/>
  <unicode hex="005B"/>
  <outline>
    <contour>
      <point x="292.489" y="592.61" type="line"/>
      <point x="320.247" y="590.664"/>
      <point x="372.958" y="588.718"/>
      <point x="436.969" y="588.718" type="curve" smooth="yes"/>
      <point x="495.33" y="588.718" type="line"/>
      <point x="483.809" y="556.719" type="line"/>
      <point x="359.51" y="553.069" type="line"/>
      <point x="96.9326" y="-176.149" type="line"/>
      <point x="218.599" y="-179.799" type="line"/>
      <point x="207.078" y="-211.798" type="line"/>
      <point x="148.717" y="-211.798" type="line" smooth="yes"/>
      <point x="84.7061" y="-211.798"/>
      <point x="30.6045" y="-213.744"/>
      <point x="1.43457" y="-215.69" type="curve"/>
    </contour>
  </outline>
</glyph>
<glyph name="backslash" format="2">
  <advance width="217"/>
  <unicode hex="005C"/>
  <outline>
    <contour>
      <point x="267.433" y="588.718" type="line"/>
      <point x="216.642" y="0" type="line"/>
      <point x="161.193" y="0" type="line"/>
      <point x="211.984" y="588.718" type="line"/>
    </contour>
  </outline>
</glyph>
<glyph name="bracketright" format="2">
  <advance width="310"/>
  <unicode hex="005D"/>
  <outline>
    <contour>
      <point x="444.737" y="592.61" type="curve"/>
      <point x="153.683" y="-215.69" type="line"/>
      <point x="125.911" y="-213.744"/>
      <point x="73.207" y="-211.798"/>
      <point x="9.19629" y="-211.798" type="curve" smooth="yes"/>
      <point x="-49.165" y="-211.798" type="line"/>
      <point x="-37.6436" y="-179.799" type="line"/>
      <point x="86.6553" y="-176.149" type="line"/>
      <point x="349.232" y="553.069" type="line"/>
      <point x="227.566" y="556.719" type="line"/>
      <point x="239.087" y="588.718" type="line"/>
      <point x="297.448" y="588.718" type="line" smooth="yes"/>
      <point x="361.459" y="588.718"/>
      <point x="415.567" y="590.664"/>
    </contour>
  </outline>
</glyph>
<glyph name="asciicircum" format="2">
  <advance width="395"/>
  <unicode hex="005E"/>
  <outline>
    <contour>
      <point x="380.027" y="588.718" type="line"/>
      <point x="438.845" y="588.718" type="line"/>
      <point x="491.765" y="349.386" type="line"/>
      <point x="429.056" y="349.386" type="line"/>
      <point x="390.688" y="536.665" type="line"/>
      <point x="217.446" y="349.386" type="line"/>
      <point x="154.745" y="349.386" type="line"/>
    </contour>
  </outline>
</glyph>
<glyph name="underscore" format="2">
  <advance width="781"/>
  <unicode hex="005F"/>
  <outline>
    <contour>
      <point x="-51.2773" y="-142.42" type="line"/>
      <point x="729.53" y="-142.42" type="line"/>
      <point x="707.344" y="-204.036" type="line"/>
      <point x="-73.4639" y="-204.036" type="line"/>
    </contour>
  </outline>
</glyph>
<glyph name="grave" format="2">
  <advance width="309"/>
  <unicode hex="0060"/>
  <outline>
    <contour>
      <point x="382.926" y="461.852" type="line"/>
      <point x="286.773" y="616.199" type="line" smooth="yes"/>
      <point x="286.77" y="616.313"/>
      <point x="286.768" y="616.427"/>
      <point x="286.768" y="616.54" type="curve" smooth="yes"/>
      <point x="286.768" y="631.466"/>
      <point x="316.291" y="638.235"/>
      <point x="345.139" y="638.235" type="curve" smooth="yes"/>
      <point x="372.184" y="638.235"/>
      <point x="398.636" y="632.286"/>
      <point x="399.611" y="621.531" type="curve" smooth="yes"/>
      <point x="414.067" y="461.852" type="line"/>
    </contour>
  </outline>
</glyph>
<glyph name="a" format="2">
  <advance width="666"/>
  <unicode hex="0061"/>
  <outline>
    <contour>
      <point x="117.378" y="366.661" type="line" smooth="yes"/>
      <point x="113.688" y="366.661"/>
      <point x="112.024" y="368.128"/>
      <point x="112.024" y="370.098" type="curve" smooth="yes"/>
      <point x="112.024" y="378.166"/>
      <point x="199.836" y="448.705"/>
      <point x="218.622" y="462.923" type="curve"/>
      <point x="271.364" y="402.554" type="line"/>
      <point x="678.481" y="402.554" type="line" smooth="yes"/>
      <point x="714.551" y="402.554"/>
      <point x="772.114" y="407.079"/>
      <point x="784.563" y="408.901" type="curve"/>
      <point x="765.782" y="357.949" type="line"/>
      <point x="745.293" y="362.992"/>
      <point x="710.902" y="366.661"/>
      <point x="670.755" y="366.661" type="curve" smooth="yes"/>
      <point x="605.174" y="366.661" type="line"/>
      <point x="633.784" y="340.226"/>
      <point x="654.31" y="298.145"/>
      <point x="654.31" y="237.021" type="curve" smooth="yes"/>
      <point x="654.31" y="114.641"/>
      <point x="566.33" y="-13.6191"/>
      <point x="408.003" y="-13.6191" type="curve" smooth="yes"/>
      <point x="307.409" y="-13.6191"/>
      <point x="231.203" y="45.7617"/>
      <point x="231.203" y="161.19" type="curve" smooth="yes"/>
      <point x="231.203" y="250.838"/>
      <point x="277.503" y="325.132"/>
      <point x="348.531" y="366.661" type="curve"/>
    </contour>
    <contour>
      <point x="582.037" y="572.166" type="curve" smooth="yes"/>
      <point x="582.037" y="542.77"/>
      <point x="558.206" y="518.939"/>
      <point x="528.811" y="518.939" type="curve" smooth="yes"/>
      <point x="499.413" y="518.939"/>
      <point x="475.583" y="542.77"/>
      <point x="475.583" y="572.166" type="curve" smooth="yes"/>
      <point x="475.583" y="601.562"/>
      <point x="499.413" y="625.393"/>
      <point x="528.811" y="625.393" type="curve" smooth="yes"/>
      <point x="558.206" y="625.393"/>
      <point x="582.037" y="601.562"/>
    </contour>
    <contour>
      <point x="442.267" y="366.661" type="curve" smooth="yes"/>
      <point x="375.684" y="366.661"/>
      <point x="312.465" y="302.596"/>
      <point x="312.465" y="197.082" type="curve" smooth="yes"/>
      <point x="312.465" y="82.749"/>
      <point x="380.687" y="28.4512"/>
      <point x="439.271" y="28.4512" type="curve" smooth="yes"/>
      <point x="512.53" y="28.4512"/>
      <point x="573.049" y="94.335"/>
      <point x="573.049" y="201.13" type="curve" smooth="yes"/>
      <point x="573.049" y="300.416"/>
      <point x="525.152" y="366.661"/>
    </contour>
  </outline>
</glyph>
<glyph name="b" format="2">
  <advance width="483"/>
  <unicode hex="0062"/>
  <outline>
    <contour>
      <point x="259.819" y="366.662" type="curve"/>
      <point x="117.377" y="366.662" type="line" smooth="yes"/>
      <point x="113.687" y="366.662"/>
      <point x="112.023" y="368.129"/>
      <point x="112.023" y="370.098" type="curve" smooth="yes"/>
      <point x="112.023" y="378.165"/>
      <point x="199.834" y="448.704"/>
      <point x="218.621" y="462.923" type="curve"/>
      <point x="271.363" y="402.551" type="line"/>
      <point x="442.192" y="402.551" type="line" smooth="yes"/>
      <point x="478.262" y="402.551"/>
      <point x="535.825" y="407.08"/>
      <point x="548.274" y="408.902" type="curve"/>
      <point x="529.493" y="357.949" type="line"/>
      <point x="509.004" y="362.992"/>
      <point x="474.613" y="366.661"/>
      <point x="434.466" y="366.661" type="curve" smooth="yes"/>
      <point x="390.742" y="366.661" type="line" smooth="yes"/>
      <point x="312.063" y="366.482"/>
      <point x="226.825" y="337.536"/>
      <point x="219.211" y="230.947" type="curve"/>
      <point x="392.588" y="230.947" type="line" smooth="yes"/>
      <point x="428.657" y="230.947"/>
      <point x="486.222" y="235.475"/>
      <point x="498.67" y="237.296" type="curve"/>
      <point x="479.889" y="186.344" type="line"/>
      <point x="459.399" y="191.387"/>
      <point x="425.009" y="195.056"/>
      <point x="384.861" y="195.056" type="curve" smooth="yes"/>
      <point x="219.695" y="195.059" type="line"/>
      <point x="229.71" y="99.1348"/>
      <point x="311.171" y="33.8037"/>
      <point x="408.462" y="33.8037" type="curve" smooth="yes"/>
      <point x="431.781" y="33.8037"/>
      <point x="456.921" y="36.9775"/>
      <point x="499.292" y="44.9443" type="curve"/>
      <point x="499.292" y="21.499" type="line"/>
      <point x="422.594" y="-9.4209"/>
      <point x="383.595" y="-13.6221"/>
      <point x="347.287" y="-13.6221" type="curve" smooth="yes"/>
      <point x="229.176" y="-13.6221"/>
      <point x="137.399" y="63.8027"/>
      <point x="137.399" y="179.23" type="curve" smooth="yes"/>
      <point x="137.399" y="284.504"/>
      <point x="210.621" y="348.151"/>
    </contour>
  </outline>
</glyph>
<glyph name="c" format="2">
  <advance width="389"/>
  <unicode hex="0063"/>
  <outline>
    <contour>
      <point x="262.465" y="416.552" type="curve" smooth="yes"/>
      <point x="364.636" y="416.552"/>
      <point x="449.913" y="356.276"/>
      <point x="449.913" y="245.204" type="curve" smooth="yes"/>
      <point x="449.913" y="161.099"/>
      <point x="402.011" y="92.3867"/>
      <point x="358.785" y="56.0967" type="curve"/>
      <point x="333.154" y="40.1836"/>
      <point x="209.513" y="-13.6201"/>
      <point x="151.536" y="-13.6201" type="curve" smooth="yes"/>
      <point x="149.042" y="-13.6201"/>
      <point x="146.615" y="-13.5627"/>
      <point x="144.251" y="-13.4499" type="curve" smooth="yes"/>
      <point x="139.848" y="-30.6916"/>
      <point x="133.122" y="-50.2059"/>
      <point x="124.208" y="-71.542" type="curve" smooth="yes"/>
      <point x="69.2881" y="-203.001" type="line"/>
      <point x="45.127" y="-212.688"/>
      <point x="7.32227" y="-222.97"/>
      <point x="-20.9766" y="-228.002" type="curve"/>
      <point x="34.665" y="-94.8164" type="line" smooth="yes"/>
      <point x="55.64" y="-44.6103"/>
      <point x="64.5207" y="-14.8859"/>
      <point x="64.5207" y="4.95433" type="curve" smooth="yes"/>
      <point x="64.5207" y="14.596"/>
      <point x="62.4234" y="21.9034"/>
      <point x="58.5977" y="28.0928" type="curve"/>
      <point x="139.858" y="59.6396" type="line"/>
      <point x="158.508" y="45.5117"/>
      <point x="175.41" y="37.6055"/>
      <point x="207.877" y="37.6055" type="curve" smooth="yes"/>
      <point x="267.726" y="37.6055"/>
      <point x="368.651" y="91.8428"/>
      <point x="368.651" y="213.205" type="curve" smooth="yes"/>
      <point x="368.651" y="318.456"/>
      <point x="294.215" y="368.897"/>
      <point x="200.386" y="368.897" type="curve" smooth="yes"/>
      <point x="192.722" y="368.897"/>
      <point x="165.041" y="365.438"/>
      <point x="143.476" y="357.831" type="curve"/>
      <point x="143.476" y="382.162" type="line"/>
      <point x="185.936" y="398.977"/>
      <point x="243.553" y="416.552"/>
    </contour>
  </outline>
</glyph>
<glyph name="d" format="2">
  <advance width="480"/>
  <unicode hex="0064"/>
  <outline>
    <contour>
      <point x="312.529" y="374.176" type="curve" smooth="yes"/>
      <point x="250.075" y="374.176"/>
      <point x="180.781" y="303.684"/>
      <point x="180.781" y="195.417" type="curve" smooth="yes"/>
      <point x="180.781" y="88.1133"/>
      <point x="250.046" y="28.4512"/>
      <point x="309.533" y="28.4512" type="curve" smooth="yes"/>
      <point x="382.793" y="28.4512"/>
      <point x="443.312" y="102.121"/>
      <point x="443.312" y="208.915" type="curve" smooth="yes"/>
      <point x="443.312" y="308.202"/>
      <point x="395.415" y="374.176"/>
    </contour>
    <contour>
      <point x="358.543" y="416.553" type="curve" smooth="yes"/>
      <point x="451.469" y="416.553"/>
      <point x="524.572" y="347.756"/>
      <point x="524.572" y="244.808" type="curve" smooth="yes"/>
      <point x="524.572" y="101.814"/>
      <point x="425.742" y="-13.6191"/>
      <point x="278.266" y="-13.6191" type="curve" smooth="yes"/>
      <point x="177.672" y="-13.6191"/>
      <point x="99.5195" y="55.124"/>
      <point x="99.5195" y="159.525" type="curve" smooth="yes"/>
      <point x="99.5195" y="336.744"/>
      <point x="250.13" y="416.553"/>
    </contour>
  </outline>
</glyph>
<glyph name="e" format="2">
  <advance width="659"/>
  <unicode hex="0065"/>
  <outline>
    <contour>
      <point x="353.563" y="110.357" type="line"/>
      <point x="445.685" y="200.662"/>
      <point x="662.353" y="334.539"/>
      <point x="743.146" y="416.549" type="curve"/>
      <point x="798.062" y="416.549" type="line"/>
      <point x="740.351" y="360.021"/>
      <point x="617.21" y="279.307"/>
      <point x="505.975" y="193.579" type="curve" smooth="yes"/>
      <point x="422.416" y="129.184"/>
      <point x="329.382" y="43.1934"/>
      <point x="278.494" y="-98.1186" type="curve" smooth="yes"/>
      <point x="240.729" y="-202.997" type="line"/>
      <point x="216.567" y="-212.683"/>
      <point x="178.763" y="-222.969"/>
      <point x="150.465" y="-228.001" type="curve"/>
      <point x="338.154" y="293.235" type="line" smooth="yes"/>
      <point x="350.361" y="327.136"/>
      <point x="356.183" y="345.385"/>
      <point x="356.183" y="355.208" type="curve" smooth="yes"/>
      <point x="356.183" y="366.551"/>
      <point x="348.422" y="366.661"/>
      <point x="333.771" y="366.661" type="curve" smooth="yes"/>
      <point x="126.97" y="366.669" type="line" smooth="yes"/>
      <point x="120.735" y="366.669"/>
      <point x="120.284" y="370.851"/>
      <point x="123.872" y="374.576" type="curve" smooth="yes"/>
      <point x="143.734" y="395.201"/>
      <point x="203.373" y="444.123"/>
      <point x="228.213" y="462.924" type="curve"/>
      <point x="280.958" y="402.556" type="line"/>
      <point x="421.252" y="402.556" type="line" smooth="yes"/>
      <point x="439.396" y="402.556"/>
      <point x="447.467" y="398.673"/>
      <point x="447.467" y="385.108" type="curve" smooth="yes"/>
      <point x="447.467" y="373.295"/>
      <point x="441.346" y="354.14"/>
      <point x="430.426" y="323.812" type="curve" smooth="yes"/>
    </contour>
  </outline>
</glyph>
<glyph name="f" format="2">
  <advance width="502"/>
  <unicode hex="0066"/>
  <outline>
    <contour>
      <point x="571.394" y="293.588" type="curve" smooth="yes"/>
      <point x="571.394" y="164.627"/>
      <point x="412.6" y="-13.6383"/>
      <point x="120.862" y="-13.6383" type="curve" smooth="yes"/>
      <point x="109.5" y="-13.6383"/>
      <point x="75.258" y="-13.2207"/>
      <point x="60.2598" y="-8.37695" type="curve"/>
      <point x="259.489" y="534.091" type="line" smooth="yes"/>
      <point x="262.339" y="541.851"/>
      <point x="263.943" y="548.127"/>
      <point x="263.943" y="553.035" type="curve" smooth="yes"/>
      <point x="263.943" y="562.638"/>
      <point x="257.805" y="567.005"/>
      <point x="242.856" y="567.005" type="curve" smooth="yes"/>
      <point x="236.222" y="567.005"/>
      <point x="227.853" y="566.145"/>
      <point x="217.516" y="564.501" type="curve"/>
      <point x="217.516" y="582.761" type="line"/>
      <point x="254.011" y="595.169"/>
      <point x="323.465" y="603.058"/>
      <point x="334.786" y="603.058" type="curve" smooth="yes"/>
      <point x="352.147" y="603.058"/>
      <point x="358.055" y="598.14"/>
      <point x="358.055" y="588.879" type="curve" smooth="yes"/>
      <point x="358.055" y="582.562"/>
      <point x="355.307" y="574.225"/>
      <point x="351.569" y="564.048" type="curve" smooth="yes"/>
      <point x="284.12" y="380.395" type="line"/>
      <point x="312.036" y="391.421"/>
      <point x="344.821" y="403.231"/>
      <point x="367.749" y="411.247" type="curve" smooth="yes"/>
      <point x="384.277" y="414.957"/>
      <point x="415.024" y="416.554"/>
      <point x="442.531" y="416.554" type="curve" smooth="yes"/>
      <point x="512.281" y="416.554"/>
      <point x="571.394" y="382.363"/>
    </contour>
    <contour>
      <point x="244.896" y="273.597" type="curve" smooth="yes"/>
      <point x="160.163" y="42.8848" type="line"/>
      <point x="174.41" y="41.5841"/>
      <point x="188.166" y="40.9623"/>
      <point x="201.438" y="40.9623" type="curve" smooth="yes"/>
      <point x="399.984" y="40.9623"/>
      <point x="490.133" y="180.113"/>
      <point x="490.133" y="267.429" type="curve" smooth="yes"/>
      <point x="490.133" y="328.752"/>
      <point x="458.87" y="373.066"/>
      <point x="384.396" y="373.066" type="curve" smooth="yes"/>
      <point x="327.915" y="373.066"/>
      <point x="271.989" y="345.827"/>
    </contour>
  </outline>
</glyph>
<glyph name="g" format="2">
  <advance width="389"/>
  <unicode hex="0067"/>
  <outline>
    <contour>
      <point x="262.465" y="416.551" type="curve" smooth="yes"/>
      <point x="364.636" y="416.551"/>
      <point x="449.913" y="356.275"/>
      <point x="449.913" y="245.204" type="curve" smooth="yes"/>
      <point x="449.913" y="161.099"/>
      <point x="402.012" y="92.3867"/>
      <point x="358.785" y="56.0967" type="curve"/>
      <point x="333.152" y="40.1821"/>
      <point x="209.514" y="-13.6201"/>
      <point x="151.536" y="-13.6201" type="curve" smooth="yes"/>
      <point x="149.042" y="-13.6201"/>
      <point x="146.615" y="-13.5627"/>
      <point x="144.251" y="-13.4499" type="curve" smooth="yes"/>
      <point x="139.848" y="-30.6915"/>
      <point x="133.122" y="-50.2058"/>
      <point x="124.208" y="-71.542" type="curve" smooth="yes"/>
      <point x="69.2881" y="-203.002" type="line"/>
      <point x="45.127" y="-212.688"/>
      <point x="7.32227" y="-222.97"/>
      <point x="-20.9766" y="-228.002" type="curve"/>
      <point x="34.665" y="-94.8174" type="line" smooth="yes"/>
      <point x="55.64" y="-44.6113"/>
      <point x="64.5211" y="-14.8865"/>
      <point x="64.5211" y="4.95376" type="curve" smooth="yes"/>
      <point x="64.5211" y="14.5954"/>
      <point x="62.4237" y="21.9027"/>
      <point x="58.5977" y="28.0918" type="curve"/>
      <point x="139.858" y="59.6387" type="line"/>
      <point x="158.508" y="45.5117"/>
      <point x="175.411" y="37.6055"/>
      <point x="207.877" y="37.6055" type="curve" smooth="yes"/>
      <point x="267.726" y="37.6055"/>
      <point x="368.651" y="91.8428"/>
      <point x="368.651" y="213.205" type="curve" smooth="yes"/>
      <point x="368.651" y="318.456"/>
      <point x="294.216" y="368.896"/>
      <point x="200.386" y="368.896" type="curve" smooth="yes"/>
      <point x="192.722" y="368.896"/>
      <point x="165.041" y="365.437"/>
      <point x="143.477" y="357.831" type="curve"/>
      <point x="143.477" y="382.162" type="line"/>
      <point x="185.936" y="398.976"/>
      <point x="243.553" y="416.551"/>
    </contour>
    <contour>
      <point x="380.9" y="572.166" type="curve" smooth="yes"/>
      <point x="380.9" y="542.77"/>
      <point x="357.07" y="518.939"/>
      <point x="327.675" y="518.939" type="curve" smooth="yes"/>
      <point x="298.277" y="518.939"/>
      <point x="274.446" y="542.77"/>
      <point x="274.446" y="572.166" type="curve" smooth="yes"/>
      <point x="274.446" y="601.562"/>
      <point x="298.277" y="625.393"/>
      <point x="327.675" y="625.393" type="curve" smooth="yes"/>
      <point x="357.07" y="625.393"/>
      <point x="380.9" y="601.562"/>
    </contour>
  </outline>
</glyph>
<glyph name="h" format="2">
  <advance width="502"/>
  <unicode hex="0068"/>
  <outline>
    <contour>
      <point x="285.775" y="-151.472" type="curve" smooth="yes"/>
      <point x="285.775" y="-180.868"/>
      <point x="261.945" y="-204.698"/>
      <point x="232.55" y="-204.698" type="curve" smooth="yes"/>
      <point x="203.153" y="-204.698"/>
      <point x="179.322" y="-180.868"/>
      <point x="179.321" y="-151.471" type="curve" smooth="yes"/>
      <point x="179.321" y="-122.075"/>
      <point x="203.152" y="-98.2451"/>
      <point x="232.55" y="-98.2451" type="curve" smooth="yes"/>
      <point x="261.945" y="-98.2451"/>
      <point x="285.775" y="-122.075"/>
    </contour>
    <contour>
      <point x="571.394" y="293.588" type="curve" smooth="yes"/>
      <point x="571.394" y="164.627"/>
      <point x="412.6" y="-13.6383"/>
      <point x="120.862" y="-13.6383" type="curve" smooth="yes"/>
      <point x="109.523" y="-13.6383"/>
      <point x="75.2592" y="-13.2211"/>
      <point x="60.2598" y="-8.37695" type="curve"/>
      <point x="259.489" y="534.091" type="line" smooth="yes"/>
      <point x="262.339" y="541.851"/>
      <point x="263.943" y="548.127"/>
      <point x="263.943" y="553.035" type="curve" smooth="yes"/>
      <point x="263.943" y="562.638"/>
      <point x="257.805" y="567.005"/>
      <point x="242.857" y="567.005" type="curve" smooth="yes"/>
      <point x="236.223" y="567.005"/>
      <point x="227.854" y="566.145"/>
      <point x="217.516" y="564.501" type="curve"/>
      <point x="217.516" y="582.761" type="line"/>
      <point x="254.011" y="595.169"/>
      <point x="323.464" y="603.058"/>
      <point x="334.786" y="603.058" type="curve" smooth="yes"/>
      <point x="352.147" y="603.058"/>
      <point x="358.055" y="598.14"/>
      <point x="358.055" y="588.879" type="curve" smooth="yes"/>
      <point x="358.055" y="582.563"/>
      <point x="355.307" y="574.225"/>
      <point x="351.569" y="564.049" type="curve" smooth="yes"/>
      <point x="284.119" y="380.395" type="line"/>
      <point x="312.036" y="391.421"/>
      <point x="344.821" y="403.231"/>
      <point x="367.749" y="411.247" type="curve" smooth="yes"/>
      <point x="384.277" y="414.957"/>
      <point x="415.024" y="416.554"/>
      <point x="442.531" y="416.554" type="curve" smooth="yes"/>
      <point x="512.281" y="416.554"/>
      <point x="571.394" y="382.363"/>
    </contour>
    <contour>
      <point x="244.889" y="273.577" type="curve" smooth="yes"/>
      <point x="160.163" y="42.8848" type="line"/>
      <point x="174.41" y="41.5841"/>
      <point x="188.166" y="40.9623"/>
      <point x="201.438" y="40.9623" type="curve" smooth="yes"/>
      <point x="399.984" y="40.9623"/>
      <point x="490.133" y="180.113"/>
      <point x="490.133" y="267.429" type="curve" smooth="yes"/>
      <point x="490.133" y="328.752"/>
      <point x="458.87" y="373.066"/>
      <point x="384.396" y="373.066" type="curve" smooth="yes"/>
      <point x="327.91" y="373.066"/>
      <point x="271.979" y="345.822"/>
    </contour>
  </outline>
</glyph>
<glyph name="i" format="2">
  <advance width="393"/>
  <unicode hex="0069"/>
  <outline>
    <contour>
      <point x="269.505" y="462.923" type="curve"/>
      <point x="322.249" y="402.554" type="line"/>
      <point x="445.306" y="402.554" type="line" smooth="yes"/>
      <point x="463.45" y="402.554"/>
      <point x="471.521" y="398.67"/>
      <point x="471.521" y="385.104" type="curve" smooth="yes"/>
      <point x="471.521" y="373.29"/>
      <point x="465.4" y="354.135"/>
      <point x="454.479" y="323.808" type="curve" smooth="yes"/>
      <point x="264.782" y="-203.002" type="line"/>
      <point x="240.621" y="-212.688"/>
      <point x="202.817" y="-222.97"/>
      <point x="174.519" y="-228.002" type="curve"/>
      <point x="258.785" y="6.01512" type="line"/>
      <point x="240.418" y="-0.703542"/>
      <point x="193.119" y="-13.6191"/>
      <point x="154.943" y="-13.6191" type="curve" smooth="yes"/>
      <point x="70.6416" y="-13.6191"/>
      <point x="47.9307" y="24.4482"/>
      <point x="47.9307" y="62.2979" type="curve" smooth="yes"/>
      <point x="47.9307" y="167.17"/>
      <point x="191.707" y="203.912"/>
      <point x="344.064" y="242.847" type="curve"/>
      <point x="362.167" y="293.12" type="line" smooth="yes"/>
      <point x="374.349" y="326.951"/>
      <point x="380.178" y="345.221"/>
      <point x="380.178" y="355.085" type="curve" smooth="yes"/>
      <point x="380.178" y="366.437"/>
      <point x="372.461" y="366.66"/>
      <point x="357.825" y="366.66" type="curve" smooth="yes"/>
      <point x="168.262" y="366.66" type="line" smooth="yes"/>
      <point x="164.572" y="366.66"/>
      <point x="162.907" y="368.128"/>
      <point x="162.907" y="370.098" type="curve" smooth="yes"/>
      <point x="162.907" y="378.165"/>
      <point x="250.719" y="448.705"/>
    </contour>
    <contour>
      <point x="333.114" y="212.438" type="line"/>
      <point x="311.7" y="208.35"/>
      <point x="289.089" y="202.943"/>
      <point x="270.212" y="197.539" type="curve" smooth="yes"/>
      <point x="210.676" y="180.494"/>
      <point x="131.89" y="141.833"/>
      <point x="131.89" y="89.4814" type="curve" smooth="yes"/>
      <point x="131.89" y="42.3408"/>
      <point x="166.986" y="26.168"/>
      <point x="218.6" y="26.168" type="curve" smooth="yes"/>
      <point x="235.873" y="26.168"/>
      <point x="251.427" y="27.9596"/>
      <point x="267.812" y="31.0851" type="curve"/>
    </contour>
  </outline>
</glyph>
<glyph name="j" format="2">
  <advance width="506"/>
  <unicode hex="006A"/>
  <outline>
    <contour>
      <point x="117.378" y="366.661" type="line" smooth="yes"/>
      <point x="113.688" y="366.661"/>
      <point x="112.025" y="368.128"/>
      <point x="112.025" y="370.098" type="curve" smooth="yes"/>
      <point x="112.025" y="378.166"/>
      <point x="199.836" y="448.704"/>
      <point x="218.622" y="462.923" type="curve"/>
      <point x="271.365" y="402.555" type="line"/>
      <point x="518.154" y="402.555" type="line" smooth="yes"/>
      <point x="554.224" y="402.555"/>
      <point x="611.787" y="407.08"/>
      <point x="624.236" y="408.901" type="curve"/>
      <point x="605.455" y="357.949" type="line"/>
      <point x="584.966" y="362.992"/>
      <point x="550.575" y="366.661"/>
      <point x="510.428" y="366.661" type="curve" smooth="yes"/>
      <point x="439.368" y="366.661" type="line"/>
      <point x="234.119" y="-202.997" type="line"/>
      <point x="209.958" y="-212.683"/>
      <point x="172.154" y="-222.969"/>
      <point x="143.855" y="-228.001" type="curve"/>
      <point x="355.687" y="366.661" type="line"/>
    </contour>
  </outline>
</glyph>
<glyph name="k" format="2">
  <advance width="191"/>
  <unicode hex="006B"/>
  <outline>
    <contour>
      <point x="407.986" y="571.788" type="curve" smooth="yes"/>
      <point x="407.986" y="545.161"/>
      <point x="386.402" y="523.576"/>
      <point x="359.774" y="523.576" type="curve" smooth="yes"/>
      <point x="333.148" y="523.576"/>
      <point x="311.562" y="545.161"/>
      <point x="311.562" y="571.788" type="curve" smooth="yes"/>
      <point x="311.562" y="598.414"/>
      <point x="333.148" y="620"/>
      <point x="359.774" y="620" type="curve" smooth="yes"/>
      <point x="386.402" y="620"/>
      <point x="407.986" y="598.414"/>
    </contour>
    <contour>
      <point x="295.4" y="571.788" type="curve" smooth="yes"/>
      <point x="295.4" y="545.161"/>
      <point x="273.81" y="523.576"/>
      <point x="247.188" y="523.576" type="curve" smooth="yes"/>
      <point x="220.561" y="523.576"/>
      <point x="198.978" y="545.161"/>
      <point x="198.978" y="571.788" type="curve" smooth="yes"/>
      <point x="198.978" y="598.415"/>
      <point x="220.561" y="620"/>
      <point x="247.188" y="620" type="curve" smooth="yes"/>
      <point x="273.81" y="620"/>
      <point x="295.4" y="598.415"/>
    </contour>
    <contour>
      <point x="140.372" y="386.332" type="line"/>
      <point x="175.91" y="396.215"/>
      <point x="234.559" y="409.898"/>
      <point x="265.218" y="416.171" type="curve"/>
      <point x="272.284" y="411.589"/>
      <point x="278.385" y="403.135"/>
      <point x="278.385" y="387.374" type="curve" smooth="yes"/>
      <point x="278.385" y="375.648"/>
      <point x="275.008" y="359.878"/>
      <point x="266.14" y="338.65" type="curve" smooth="yes"/>
      <point x="170.104" y="108.779" type="line" smooth="yes"/>
      <point x="135.016" y="24.792"/>
      <point x="98.4092" y="-18.9463"/>
      <point x="69.2324" y="-45.2822" type="curve"/>
      <point x="58.3555" y="-42.7041" type="line" smooth="yes"/>
      <point x="58.3408" y="-41.6908"/>
      <point x="58.3334" y="-40.6585"/>
      <point x="58.3334" y="-39.6075" type="curve" smooth="yes"/>
      <point x="58.3334" y="-4.84441"/>
      <point x="66.4541" y="50.2385"/>
      <point x="89.9395" y="106.453" type="curve" smooth="yes"/>
      <point x="171.953" y="302.758" type="line" smooth="yes"/>
      <point x="183.966" y="331.511"/>
      <point x="190.518" y="348.181"/>
      <point x="190.518" y="357.581" type="curve" smooth="yes"/>
      <point x="190.518" y="364.743"/>
      <point x="186.714" y="367.685"/>
      <point x="178.622" y="368.537" type="curve" smooth="yes"/>
      <point x="142.896" y="372.299" type="line"/>
    </contour>
  </outline>
</glyph>
<glyph name="l" format="2">
  <advance width="191"/>
  <unicode hex="006C"/>
  <outline>
    <contour>
      <point x="117.89" y="-101.891" type="line"/>
      <point x="87.4941" y="-157.649"/>
      <point x="26.2393" y="-233.686"/>
      <point x="0.933594" y="-233.686" type="curve" smooth="yes"/>
      <point x="-13.6335" y="-233.686"/>
      <point x="-28.9317" y="-178.45"/>
      <point x="-28.9317" y="-121.46" type="curve" smooth="yes"/>
      <point x="-28.9317" y="-114.933"/>
      <point x="-28.731" y="-108.383"/>
      <point x="-28.3057" y="-101.891" type="curve"/>
      <point x="-6.87988" y="-101.891" type="line"/>
      <point x="-4.70605" y="-129.776"/>
      <point x="7.51074" y="-158.953"/>
      <point x="24.2061" y="-158.953" type="curve" smooth="yes"/>
      <point x="42.1787" y="-158.953"/>
      <point x="78.7031" y="-123.841"/>
      <point x="93.7119" y="-101.891" type="curve"/>
    </contour>
    <contour>
      <point x="140.372" y="386.332" type="line"/>
      <point x="175.91" y="396.216"/>
      <point x="234.559" y="409.898"/>
      <point x="265.218" y="416.171" type="curve"/>
      <point x="272.284" y="411.589"/>
      <point x="278.385" y="403.135"/>
      <point x="278.385" y="387.374" type="curve" smooth="yes"/>
      <point x="278.385" y="375.649"/>
      <point x="275.008" y="359.879"/>
      <point x="266.14" y="338.65" type="curve" smooth="yes"/>
      <point x="170.104" y="108.78" type="line" smooth="yes"/>
      <point x="135.016" y="24.792"/>
      <point x="98.4092" y="-18.9463"/>
      <point x="69.2324" y="-45.2822" type="curve"/>
      <point x="58.3564" y="-42.7031" type="line"/>
      <point x="58.3417" y="-41.6882"/>
      <point x="58.3343" y="-40.654"/>
      <point x="58.3343" y="-39.6013" type="curve" smooth="yes"/>
      <point x="58.3343" y="-4.83872"/>
      <point x="66.4563" y="50.2414"/>
      <point x="89.9404" y="106.453" type="curve" smooth="yes"/>
      <point x="171.953" y="302.758" type="line" smooth="yes"/>
      <point x="183.966" y="331.512"/>
      <point x="190.518" y="348.181"/>
      <point x="190.518" y="357.581" type="curve" smooth="yes"/>
      <point x="190.518" y="364.744"/>
      <point x="186.714" y="367.686"/>
      <point x="178.622" y="368.538" type="curve" smooth="yes"/>
      <point x="142.896" y="372.299" type="line"/>
    </contour>
  </outline>
</glyph>
<glyph name="m" format="2">
  <advance width="191"/>
  <unicode hex="006D"/>
  <outline>
    <contour>
      <point x="85.6104" y="-151.859" type="curve" smooth="yes"/>
      <point x="85.6104" y="-181.256"/>
      <point x="61.7803" y="-205.086"/>
      <point x="32.3848" y="-205.086" type="curve" smooth="yes"/>
      <point x="2.98828" y="-205.086"/>
      <point x="-20.8428" y="-181.256"/>
      <point x="-20.8438" y="-151.858" type="curve" smooth="yes"/>
      <point x="-20.8438" y="-122.463"/>
      <point x="2.9873" y="-98.6328"/>
      <point x="32.3848" y="-98.6328" type="curve" smooth="yes"/>
      <point x="61.7803" y="-98.6328"/>
      <point x="85.6104" y="-122.463"/>
    </contour>
    <contour>
      <point x="140.372" y="386.332" type="line"/>
      <point x="175.91" y="396.216"/>
      <point x="234.559" y="409.898"/>
      <point x="265.218" y="416.171" type="curve"/>
      <point x="272.284" y="411.589"/>
      <point x="278.385" y="403.135"/>
      <point x="278.385" y="387.374" type="curve" smooth="yes"/>
      <point x="278.385" y="375.649"/>
      <point x="275.008" y="359.879"/>
      <point x="266.14" y="338.65" type="curve" smooth="yes"/>
      <point x="170.104" y="108.78" type="line" smooth="yes"/>
      <point x="135.016" y="24.792"/>
      <point x="98.4092" y="-18.9463"/>
      <point x="69.2324" y="-45.2822" type="curve"/>
      <point x="58.3564" y="-42.7031" type="line"/>
      <point x="58.3417" y="-41.688"/>
      <point x="58.3343" y="-40.6538"/>
      <point x="58.3343" y="-39.6009" type="curve" smooth="yes"/>
      <point x="58.3343" y="-4.83835"/>
      <point x="66.4555" y="50.2416"/>
      <point x="89.9404" y="106.453" type="curve" smooth="yes"/>
      <point x="171.953" y="302.758" type="line" smooth="yes"/>
      <point x="183.966" y="331.512"/>
      <point x="190.518" y="348.181"/>
      <point x="190.518" y="357.581" type="curve" smooth="yes"/>
      <point x="190.518" y="364.744"/>
      <point x="186.714" y="367.686"/>
      <point x="178.622" y="368.538" type="curve" smooth="yes"/>
      <point x="142.896" y="372.299" type="line"/>
    </contour>
  </outline>
</glyph>
<glyph name="n" format="2">
  <advance width="202"/>
  <unicode hex="006E"/>
  <outline>
    <contour>
      <point x="266.258" y="416.552" type="curve" smooth="yes"/>
      <point x="283.658" y="416.552"/>
      <point x="289.545" y="411.636"/>
      <point x="289.545" y="402.342" type="curve" smooth="yes"/>
      <point x="289.545" y="396.038"/>
      <point x="286.837" y="387.719"/>
      <point x="283.177" y="377.554" type="curve" smooth="yes"/>
      <point x="74.127" y="-202.995" type="line"/>
      <point x="49.9658" y="-212.681"/>
      <point x="12.1621" y="-222.967"/>
      <point x="-16.1367" y="-227.999" type="curve"/>
      <point x="190.963" y="347.597" type="line" smooth="yes"/>
      <point x="193.754" y="355.355"/>
      <point x="195.332" y="361.627"/>
      <point x="195.332" y="366.532" type="curve" smooth="yes"/>
      <point x="195.332" y="376.157"/>
      <point x="189.259" y="380.52"/>
      <point x="174.359" y="380.52" type="curve" smooth="yes"/>
      <point x="167.73" y="380.52"/>
      <point x="159.353" y="379.656"/>
      <point x="148.987" y="378.008" type="curve"/>
      <point x="148.987" y="396.267" type="line"/>
      <point x="185.483" y="408.676"/>
      <point x="254.936" y="416.552"/>
    </contour>
  </outline>
</glyph>
<glyph name="o" format="2">
  <advance width="446"/>
  <unicode hex="006F"/>
  <outline>
    <contour>
      <point x="342.278" y="245.122" type="curve" smooth="yes"/>
      <point x="342.278" y="215.727"/>
      <point x="318.448" y="191.896"/>
      <point x="289.053" y="191.896" type="curve" smooth="yes"/>
      <point x="259.655" y="191.896"/>
      <point x="235.825" y="215.727"/>
      <point x="235.824" y="245.123" type="curve" smooth="yes"/>
      <point x="235.824" y="274.52"/>
      <point x="259.655" y="298.35"/>
      <point x="289.053" y="298.35" type="curve" smooth="yes"/>
      <point x="318.448" y="298.35"/>
      <point x="342.278" y="274.52"/>
    </contour>
    <contour>
      <point x="149.613" y="366.662" type="line" smooth="yes"/>
      <point x="145.924" y="366.662"/>
      <point x="144.26" y="368.129"/>
      <point x="144.26" y="370.099" type="curve" smooth="yes"/>
      <point x="144.26" y="378.167"/>
      <point x="232.072" y="448.706"/>
      <point x="250.857" y="462.924" type="curve"/>
      <point x="303.6" y="402.554" type="line"/>
      <point x="456.667" y="402.554" type="line" smooth="yes"/>
      <point x="503.206" y="402.554"/>
      <point x="535.293" y="373.336"/>
      <point x="535.293" y="320.103" type="curve" smooth="yes"/>
      <point x="535.293" y="194.932"/>
      <point x="193.121" y="-1.37462"/>
      <point x="131.293" y="-31.3848" type="curve"/>
      <point x="103.906" y="-6.5459" type="line"/>
      <point x="154.043" y="15.5088"/>
      <point x="280.354" y="95.1826"/>
      <point x="333.469" y="139.637" type="curve" smooth="yes"/>
      <point x="420.789" y="212.718"/>
      <point x="451.701" y="248.254"/>
      <point x="451.701" y="298.905" type="curve" smooth="yes"/>
      <point x="451.701" y="352.769"/>
      <point x="408.415" y="366.662"/>
      <point x="365.806" y="366.662" type="curve" smooth="yes"/>
    </contour>
  </outline>
</glyph>
<glyph name="p" format="2">
  <advance width="479"/>
  <unicode hex="0070"/>
  <outline>
    <contour>
      <point x="575.159" y="416.551" type="curve" smooth="yes"/>
      <point x="586.868" y="416.551"/>
      <point x="595.764" y="407.805"/>
      <point x="595.764" y="393.111" type="curve" smooth="yes"/>
      <point x="595.764" y="381.911"/>
      <point x="590.595" y="367.255"/>
      <point x="577.562" y="350.383" type="curve" smooth="yes"/>
      <point x="305.784" y="-1.46186" type="line"/>
      <point x="221.585" y="-203" type="line"/>
      <point x="197.424" y="-212.686"/>
      <point x="159.62" y="-222.966"/>
      <point x="131.321" y="-227.998" type="curve"/>
      <point x="218.986" y="-18.1682" type="line"/>
      <point x="189.457" y="318.225" type="line" smooth="yes"/>
      <point x="185.205" y="366.664"/>
      <point x="176.227" y="371.309"/>
      <point x="163.605" y="371.309" type="curve" smooth="yes"/>
      <point x="154.777" y="371.309"/>
      <point x="134.105" y="365.42"/>
      <point x="121.133" y="360.092" type="curve"/>
      <point x="121.133" y="380.412" type="line"/>
      <point x="175.209" y="403.233"/>
      <point x="232.415" y="416.551"/>
      <point x="246.196" y="416.551" type="curve" smooth="yes"/>
      <point x="259.97" y="416.551"/>
      <point x="260.601" y="409.364"/>
      <point x="263.171" y="380.081" type="curve" smooth="yes"/>
      <point x="292.609" y="44.7373" type="line"/>
      <point x="516.451" y="334.529" type="line" smooth="yes"/>
      <point x="523.584" y="343.763"/>
      <point x="526.714" y="351.103"/>
      <point x="526.714" y="356.671" type="curve" smooth="yes"/>
      <point x="526.714" y="365.958"/>
      <point x="518.006" y="370.316"/>
      <point x="504.635" y="370.316" type="curve" smooth="yes"/>
      <point x="498.953" y="370.316"/>
      <point x="487.232" y="367.248"/>
      <point x="474.155" y="362.76" type="curve"/>
      <point x="474.155" y="382.603" type="line"/>
      <point x="504.075" y="393.844"/>
      <point x="568.876" y="416.551"/>
    </contour>
  </outline>
</glyph>
<glyph name="q" format="2">
  <advance width="666"/>
  <unicode hex="0071"/>
  <outline>
    <contour>
      <point x="348.531" y="366.662" type="curve"/>
      <point x="117.378" y="366.662" type="line" smooth="yes"/>
      <point x="113.689" y="366.662"/>
      <point x="112.025" y="368.129"/>
      <point x="112.025" y="370.098" type="curve" smooth="yes"/>
      <point x="112.025" y="378.166"/>
      <point x="199.84" y="448.708"/>
      <point x="218.622" y="462.923" type="curve"/>
      <point x="271.365" y="402.555" type="line"/>
      <point x="678.482" y="402.555" type="line" smooth="yes"/>
      <point x="714.552" y="402.555"/>
      <point x="772.115" y="407.08"/>
      <point x="784.564" y="408.902" type="curve"/>
      <point x="765.782" y="357.95" type="line"/>
      <point x="745.293" y="362.992"/>
      <point x="710.902" y="366.661"/>
      <point x="670.756" y="366.661" type="curve" smooth="yes"/>
      <point x="605.176" y="366.661" type="line"/>
      <point x="633.785" y="340.226"/>
      <point x="654.311" y="298.145"/>
      <point x="654.311" y="237.022" type="curve" smooth="yes"/>
      <point x="654.311" y="114.642"/>
      <point x="566.33" y="-13.6182"/>
      <point x="408.003" y="-13.6182" type="curve" smooth="yes"/>
      <point x="307.409" y="-13.6182"/>
      <point x="231.203" y="45.7627"/>
      <point x="231.203" y="161.19" type="curve" smooth="yes"/>
      <point x="231.203" y="250.838"/>
      <point x="277.503" y="325.133"/>
    </contour>
    <contour>
      <point x="418.778" y="434.261" type="line"/>
      <point x="543.878" y="544.493" type="line" smooth="yes"/>
      <point x="585.563" y="581.225"/>
      <point x="609.059" y="588.72"/>
      <point x="669.964" y="588.72" type="curve" smooth="yes"/>
      <point x="734.543" y="588.72" type="line"/>
      <point x="734.543" y="561.574" type="line"/>
      <point x="681.247" y="551.439"/>
      <point x="626.48" y="538.678"/>
      <point x="567.558" y="504.583" type="curve" smooth="yes"/>
      <point x="446.028" y="434.261" type="line"/>
    </contour>
    <contour>
      <point x="442.689" y="366.662" type="curve" smooth="yes"/>
      <point x="441.922" y="366.662" type="line" smooth="yes"/>
      <point x="375.466" y="366.441"/>
      <point x="312.466" y="302.415"/>
      <point x="312.466" y="197.083" type="curve" smooth="yes"/>
      <point x="312.466" y="82.75"/>
      <point x="380.688" y="28.4512"/>
      <point x="439.271" y="28.4512" type="curve" smooth="yes"/>
      <point x="512.53" y="28.4512"/>
      <point x="573.049" y="94.3359"/>
      <point x="573.049" y="201.13" type="curve" smooth="yes"/>
      <point x="573.049" y="300.248"/>
      <point x="525.315" y="366.437"/>
    </contour>
  </outline>
</glyph>
<glyph name="r" format="2">
  <advance width="483"/>
  <unicode hex="0072"/>
  <outline>
    <contour>
      <point x="117.377" y="366.661" type="line" smooth="yes"/>
      <point x="113.688" y="366.661"/>
      <point x="112.024" y="368.128"/>
      <point x="112.024" y="370.098" type="curve" smooth="yes"/>
      <point x="112.024" y="378.165"/>
      <point x="199.834" y="448.703"/>
      <point x="218.621" y="462.923" type="curve"/>
      <point x="271.364" y="402.555" type="line"/>
      <point x="442.192" y="402.555" type="line" smooth="yes"/>
      <point x="478.262" y="402.555"/>
      <point x="535.825" y="407.08"/>
      <point x="548.274" y="408.901" type="curve"/>
      <point x="529.493" y="357.949" type="line"/>
      <point x="509.004" y="362.992"/>
      <point x="474.613" y="366.661"/>
      <point x="434.466" y="366.661" type="curve" smooth="yes"/>
      <point x="396.407" y="366.661" type="line" smooth="yes"/>
      <point x="322.466" y="366.661"/>
      <point x="218.661" y="331.166"/>
      <point x="218.661" y="211.229" type="curve" smooth="yes"/>
      <point x="218.661" y="104.467"/>
      <point x="304.528" y="33.8037"/>
      <point x="408.462" y="33.8037" type="curve" smooth="yes"/>
      <point x="431.781" y="33.8037"/>
      <point x="456.921" y="36.9775"/>
      <point x="499.292" y="44.9443" type="curve"/>
      <point x="499.292" y="21.499" type="line"/>
      <point x="422.594" y="-9.4209"/>
      <point x="383.595" y="-13.6221"/>
      <point x="347.287" y="-13.6221" type="curve" smooth="yes"/>
      <point x="229.176" y="-13.6221"/>
      <point x="137.399" y="59.9092"/>
      <point x="137.399" y="175.338" type="curve" smooth="yes"/>
      <point x="137.399" y="280.449"/>
      <point x="210.389" y="336.014"/>
      <point x="236.597" y="349.317" type="curve" smooth="yes"/>
      <point x="245.771" y="353.975"/>
      <point x="261.862" y="360.204"/>
      <point x="281.403" y="366.661" type="curve"/>
    </contour>
  </outline>
</glyph>
<glyph name="s" format="2">
  <advance width="191"/>
  <unicode hex="0073"/>
  <outline>
    <contour>
      <point x="140.371" y="386.332" type="line"/>
      <point x="175.909" y="396.216"/>
      <point x="234.559" y="409.898"/>
      <point x="265.218" y="416.171" type="curve"/>
      <point x="272.284" y="411.589"/>
      <point x="278.385" y="403.135"/>
      <point x="278.385" y="387.374" type="curve" smooth="yes"/>
      <point x="278.385" y="375.649"/>
      <point x="275.008" y="359.879"/>
      <point x="266.14" y="338.65" type="curve" smooth="yes"/>
      <point x="170.104" y="108.78" type="line" smooth="yes"/>
      <point x="135.015" y="24.792"/>
      <point x="98.4082" y="-18.9463"/>
      <point x="69.2314" y="-45.2822" type="curve"/>
      <point x="58.3555" y="-42.7041" type="line"/>
      <point x="58.3408" y="-41.6908"/>
      <point x="58.3334" y="-40.6585"/>
      <point x="58.3334" y="-39.6075" type="curve" smooth="yes"/>
      <point x="58.3334" y="-4.84441"/>
      <point x="66.4541" y="50.2385"/>
      <point x="89.9395" y="106.453" type="curve" smooth="yes"/>
      <point x="171.952" y="302.758" type="line" smooth="yes"/>
      <point x="183.965" y="331.512"/>
      <point x="190.517" y="348.181"/>
      <point x="190.517" y="357.581" type="curve" smooth="yes"/>
      <point x="190.517" y="364.744"/>
      <point x="186.713" y="367.686"/>
      <point x="178.621" y="368.538" type="curve" smooth="yes"/>
      <point x="142.895" y="372.299" type="line"/>
    </contour>
  </outline>
</glyph>
<glyph name="t" format="2">
  <advance width="480"/>
  <unicode hex="0074"/>
  <outline>
    <contour>
      <point x="365.278" y="202.758" type="curve" smooth="yes"/>
      <point x="365.278" y="173.362"/>
      <point x="341.447" y="149.532"/>
      <point x="312.053" y="149.532" type="curve" smooth="yes"/>
      <point x="282.655" y="149.532"/>
      <point x="258.825" y="173.362"/>
      <point x="258.824" y="202.759" type="curve" smooth="yes"/>
      <point x="258.824" y="232.155"/>
      <point x="282.655" y="255.985"/>
      <point x="312.053" y="255.985" type="curve" smooth="yes"/>
      <point x="341.447" y="255.985"/>
      <point x="365.278" y="232.155"/>
    </contour>
    <contour>
      <point x="312.53" y="374.176" type="curve" smooth="yes"/>
      <point x="250.075" y="374.176"/>
      <point x="180.781" y="303.684"/>
      <point x="180.781" y="195.417" type="curve" smooth="yes"/>
      <point x="180.781" y="88.1133"/>
      <point x="250.046" y="28.4512"/>
      <point x="309.533" y="28.4512" type="curve" smooth="yes"/>
      <point x="382.793" y="28.4512"/>
      <point x="443.312" y="102.121"/>
      <point x="443.312" y="208.915" type="curve" smooth="yes"/>
      <point x="443.312" y="308.202"/>
      <point x="395.415" y="374.176"/>
    </contour>
    <contour>
      <point x="358.543" y="416.553" type="curve" smooth="yes"/>
      <point x="451.469" y="416.553"/>
      <point x="524.573" y="347.756"/>
      <point x="524.573" y="244.808" type="curve" smooth="yes"/>
      <point x="524.573" y="101.814"/>
      <point x="425.742" y="-13.6191"/>
      <point x="278.266" y="-13.6191" type="curve" smooth="yes"/>
      <point x="177.672" y="-13.6191"/>
      <point x="99.5195" y="55.124"/>
      <point x="99.5195" y="159.525" type="curve" smooth="yes"/>
      <point x="99.5195" y="336.744"/>
      <point x="250.13" y="416.553"/>
    </contour>
  </outline>
</glyph>
<glyph name="u" format="2">
  <advance width="190"/>
  <unicode hex="0075"/>
  <outline>
    <contour>
      <point x="348.765" y="571.786" type="curve" smooth="yes"/>
      <point x="348.765" y="542.39"/>
      <point x="324.934" y="518.56"/>
      <point x="295.538" y="518.56" type="curve" smooth="yes"/>
      <point x="266.142" y="518.56"/>
      <point x="242.311" y="542.39"/>
      <point x="242.311" y="571.786" type="curve" smooth="yes"/>
      <point x="242.311" y="601.183"/>
      <point x="266.141" y="625.013"/>
      <point x="295.538" y="625.013" type="curve" smooth="yes"/>
      <point x="324.934" y="625.013"/>
      <point x="348.765" y="601.183"/>
    </contour>
    <contour>
      <point x="266.257" y="416.552" type="curve" smooth="yes"/>
      <point x="283.658" y="416.552"/>
      <point x="289.545" y="411.636"/>
      <point x="289.545" y="402.342" type="curve" smooth="yes"/>
      <point x="289.545" y="396.038"/>
      <point x="286.837" y="387.719"/>
      <point x="283.177" y="377.554" type="curve" smooth="yes"/>
      <point x="74.127" y="-202.995" type="line"/>
      <point x="49.9658" y="-212.682"/>
      <point x="12.1621" y="-222.968"/>
      <point x="-16.1367" y="-228" type="curve"/>
      <point x="190.963" y="347.597" type="line" smooth="yes"/>
      <point x="193.754" y="355.355"/>
      <point x="195.332" y="361.627"/>
      <point x="195.332" y="366.532" type="curve" smooth="yes"/>
      <point x="195.332" y="376.156"/>
      <point x="189.259" y="380.52"/>
      <point x="174.36" y="380.52" type="curve" smooth="yes"/>
      <point x="167.731" y="380.52"/>
      <point x="159.354" y="379.656"/>
      <point x="148.987" y="378.007" type="curve"/>
      <point x="148.987" y="396.267" type="line"/>
      <point x="185.483" y="408.676"/>
      <point x="254.936" y="416.552"/>
    </contour>
  </outline>
</glyph>
<glyph name="v" format="2">
  <advance width="502"/>
  <unicode hex="0076"/>
  <outline>
    <contour>
      <point x="323.851" y="-101.503" type="line"/>
      <point x="293.454" y="-157.262"/>
      <point x="232.199" y="-233.298"/>
      <point x="206.894" y="-233.298" type="curve" smooth="yes"/>
      <point x="192.326" y="-233.298"/>
      <point x="177.029" y="-178.061"/>
      <point x="177.029" y="-121.069" type="curve" smooth="yes"/>
      <point x="177.029" y="-114.543"/>
      <point x="177.229" y="-107.994"/>
      <point x="177.654" y="-101.503" type="curve"/>
      <point x="199.081" y="-101.503" type="line"/>
      <point x="201.254" y="-129.389"/>
      <point x="213.471" y="-158.565"/>
      <point x="230.167" y="-158.565" type="curve" smooth="yes"/>
      <point x="248.139" y="-158.565"/>
      <point x="284.664" y="-123.453"/>
      <point x="299.672" y="-101.503" type="curve"/>
    </contour>
    <contour>
      <point x="571.394" y="293.588" type="curve" smooth="yes"/>
      <point x="571.394" y="164.628"/>
      <point x="412.6" y="-13.6383"/>
      <point x="120.863" y="-13.6383" type="curve" smooth="yes"/>
      <point x="109.502" y="-13.6383"/>
      <point x="75.258" y="-13.2207"/>
      <point x="60.2598" y="-8.37695" type="curve"/>
      <point x="259.489" y="534.091" type="line" smooth="yes"/>
      <point x="262.339" y="541.851"/>
      <point x="263.943" y="548.127"/>
      <point x="263.943" y="553.035" type="curve" smooth="yes"/>
      <point x="263.943" y="562.638"/>
      <point x="257.805" y="567.005"/>
      <point x="242.856" y="567.005" type="curve" smooth="yes"/>
      <point x="236.222" y="567.005"/>
      <point x="227.853" y="566.145"/>
      <point x="217.516" y="564.501" type="curve"/>
      <point x="217.516" y="582.761" type="line"/>
      <point x="254.011" y="595.169"/>
      <point x="323.465" y="603.058"/>
      <point x="334.786" y="603.058" type="curve" smooth="yes"/>
      <point x="352.147" y="603.058"/>
      <point x="358.055" y="598.14"/>
      <point x="358.055" y="588.879" type="curve" smooth="yes"/>
      <point x="358.055" y="582.562"/>
      <point x="355.307" y="574.225"/>
      <point x="351.569" y="564.048" type="curve" smooth="yes"/>
      <point x="284.12" y="380.395" type="line"/>
      <point x="312.036" y="391.421"/>
      <point x="344.821" y="403.231"/>
      <point x="367.749" y="411.247" type="curve" smooth="yes"/>
      <point x="384.277" y="414.957"/>
      <point x="415.025" y="416.554"/>
      <point x="442.532" y="416.554" type="curve" smooth="yes"/>
      <point x="512.282" y="416.554"/>
      <point x="571.394" y="382.363"/>
    </contour>
    <contour>
      <point x="244.896" y="273.597" type="curve" smooth="yes"/>
      <point x="160.163" y="42.8848" type="line"/>
      <point x="174.41" y="41.5841"/>
      <point x="188.166" y="40.9623"/>
      <point x="201.438" y="40.9623" type="curve" smooth="yes"/>
      <point x="399.984" y="40.9623"/>
      <point x="490.133" y="180.113"/>
      <point x="490.133" y="267.429" type="curve" smooth="yes"/>
      <point x="490.133" y="328.752"/>
      <point x="458.87" y="373.066"/>
      <point x="384.396" y="373.066" type="curve" smooth="yes"/>
      <point x="327.915" y="373.066"/>
      <point x="271.989" y="345.827"/>
    </contour>
  </outline>
</glyph>
<glyph name="w" format="2">
  <advance width="480"/>
  <unicode hex="0077"/>
  <outline>
    <contour>
      <point x="198.913" y="-33.877" type="curve"/>
      <point x="198.913" y="-24.5859" type="line"/>
      <point x="231.383" y="-8.34799" type="line"/>
      <point x="154.403" y="9.58837"/>
      <point x="99.5195" y="72.0363"/>
      <point x="99.5195" y="159.525" type="curve" smooth="yes"/>
      <point x="99.5195" y="336.744"/>
      <point x="250.13" y="416.553"/>
      <point x="358.543" y="416.553" type="curve" smooth="yes"/>
      <point x="451.469" y="416.553"/>
      <point x="524.572" y="347.756"/>
      <point x="524.572" y="244.808" type="curve" smooth="yes"/>
      <point x="524.572" y="119.592"/>
      <point x="448.788" y="15.5089"/>
      <point x="330.918" y="-8.43552" type="curve"/>
      <point x="343.149" y="-18.3499"/>
      <point x="349.28" y="-34.6781"/>
      <point x="349.28" y="-61.2324" type="curve" smooth="yes"/>
      <point x="349.28" y="-99.1797"/>
      <point x="322.864" y="-147.237"/>
      <point x="256.147" y="-189.042" type="curve" smooth="yes"/>
      <point x="223.625" y="-209.421"/>
      <point x="174.83" y="-227.209"/>
      <point x="128.374" y="-242.224" type="curve"/>
      <point x="128.374" y="-221.578" type="line"/>
      <point x="210.956" y="-189.233"/>
      <point x="265.322" y="-134.179"/>
      <point x="265.322" y="-82.9092" type="curve" smooth="yes"/>
      <point x="265.322" y="-42.6514"/>
      <point x="246.064" y="-33.877"/>
    </contour>
    <contour>
      <point x="312.529" y="374.176" type="curve" smooth="yes"/>
      <point x="250.075" y="374.176"/>
      <point x="180.781" y="303.684"/>
      <point x="180.781" y="195.417" type="curve" smooth="yes"/>
      <point x="180.781" y="88.1133"/>
      <point x="250.046" y="28.4512"/>
      <point x="309.533" y="28.4512" type="curve" smooth="yes"/>
      <point x="382.793" y="28.4512"/>
      <point x="443.312" y="102.121"/>
      <point x="443.312" y="208.915" type="curve" smooth="yes"/>
      <point x="443.312" y="308.202"/>
      <point x="395.415" y="374.176"/>
    </contour>
  </outline>
</glyph>
<glyph name="x" format="2">
  <advance width="368"/>
  <unicode hex="0078"/>
  <outline>
    <contour>
      <point x="-82.6074" y="-207.973" type="line"/>
      <point x="-21.2146" y="-184.851"/>
      <point x="87.285" y="-143.988"/>
      <point x="133.179" y="-143.988" type="curve" smooth="yes"/>
      <point x="149.435" y="-143.988"/>
      <point x="163.716" y="-146.534"/>
      <point x="177.236" y="-151.736" type="curve"/>
      <point x="337.426" y="293.119" type="line" smooth="yes"/>
      <point x="349.599" y="326.925"/>
      <point x="355.419" y="345.196"/>
      <point x="355.419" y="355.069" type="curve" smooth="yes"/>
      <point x="355.419" y="366.256"/>
      <point x="347.946" y="366.659"/>
      <point x="333.772" y="366.659" type="curve" smooth="yes"/>
      <point x="126.972" y="366.659" type="line" smooth="yes"/>
      <point x="123.282" y="366.659"/>
      <point x="121.617" y="368.127"/>
      <point x="121.617" y="370.097" type="curve" smooth="yes"/>
      <point x="121.617" y="377.085"/>
      <point x="195.069" y="439.477"/>
      <point x="218.08" y="456.894" type="curve"/>
      <point x="262.711" y="402.555" type="line"/>
      <point x="420.565" y="402.555" type="line" smooth="yes"/>
      <point x="438.708" y="402.555"/>
      <point x="446.779" y="398.672"/>
      <point x="446.779" y="385.109" type="curve" smooth="yes"/>
      <point x="446.779" y="373.297"/>
      <point x="440.656" y="354.14"/>
      <point x="429.735" y="323.811" type="curve" smooth="yes"/>
      <point x="240.038" y="-202.998" type="line"/>
      <point x="215.878" y="-212.684"/>
      <point x="178.076" y="-222.966"/>
      <point x="149.778" y="-227.998" type="curve"/>
      <point x="121.862" y="-194.719"/>
      <point x="92.5996" y="-183.604"/>
      <point x="61.0693" y="-183.604" type="curve" smooth="yes"/>
      <point x="38" y="-183.604"/>
      <point x="-6.59961" y="-196.808"/>
      <point x="-76.3809" y="-221.285" type="curve"/>
    </contour>
    <contour>
      <point x="399.414" y="572.167" type="curve" smooth="yes"/>
      <point x="399.414" y="542.771"/>
      <point x="375.583" y="518.94"/>
      <point x="346.188" y="518.94" type="curve" smooth="yes"/>
      <point x="316.79" y="518.94"/>
      <point x="292.96" y="542.771"/>
      <point x="292.96" y="572.167" type="curve" smooth="yes"/>
      <point x="292.96" y="601.563"/>
      <point x="316.79" y="625.394"/>
      <point x="346.188" y="625.394" type="curve" smooth="yes"/>
      <point x="375.583" y="625.394"/>
      <point x="399.414" y="601.563"/>
    </contour>
  </outline>
</glyph>
<glyph name="y" format="2">
  <advance width="629"/>
  <unicode hex="0079"/>
  <outline>
    <contour>
      <point x="490.519" y="367.37" type="curve"/>
      <point x="491.75" y="368.216"/>
      <point x="568.493" y="416.551"/>
      <point x="631.562" y="416.551" type="curve" smooth="yes"/>
      <point x="665.396" y="416.551"/>
      <point x="728.286" y="389.333"/>
      <point x="753.018" y="318.901" type="curve"/>
      <point x="732.494" y="302.688"/>
      <point x="706.26" y="284.052"/>
      <point x="684.092" y="269.497" type="curve"/>
      <point x="667.782" y="269.497" type="line"/>
      <point x="659.234" y="341.911"/>
      <point x="610.162" y="372.56"/>
      <point x="575.216" y="372.56" type="curve" smooth="yes"/>
      <point x="548.871" y="372.56"/>
      <point x="520.219" y="352.772"/>
      <point x="498.713" y="323.74" type="curve"/>
      <point x="498.713" y="323.74"/>
      <point x="501.938" y="295.783"/>
      <point x="501.938" y="255.46" type="curve" smooth="yes"/>
      <point x="501.938" y="117.286"/>
      <point x="430.97" y="-13.6201"/>
      <point x="357.851" y="-13.6201" type="curve" smooth="yes"/>
      <point x="332.044" y="-13.6201"/>
      <point x="315.915" y="10.833"/>
      <point x="315.915" y="54.9199" type="curve" smooth="yes"/>
      <point x="315.915" y="123.737"/>
      <point x="360.001" y="227.502"/>
      <point x="416.454" y="304.923" type="curve"/>
      <point x="408.927" y="356.536"/>
      <point x="378.977" y="373.385"/>
      <point x="359.084" y="373.385" type="curve" smooth="yes"/>
      <point x="322.3" y="373.385"/>
      <point x="267.772" y="331.719"/>
      <point x="237.685" y="245.578" type="curve" smooth="yes"/>
      <point x="82.1738" y="-202.996" type="line"/>
      <point x="58.0127" y="-212.683"/>
      <point x="20.209" y="-222.969"/>
      <point x="-8.08984" y="-228" type="curve"/>
      <point x="191.457" y="347.596" type="line" smooth="yes"/>
      <point x="194.124" y="355.29"/>
      <point x="195.639" y="361.519"/>
      <point x="195.639" y="366.403" type="curve" smooth="yes"/>
      <point x="195.639" y="376.143"/>
      <point x="189.616" y="380.534"/>
      <point x="174.705" y="380.534" type="curve" smooth="yes"/>
      <point x="168.065" y="380.534"/>
      <point x="159.664" y="379.663"/>
      <point x="149.248" y="378.007" type="curve"/>
      <point x="149.248" y="396.266" type="line"/>
      <point x="185.744" y="408.675"/>
      <point x="255.196" y="416.551"/>
      <point x="266.518" y="416.551" type="curve" smooth="yes"/>
      <point x="283.885" y="416.551"/>
      <point x="289.677" y="411.692"/>
      <point x="289.677" y="402.441" type="curve" smooth="yes"/>
      <point x="289.677" y="395.942"/>
      <point x="286.896" y="387.529"/>
      <point x="283.035" y="376.392" type="curve"/>
      <point x="291.842" y="380.409"/>
      <point x="372.567" y="416.551"/>
      <point x="426.729" y="416.551" type="curve" smooth="yes"/>
      <point x="445.738" y="416.551"/>
      <point x="479.451" y="407.835"/>
    </contour>
  </outline>
</glyph>
<glyph name="z" format="2">
  <advance width="367"/>
  <unicode hex="007A"/>
  <outline>
    <contour>
      <point x="-82.6074" y="-207.973" type="line"/>
      <point x="-21.2479" y="-184.864"/>
      <point x="87.2824" y="-143.989"/>
      <point x="133.179" y="-143.989" type="curve" smooth="yes"/>
      <point x="149.435" y="-143.989"/>
      <point x="163.716" y="-146.534"/>
      <point x="177.236" y="-151.737" type="curve"/>
      <point x="337.426" y="293.119" type="line" smooth="yes"/>
      <point x="349.599" y="326.925"/>
      <point x="355.42" y="345.196"/>
      <point x="355.42" y="355.069" type="curve" smooth="yes"/>
      <point x="355.42" y="366.255"/>
      <point x="347.947" y="366.659"/>
      <point x="333.772" y="366.659" type="curve" smooth="yes"/>
      <point x="126.972" y="366.659" type="line" smooth="yes"/>
      <point x="123.282" y="366.659"/>
      <point x="121.617" y="368.127"/>
      <point x="121.617" y="370.097" type="curve" smooth="yes"/>
      <point x="121.617" y="378.164"/>
      <point x="209.429" y="448.704"/>
      <point x="228.215" y="462.922" type="curve"/>
      <point x="280.96" y="402.552" type="line"/>
      <point x="420.565" y="402.552" type="line" smooth="yes"/>
      <point x="438.708" y="402.552"/>
      <point x="446.779" y="398.67"/>
      <point x="446.779" y="385.108" type="curve" smooth="yes"/>
      <point x="446.779" y="373.295"/>
      <point x="440.656" y="354.139"/>
      <point x="429.735" y="323.81" type="curve" smooth="yes"/>
      <point x="240.038" y="-202.999" type="line"/>
      <point x="215.879" y="-212.684"/>
      <point x="178.079" y="-222.965"/>
      <point x="149.781" y="-227.998" type="curve"/>
      <point x="121.862" y="-194.72"/>
      <point x="92.5996" y="-183.605"/>
      <point x="61.0693" y="-183.605" type="curve" smooth="yes"/>
      <point x="38" y="-183.605"/>
      <point x="-6.59961" y="-196.809"/>
      <point x="-76.3809" y="-221.285" type="curve"/>
    </contour>
  </outline>
</glyph>
<glyph name="braceleft" format="2">
  <advance width="248"/>
  <unicode hex="007B"/>
  <outline>
    <contour>
      <point x="33.0655" y="-153.703" type="curve" smooth="yes"/>
      <point x="33.0655" y="-77.7172"/>
      <point x="129.344" y="97.8636"/>
      <point x="129.344" y="143.387" type="curve" smooth="yes"/>
      <point x="129.344" y="161.163"/>
      <point x="119.373" y="171.067"/>
      <point x="94.4307" y="175.777" type="curve"/>
      <point x="102.847" y="199.135" type="line"/>
      <point x="162.298" y="209.019"/>
      <point x="172.306" y="241.765"/>
      <point x="196.865" y="322.12" type="curve" smooth="yes"/>
      <point x="266.24" y="549.107"/>
      <point x="292.692" y="588.718"/>
      <point x="433.039" y="588.718" type="curve"/>
      <point x="422.813" y="560.312" type="line"/>
      <point x="355.167" y="549.041"/>
      <point x="340.732" y="504.617"/>
      <point x="301.052" y="382.502" type="curve" smooth="yes"/>
      <point x="256.592" y="245.681"/>
      <point x="245.006" y="211.275"/>
      <point x="191.532" y="187.456" type="curve"/>
      <point x="196.326" y="184.306"/>
      <point x="212.168" y="173.893"/>
      <point x="212.168" y="150.682" type="curve" smooth="yes"/>
      <point x="212.168" y="92.3235"/>
      <point x="116.604" y="-87.5133"/>
      <point x="116.604" y="-146.018" type="curve" smooth="yes"/>
      <point x="116.604" y="-168.111"/>
      <point x="127.598" y="-180.345"/>
      <point x="154.293" y="-185.399" type="curve"/>
      <point x="144.066" y="-213.806" type="line"/>
      <point x="73.4944" y="-213.806"/>
      <point x="33.0655" y="-204.343"/>
    </contour>
  </outline>
</glyph>
<glyph name="bar" format="2">
  <advance width="213"/>
  <unicode hex="007C"/>
  <outline>
    <contour>
      <point x="291.092" y="588.718" type="line"/>
      <point x="345.76" y="588.718" type="line"/>
      <point x="57.5078" y="-211.798" type="line"/>
      <point x="2.83984" y="-211.798" type="line"/>
    </contour>
  </outline>
</glyph>
<glyph name="braceright" format="2">
  <advance width="248"/>
  <unicode hex="007D"/>
  <outline>
    <contour>
      <point x="170.988" y="224.232" type="curve" smooth="yes"/>
      <point x="170.988" y="282.599"/>
      <point x="266.553" y="462.434"/>
      <point x="266.553" y="520.932" type="curve" smooth="yes"/>
      <point x="266.553" y="543.024"/>
      <point x="255.558" y="555.257"/>
      <point x="228.86" y="560.312" type="curve"/>
      <point x="239.087" y="588.718" type="line"/>
      <point x="309.653" y="588.718"/>
      <point x="350.087" y="579.256"/>
      <point x="350.087" y="528.614" type="curve" smooth="yes"/>
      <point x="350.087" y="452.628"/>
      <point x="253.809" y="277.049"/>
      <point x="253.809" y="231.525" type="curve" smooth="yes"/>
      <point x="253.809" y="213.749"/>
      <point x="263.781" y="203.845"/>
      <point x="288.723" y="199.135" type="curve"/>
      <point x="280.307" y="175.777" type="line"/>
      <point x="220.855" y="165.893"/>
      <point x="210.847" y="133.147"/>
      <point x="186.289" y="52.7944" type="curve" smooth="yes"/>
      <point x="116.913" y="-174.196"/>
      <point x="90.4609" y="-213.806"/>
      <point x="-49.8857" y="-213.806" type="curve"/>
      <point x="-39.6602" y="-185.399" type="line"/>
      <point x="27.9861" y="-174.13"/>
      <point x="42.4142" y="-129.727"/>
      <point x="82.1006" y="-7.58984" type="curve" smooth="yes"/>
      <point x="126.561" y="129.228"/>
      <point x="138.156" y="163.641"/>
      <point x="191.621" y="187.456" type="curve"/>
      <point x="186.832" y="190.604"/>
      <point x="170.988" y="201.017"/>
    </contour>
  </outline>
</glyph>
<glyph name="asciitilde" format="2">
  <advance width="685"/>
  <unicode hex="007E"/>
  <outline>
    <contour>
      <point x="358.303" y="361.597" type="curve" smooth="yes"/>
      <point x="465.377" y="361.597"/>
      <point x="502.029" y="281.734"/>
      <point x="599.574" y="281.734" type="curve" smooth="yes"/>
      <point x="642.56" y="281.734"/>
      <point x="692.822" y="305.15"/>
      <point x="739.253" y="347.245" type="curve"/>
      <point x="758.09" y="335.996" type="line"/>
      <point x="701.88" y="267.483"/>
      <point x="615.708" y="211.026"/>
      <point x="532.467" y="211.026" type="curve" smooth="yes"/>
      <point x="474.289" y="211.026"/>
      <point x="435.854" y="233.671"/>
      <point x="408.062" y="251.169" type="curve" smooth="yes"/>
      <point x="369.521" y="275.439"/>
      <point x="327.2" y="290.893"/>
      <point x="291.204" y="290.893" type="curve" smooth="yes"/>
      <point x="248.219" y="290.893"/>
      <point x="197.956" y="267.478"/>
      <point x="151.523" y="225.378" type="curve"/>
      <point x="132.688" y="236.627" type="line"/>
      <point x="188.895" y="305.137"/>
      <point x="275.061" y="361.597"/>
    </contour>
  </outline>
</glyph>
<glyph name="endash" format="2">
  <advance width="393"/>
  <unicode hex="2013"/>
  <outline>
    <contour>
      <point x="74.9434" y="208.122" type="line"/>
      <point x="467.793" y="208.122" type="line"/>
      <point x="445.605" y="146.507" type="line"/>
      <point x="52.7559" y="146.507" type="line"/>
    </contour>
  </outline>
</glyph>
<glyph name="emdash" format="2">
  <advance width="780"/>
  <unicode hex="2014"/>
  <outline>
    <contour>
      <point x="74.9502" y="208.122" type="line"/>
      <point x="855.758" y="208.122" type="line"/>
      <point x="833.57" y="146.507" type="line"/>
      <point x="52.7627" y="146.507" type="line"/>
    </contour>
  </outline>
</glyph>
<glyph name="quoteleft" format="2">
  <advance width="173"/>
  <unicode hex="2018"/>
  <outline>
    <contour>
      <point x="324.16" y="505.598" type="curve" smooth="yes"/>
      <point x="324.16" y="470.492"/>
      <point x="285.019" y="438.241"/>
      <point x="249.206" y="438.241" type="curve" smooth="yes"/>
      <point x="213.963" y="438.241"/>
      <point x="196.768" y="454.543"/>
      <point x="196.768" y="483.545" type="curve" smooth="yes"/>
      <point x="196.768" y="534.177"/>
      <point x="242.127" y="619.492"/>
      <point x="367.806" y="673.296" type="curve"/>
      <point x="380.282" y="647.9" type="line"/>
      <point x="305.587" y="611.476"/>
      <point x="273.903" y="572.095"/>
      <point x="273.903" y="552.85" type="curve" smooth="yes"/>
      <point x="273.903" y="546.605"/>
      <point x="277.239" y="542.48"/>
      <point x="283.523" y="541.265" type="curve" smooth="yes"/>
      <point x="311.323" y="535.889"/>
      <point x="324.16" y="523.785"/>
    </contour>
  </outline>
</glyph>
<glyph name="quoteright" format="2">
  <advance width="173"/>
  <unicode hex="2019"/>
  <outline>
    <contour>
      <point x="249.146" y="605.937" type="curve" smooth="yes"/>
      <point x="249.146" y="641.038"/>
      <point x="288.282" y="673.293"/>
      <point x="324.1" y="673.293" type="curve" smooth="yes"/>
      <point x="359.336" y="673.293"/>
      <point x="376.53" y="656.99"/>
      <point x="376.53" y="627.99" type="curve" smooth="yes"/>
      <point x="376.53" y="577.36"/>
      <point x="331.173" y="492.04"/>
      <point x="205.494" y="438.243" type="curve"/>
      <point x="193.018" y="463.64" type="line"/>
      <point x="267.721" y="500.062"/>
      <point x="299.397" y="539.445"/>
      <point x="299.397" y="558.69" type="curve" smooth="yes"/>
      <point x="299.397" y="564.933"/>
      <point x="296.063" y="569.057"/>
      <point x="289.783" y="570.272" type="curve" smooth="yes"/>
      <point x="261.984" y="575.65"/>
      <point x="249.146" y="587.751"/>
    </contour>
  </outline>
</glyph>
<glyph name="quotedblleft" format="2">
  <advance width="315"/>
  <unicode hex="201C"/>
  <outline>
    <contour>
      <point x="324.151" y="505.613" type="curve" smooth="yes"/>
      <point x="324.151" y="470.499"/>
      <point x="285.016" y="438.241"/>
      <point x="249.195" y="438.241" type="curve" smooth="yes"/>
      <point x="213.959" y="438.241"/>
      <point x="196.765" y="454.542"/>
      <point x="196.765" y="483.543" type="curve" smooth="yes"/>
      <point x="196.765" y="534.187"/>
      <point x="242.128" y="619.496"/>
      <point x="367.801" y="673.296" type="curve"/>
      <point x="380.277" y="647.9" type="line"/>
      <point x="305.568" y="611.474"/>
      <point x="273.895" y="572.09"/>
      <point x="273.895" y="552.846" type="curve" smooth="yes"/>
      <point x="273.895" y="546.603"/>
      <point x="277.229" y="542.48"/>
      <point x="283.507" y="541.265" type="curve" smooth="yes"/>
      <point x="311.323" y="535.89"/>
      <point x="324.151" y="523.792"/>
    </contour>
    <contour>
      <point x="466.739" y="505.612" type="curve" smooth="yes"/>
      <point x="466.739" y="470.496"/>
      <point x="427.602" y="438.241"/>
      <point x="391.783" y="438.241" type="curve" smooth="yes"/>
      <point x="356.547" y="438.241"/>
      <point x="339.353" y="454.543"/>
      <point x="339.353" y="483.543" type="curve" smooth="yes"/>
      <point x="339.353" y="534.187"/>
      <point x="384.716" y="619.496"/>
      <point x="510.389" y="673.296" type="curve"/>
      <point x="522.866" y="647.9" type="line"/>
      <point x="448.157" y="611.474"/>
      <point x="416.484" y="572.09"/>
      <point x="416.484" y="552.846" type="curve" smooth="yes"/>
      <point x="416.484" y="546.603"/>
      <point x="419.817" y="542.48"/>
      <point x="426.096" y="541.265" type="curve" smooth="yes"/>
      <point x="453.912" y="535.89"/>
      <point x="466.739" y="523.791"/>
    </contour>
  </outline>
</glyph>
<glyph name="quotedblright" format="2">
  <advance width="316"/>
  <unicode hex="201D"/>
  <outline>
    <contour>
      <point x="391.726" y="605.928" type="curve" smooth="yes"/>
      <point x="391.726" y="641.044"/>
      <point x="430.863" y="673.3"/>
      <point x="466.682" y="673.3" type="curve" smooth="yes"/>
      <point x="501.918" y="673.3"/>
      <point x="519.112" y="656.998"/>
      <point x="519.112" y="627.997" type="curve" smooth="yes"/>
      <point x="519.112" y="577.354"/>
      <point x="473.749" y="492.045"/>
      <point x="348.076" y="438.245" type="curve"/>
      <point x="335.6" y="463.64" type="line"/>
      <point x="410.306" y="500.064"/>
      <point x="441.977" y="539.449"/>
      <point x="441.977" y="558.694" type="curve" smooth="yes"/>
      <point x="441.977" y="564.938"/>
      <point x="438.642" y="569.062"/>
      <point x="432.362" y="570.276" type="curve" smooth="yes"/>
      <point x="404.552" y="575.651"/>
      <point x="391.726" y="587.749"/>
    </contour>
    <contour>
      <point x="249.138" y="605.928" type="curve" smooth="yes"/>
      <point x="249.138" y="641.044"/>
      <point x="288.274" y="673.3"/>
      <point x="324.093" y="673.3" type="curve" smooth="yes"/>
      <point x="359.33" y="673.3"/>
      <point x="376.524" y="656.998"/>
      <point x="376.524" y="627.997" type="curve" smooth="yes"/>
      <point x="376.524" y="577.353"/>
      <point x="331.16" y="492.045"/>
      <point x="205.488" y="438.245" type="curve"/>
      <point x="193.011" y="463.64" type="line"/>
      <point x="267.719" y="500.065"/>
      <point x="299.389" y="539.45"/>
      <point x="299.389" y="558.694" type="curve" smooth="yes"/>
      <point x="299.389" y="564.938"/>
      <point x="296.055" y="569.062"/>
      <point x="289.774" y="570.276" type="curve" smooth="yes"/>
      <point x="261.964" y="575.651"/>
      <point x="249.138" y="587.749"/>
    </contour>
  </outline>
</glyph>
<glyph name="ellipsis" format="2">
  <advance width="602"/>
  <unicode hex="2026"/>
  <outline>
    <contour>
      <point x="590.798" y="60.7985" type="curve" smooth="yes"/>
      <point x="590.798" y="22.103"/>
      <point x="547.186" y="-19.1775"/>
      <point x="505.763" y="-19.1787" type="curve" smooth="yes"/>
      <point x="479.886" y="-19.1749"/>
      <point x="463.768" y="-2.68506"/>
      <point x="463.768" y="20.351" type="curve" smooth="yes"/>
      <point x="463.768" y="59.0436"/>
      <point x="507.374" y="100.321"/>
      <point x="548.796" y="100.327" type="curve" smooth="yes"/>
      <point x="574.677" y="100.326"/>
      <point x="590.798" y="83.8364"/>
    </contour>
    <contour>
      <point x="379.255" y="60.7979" type="curve" smooth="yes"/>
      <point x="379.255" y="22.1063"/>
      <point x="335.65" y="-19.1726"/>
      <point x="294.228" y="-19.1787" type="curve" smooth="yes"/>
      <point x="268.347" y="-19.1779"/>
      <point x="252.225" y="-2.68683"/>
      <point x="252.225" y="20.3514" type="curve" smooth="yes"/>
      <point x="252.225" y="59.0465"/>
      <point x="295.837" y="100.326"/>
      <point x="337.26" y="100.327" type="curve" smooth="yes"/>
      <point x="363.136" y="100.323"/>
      <point x="379.255" y="83.8337"/>
    </contour>
    <contour>
      <point x="167.72" y="60.7975" type="curve" smooth="yes"/>
      <point x="167.72" y="22.1003"/>
      <point x="124.105" y="-19.1775"/>
      <point x="82.6846" y="-19.1787" type="curve" smooth="yes"/>
      <point x="56.8036" y="-19.1779"/>
      <point x="40.6817" y="-2.68683"/>
      <point x="40.6817" y="20.3514" type="curve" smooth="yes"/>
      <point x="40.6817" y="59.0465"/>
      <point x="84.2937" y="100.326"/>
      <point x="125.717" y="100.327" type="curve" smooth="yes"/>
      <point x="151.598" y="100.326"/>
      <point x="167.72" y="83.8359"/>
    </contour>
  </outline>
</glyph>
<glyph name="a.init" format="2">
  <advance width="539"/>
  <unicode hex="E000"/>
  <outline>
    <contour>
      <point x="676.271" y="602.716" type="curve" smooth="yes"/>
      <point x="682.641" y="602.716"/>
      <point x="685.519" y="599.202"/>
      <point x="685.519" y="592.571" type="curve" smooth="yes"/>
      <point x="685.519" y="585.997"/>
      <point x="682.691" y="576.361"/>
      <point x="677.636" y="564.049" type="curve" smooth="yes"/>
      <point x="611.327" y="402.554" type="line"/>
      <point x="670.769" y="402.554" type="line" smooth="yes"/>
      <point x="675.746" y="402.554"/>
      <point x="678.517" y="392.979"/>
      <point x="678.517" y="383.721" type="curve" smooth="yes"/>
      <point x="678.517" y="375.053"/>
      <point x="676.088" y="366.662"/>
      <point x="670.769" y="366.662" type="curve" smooth="yes"/>
      <point x="630.19" y="366.662"/>
      <point x="588.62" y="346.795"/>
      <point x="561.035" y="280.067" type="curve" smooth="yes"/>
      <point x="474.29" y="68.7979" type="line" smooth="yes"/>
      <point x="467.186" y="51.4944"/>
      <point x="464.5" y="41.5038"/>
      <point x="464.5" y="36.1026" type="curve" smooth="yes"/>
      <point x="464.5" y="31.9995"/>
      <point x="466.05" y="30.5449"/>
      <point x="468.391" y="30.5449" type="curve" smooth="yes"/>
      <point x="479.682" y="30.5449"/>
      <point x="498.862" y="39.0332"/>
      <point x="534.583" y="61.7451" type="curve"/>
      <point x="534.583" y="33.5254" type="line"/>
      <point x="474.166" y="-6.46777"/>
      <point x="450.485" y="-13.6191"/>
      <point x="421.082" y="-13.6191" type="curve" smooth="yes"/>
      <point x="393.847" y="-13.6191"/>
      <point x="381.219" y="2.56741"/>
      <point x="381.219" y="23.9566" type="curve" smooth="yes"/>
      <point x="381.219" y="29.4565"/>
      <point x="382.054" y="35.3004"/>
      <point x="383.69" y="41.3015" type="curve"/>
      <point x="342.808" y="20.1983"/>
      <point x="296.788" y="-2.84551"/>
      <point x="285.386" y="-7.85645" type="curve" smooth="yes"/>
      <point x="270.388" y="-11.6113"/>
      <point x="253.627" y="-13.6191"/>
      <point x="223.171" y="-13.6191" type="curve" smooth="yes"/>
      <point x="167.259" y="-13.6191"/>
      <point x="85.8672" y="14.5234"/>
      <point x="85.8672" y="125.595" type="curve" smooth="yes"/>
      <point x="85.8672" y="244.958"/>
      <point x="162.467" y="336.452"/>
      <point x="258.016" y="374.92" type="curve" smooth="yes"/>
      <point x="352.645" y="413.016"/>
      <point x="409.98" y="416.552"/>
      <point x="481.333" y="416.552" type="curve" smooth="yes"/>
      <point x="498.74" y="416.552"/>
      <point x="516.072" y="413.404"/>
      <point x="534.104" y="408.35" type="curve"/>
      <point x="582.255" y="525.306" type="line" smooth="yes"/>
      <point x="585.057" y="532.14"/>
      <point x="586.804" y="538.107"/>
      <point x="586.804" y="543.059" type="curve" smooth="yes"/>
      <point x="586.804" y="553.547"/>
      <point x="578.969" y="559.486"/>
      <point x="556.724" y="559.486" type="curve" smooth="yes"/>
      <point x="545.614" y="559.486"/>
      <point x="530.909" y="558.005"/>
      <point x="511.791" y="554.868" type="curve"/>
      <point x="511.791" y="573.127" type="line"/>
      <point x="548.286" y="585.536"/>
      <point x="641.551" y="602.716"/>
    </contour>
    <contour>
      <point x="508.575" y="346.342" type="line"/>
      <point x="477.335" y="368.328"/>
      <point x="433.304" y="376.795"/>
      <point x="383.303" y="376.795" type="curve" smooth="yes"/>
      <point x="296.646" y="376.795"/>
      <point x="167.128" y="300.462"/>
      <point x="167.128" y="152.898" type="curve" smooth="yes"/>
      <point x="167.128" y="61.6865"/>
      <point x="234.126" y="34.9434"/>
      <point x="266.427" y="34.9434" type="curve" smooth="yes"/>
      <point x="319.415" y="34.9434"/>
      <point x="365.816" y="58.9925"/>
      <point x="406.134" y="97.5202" type="curve"/>
    </contour>
  </outline>
</glyph>
<glyph name="a.fina" format="2">
  <advance width="485"/>
  <unicode hex="E002"/>
  <outline>
    <contour>
      <point x="132.031" y="402.554" type="curve" smooth="yes"/>
      <point x="243.01" y="402.554" type="line" smooth="yes"/>
      <point x="261.155" y="402.554"/>
      <point x="269.227" y="398.669"/>
      <point x="269.227" y="385.102" type="curve" smooth="yes"/>
      <point x="269.227" y="382.626"/>
      <point x="268.958" y="379.826"/>
      <point x="268.432" y="376.669" type="curve"/>
      <point x="298.203" y="389"/>
      <point x="336.317" y="403.332"/>
      <point x="361.949" y="412.294" type="curve" smooth="yes"/>
      <point x="379.018" y="414.753"/>
      <point x="402.677" y="416.556"/>
      <point x="424.235" y="416.556" type="curve" smooth="yes"/>
      <point x="493.985" y="416.556"/>
      <point x="553.098" y="382.364"/>
      <point x="553.098" y="293.589" type="curve" smooth="yes"/>
      <point x="553.098" y="182.828"/>
      <point x="435.79" y="45.5743"/>
      <point x="253.795" y="4.04492" type="curve" smooth="yes"/>
      <point x="169.602" y="-15.1668"/>
      <point x="169.602" y="-15.1668"/>
      <point x="129.032" y="-18.1954" type="curve"/>
      <point x="62.4863" y="-203" type="line"/>
      <point x="38.3252" y="-212.686"/>
      <point x="0.520508" y="-222.968"/>
      <point x="-27.7773" y="-228" type="curve"/>
      <point x="159.871" y="293.121" type="line" smooth="yes"/>
      <point x="172.053" y="326.953"/>
      <point x="177.882" y="345.222"/>
      <point x="177.882" y="355.087" type="curve" smooth="yes"/>
      <point x="177.882" y="366.438"/>
      <point x="170.165" y="366.662"/>
      <point x="155.529" y="366.662" type="curve" smooth="yes"/>
      <point x="132.031" y="366.662" type="line" smooth="yes"/>
      <point x="126.843" y="366.662"/>
      <point x="124.233" y="375.673"/>
      <point x="124.233" y="384.665" type="curve" smooth="yes"/>
      <point x="124.233" y="393.619"/>
      <point x="126.821" y="402.554"/>
    </contour>
    <contour>
      <point x="233.214" y="271.13" type="curve" smooth="yes"/>
      <point x="148.855" y="36.8543" type="line"/>
      <point x="159.645" y="36.1241"/>
      <point x="170.138" y="35.7711"/>
      <point x="180.337" y="35.7711" type="curve" smooth="yes"/>
      <point x="385.497" y="35.7711"/>
      <point x="471.836" y="178.607"/>
      <point x="471.836" y="267.43" type="curve" smooth="yes"/>
      <point x="471.836" y="328.753"/>
      <point x="440.573" y="373.065"/>
      <point x="366.099" y="373.065" type="curve" smooth="yes"/>
      <point x="308.978" y="373.065"/>
      <point x="259.94" y="345.209"/>
    </contour>
  </outline>
</glyph>
<glyph name="b.init" format="2">
  <advance width="558"/>
  <unicode hex="E003"/>
  <outline>
    <contour>
      <point x="411.361" y="191.176" type="curve" smooth="yes"/>
      <point x="411.361" y="161.779"/>
      <point x="387.531" y="137.949"/>
      <point x="358.136" y="137.949" type="curve" smooth="yes"/>
      <point x="328.738" y="137.949"/>
      <point x="304.908" y="161.779"/>
      <point x="304.908" y="191.176" type="curve" smooth="yes"/>
      <point x="304.908" y="220.572"/>
      <point x="328.738" y="244.402"/>
      <point x="358.136" y="244.402" type="curve" smooth="yes"/>
      <point x="387.531" y="244.402"/>
      <point x="411.361" y="220.572"/>
    </contour>
    <contour>
      <point x="423.742" y="-203.002" type="line"/>
      <point x="399.581" y="-212.688"/>
      <point x="361.776" y="-222.971"/>
      <point x="333.478" y="-228.002" type="curve"/>
      <point x="362.999" y="-157.341" type="line" smooth="yes"/>
      <point x="372.309" y="-135.058"/>
      <point x="376.566" y="-116.501"/>
      <point x="376.566" y="-100.954" type="curve" smooth="yes"/>
      <point x="376.566" y="-37.6093"/>
      <point x="305.891" y="-24.2241"/>
      <point x="218.291" y="-12.3135" type="curve" smooth="yes"/>
      <point x="137.244" y="-1.29395"/>
      <point x="89.7275" y="50.3535"/>
      <point x="89.7275" y="136.007" type="curve" smooth="yes"/>
      <point x="89.7275" y="244.553"/>
      <point x="147.751" y="317.095"/>
      <point x="205.488" y="355.055" type="curve"/>
      <point x="260.29" y="383.7"/>
      <point x="346.322" y="426.897"/>
      <point x="447.436" y="426.897" type="curve" smooth="yes"/>
      <point x="488.188" y="426.897"/>
      <point x="533.871" y="419.707"/>
      <point x="570.47" y="402.552" type="curve"/>
      <point x="690.005" y="402.552" type="line" smooth="yes"/>
      <point x="695.495" y="402.552"/>
      <point x="698.232" y="393.595"/>
      <point x="698.232" y="384.63" type="curve" smooth="yes"/>
      <point x="698.232" y="375.649"/>
      <point x="695.485" y="366.66"/>
      <point x="690.005" y="366.66" type="curve" smooth="yes"/>
      <point x="601.516" y="366.66" type="line"/>
      <point x="581.422" y="351.729"/>
      <point x="557.298" y="341.234"/>
      <point x="530.815" y="333.331" type="curve"/>
      <point x="499.573" y="365.287"/>
      <point x="445.312" y="379.753"/>
      <point x="389.678" y="379.753" type="curve" smooth="yes"/>
      <point x="293.827" y="379.753"/>
      <point x="178.493" y="308.397"/>
      <point x="178.493" y="169.946" type="curve" smooth="yes"/>
      <point x="178.493" y="136.714"/>
      <point x="178.493" y="42.7128"/>
      <point x="306.997" y="26.1248" type="curve" smooth="yes"/>
      <point x="366.701" y="18.4178"/>
      <point x="461.03" y="6.24129"/>
      <point x="461.03" y="-80.618" type="curve" smooth="yes"/>
      <point x="461.03" y="-101.588"/>
      <point x="455.532" y="-126.911"/>
      <point x="442.721" y="-157.575" type="curve" smooth="yes"/>
    </contour>
  </outline>
</glyph>
<glyph name="b.medi" format="2">
  <advance width="475"/>
  <unicode hex="E004"/>
  <outline>
    <contour>
      <point x="517.627" y="572.166" type="curve" smooth="yes"/>
      <point x="517.627" y="542.77"/>
      <point x="493.796" y="518.939"/>
      <point x="464.4" y="518.939" type="curve" smooth="yes"/>
      <point x="435.003" y="518.939"/>
      <point x="411.173" y="542.77"/>
      <point x="411.173" y="572.166" type="curve" smooth="yes"/>
      <point x="411.173" y="601.562"/>
      <point x="435.003" y="625.393"/>
      <point x="464.4" y="625.393" type="curve" smooth="yes"/>
      <point x="493.796" y="625.393"/>
      <point x="517.627" y="601.562"/>
    </contour>
    <contour>
      <point x="440.256" y="267.592" type="curve" smooth="yes"/>
      <point x="440.256" y="284.403"/>
      <point x="438.697" y="337.903"/>
      <point x="420.54" y="386.299" type="curve"/>
      <point x="429.284" y="405.246" type="line"/>
      <point x="457.711" y="402.943"/>
      <point x="469.451" y="402.551"/>
      <point x="508.119" y="402.551" type="curve" smooth="yes"/>
      <point x="606.488" y="402.551" type="line" smooth="yes"/>
      <point x="611.838" y="402.551"/>
      <point x="614.926" y="392.788"/>
      <point x="614.926" y="383.446" type="curve" smooth="yes"/>
      <point x="614.926" y="374.876"/>
      <point x="612.327" y="366.659"/>
      <point x="606.488" y="366.659" type="curve" smooth="yes"/>
      <point x="514.507" y="366.659" type="line"/>
      <point x="517.435" y="344.909"/>
      <point x="518.848" y="323.773"/>
      <point x="518.848" y="303.342" type="curve" smooth="yes"/>
      <point x="518.848" y="115.234"/>
      <point x="399.058" y="-13.2393"/>
      <point x="238.884" y="-13.2393" type="curve" smooth="yes"/>
      <point x="130.39" y="-13.2393"/>
      <point x="94.9014" y="55.9434"/>
      <point x="94.9014" y="136.388" type="curve" smooth="yes"/>
      <point x="94.9014" y="237.207"/>
      <point x="172.7" y="330.035"/>
      <point x="245.917" y="366.659" type="curve"/>
      <point x="132.029" y="366.66" type="line" smooth="yes"/>
      <point x="126.975" y="366.66"/>
      <point x="123.944" y="376.611"/>
      <point x="123.944" y="386.033" type="curve" smooth="yes"/>
      <point x="123.944" y="394.507"/>
      <point x="126.395" y="402.553"/>
      <point x="132.029" y="402.553" type="curve" smooth="yes"/>
      <point x="251.722" y="402.551" type="line" smooth="yes"/>
      <point x="284.522" y="402.551"/>
      <point x="310.058" y="402.553"/>
      <point x="342.541" y="409.542" type="curve"/>
      <point x="330.713" y="366.659" type="line"/>
      <point x="222.967" y="366.659"/>
      <point x="173.19" y="247.329"/>
      <point x="173.19" y="165.171" type="curve" smooth="yes"/>
      <point x="173.19" y="73.1631"/>
      <point x="229.037" y="32.6162"/>
      <point x="284.694" y="32.6162" type="curve" smooth="yes"/>
      <point x="374.782" y="32.6162"/>
      <point x="440.256" y="140.228"/>
    </contour>
  </outline>
</glyph>
<glyph name="b.fina" format="2">
  <advance width="520"/>
  <unicode hex="E005"/>
  <outline>
    <contour>
      <point x="420.341" y="196.402" type="curve" smooth="yes"/>
      <point x="420.341" y="167.006"/>
      <point x="396.511" y="143.176"/>
      <point x="367.115" y="143.176" type="curve" smooth="yes"/>
      <point x="337.719" y="143.176"/>
      <point x="313.888" y="167.006"/>
      <point x="313.887" y="196.403" type="curve" smooth="yes"/>
      <point x="313.887" y="225.799"/>
      <point x="337.718" y="249.629"/>
      <point x="367.115" y="249.629" type="curve" smooth="yes"/>
      <point x="396.511" y="249.629"/>
      <point x="420.341" y="225.799"/>
    </contour>
    <contour>
      <point x="132.031" y="402.551" type="curve" smooth="yes"/>
      <point x="437.177" y="402.796" type="line" smooth="yes"/>
      <point x="467.104" y="402.819"/>
      <point x="529.261" y="405.714"/>
      <point x="546.292" y="407.417" type="curve"/>
      <point x="528.773" y="354.007" type="line"/>
      <point x="499.82" y="362.702"/>
      <point x="434.874" y="366.659"/>
      <point x="395.151" y="366.659" type="curve" smooth="yes"/>
      <point x="277.877" y="366.659"/>
      <point x="192.979" y="307.155"/>
      <point x="192.979" y="197.935" type="curve" smooth="yes"/>
      <point x="192.979" y="116.539"/>
      <point x="228.845" y="16.4316"/>
      <point x="382.975" y="16.4316" type="curve" smooth="yes"/>
      <point x="492.28" y="16.4316"/>
      <point x="516.494" y="8.44336"/>
      <point x="516.494" y="-18.8066" type="curve" smooth="yes"/>
      <point x="516.494" y="-32.1885"/>
      <point x="501.409" y="-51.167"/>
      <point x="482.432" y="-64.0625" type="curve" smooth="yes"/>
      <point x="473.689" y="-70.0028"/>
      <point x="473.689" y="-70.0028"/>
      <point x="398.247" y="-100.072" type="curve"/>
      <point x="398.247" y="-80.8506" type="line"/>
      <point x="398.247" y="-80.8506"/>
      <point x="434.257" y="-65.5225"/>
      <point x="434.257" y="-45.084" type="curve" smooth="yes"/>
      <point x="434.257" y="-28.0527"/>
      <point x="397.76" y="-18.4727"/>
      <point x="302.642" y="-18.4727" type="curve" smooth="yes"/>
      <point x="153.509" y="-18.4727"/>
      <point x="110.062" y="83.2217"/>
      <point x="110.062" y="169.699" type="curve" smooth="yes"/>
      <point x="110.062" y="263.477"/>
      <point x="162.122" y="323.549"/>
      <point x="227.617" y="347.875" type="curve" smooth="yes"/>
      <point x="278.189" y="366.659" type="line"/>
      <point x="132.031" y="366.659" type="line" smooth="yes"/>
      <point x="126.372" y="366.659"/>
      <point x="123.856" y="374.866"/>
      <point x="123.856" y="383.431" type="curve" smooth="yes"/>
      <point x="123.856" y="392.777"/>
      <point x="126.852" y="402.551"/>
    </contour>
  </outline>
</glyph>
<glyph name="c.init" format="2">
  <advance width="498"/>
  <unicode hex="E006"/>
  <outline>
    <contour>
      <point x="128.483" y="380.412" type="line"/>
      <point x="179.335" y="397.443"/>
      <point x="242.507" y="416.552"/>
      <point x="250.448" y="416.552" type="curve" smooth="yes"/>
      <point x="282.696" y="416.552"/>
      <point x="338.662" y="389.101"/>
      <point x="338.662" y="308.115" type="curve" smooth="yes"/>
      <point x="338.662" y="186.22"/>
      <point x="228.443" y="82.2295"/>
      <point x="109.83" y="30.5264" type="curve"/>
      <point x="176.202" y="22.7828"/>
      <point x="265.115" y="-1.22981"/>
      <point x="326.792" y="-99.4601" type="curve"/>
      <point x="494.637" y="366.661" type="line"/>
      <point x="462.827" y="414.337" type="line"/>
      <point x="494.035" y="424.572"/>
      <point x="532.146" y="435.383"/>
      <point x="564.223" y="443.145" type="curve"/>
      <point x="580.238" y="402.552" type="line"/>
      <point x="630.222" y="402.553" type="line" smooth="yes"/>
      <point x="636.006" y="402.553"/>
      <point x="639.212" y="393.001"/>
      <point x="639.212" y="383.753" type="curve" smooth="yes"/>
      <point x="639.212" y="375.074"/>
      <point x="636.388" y="366.661"/>
      <point x="630.222" y="366.661" type="curve" smooth="yes"/>
      <point x="575.9" y="366.661" type="line"/>
      <point x="370.771" y="-203" type="line"/>
      <point x="346.61" y="-212.687"/>
      <point x="308.807" y="-222.969"/>
      <point x="280.507" y="-228.001" type="curve"/>
      <point x="250.937" y="-71.0098"/>
      <point x="123.438" y="-9.38086"/>
      <point x="11.415" y="-8.62402" type="curve"/>
      <point x="11.415" y="10.5371" type="line"/>
      <point x="147.517" y="75.166"/>
      <point x="255.561" y="154.812"/>
      <point x="255.561" y="280.442" type="curve" smooth="yes"/>
      <point x="255.561" y="345.508"/>
      <point x="220.751" y="371.04"/>
      <point x="183.087" y="371.04" type="curve" smooth="yes"/>
      <point x="167.812" y="371.04"/>
      <point x="138.702" y="363.012"/>
      <point x="128.483" y="360.092" type="curve"/>
    </contour>
  </outline>
</glyph>
<glyph name="c.fina" format="2">
  <advance width="756"/>
  <unicode hex="E008"/>
  <outline>
    <contour>
      <point x="299.495" y="-81.5935" type="curve"/>
      <point x="424.608" y="152.521"/>
      <point x="717.809" y="292.359"/>
      <point x="840.154" y="416.547" type="curve"/>
      <point x="895.071" y="416.547" type="line"/>
      <point x="838.6" y="361.235"/>
      <point x="730.384" y="290.756"/>
      <point x="636.566" y="218.449" type="curve" smooth="yes"/>
      <point x="481.965" y="99.3037"/>
      <point x="365.628" y="-4.5293"/>
      <point x="329.977" y="-203.001" type="curve"/>
      <point x="305.815" y="-212.688"/>
      <point x="268.012" y="-222.97"/>
      <point x="239.713" y="-228.002" type="curve"/>
      <point x="237.165" y="-78.3447"/>
      <point x="123.438" y="-9.38086"/>
      <point x="11.415" y="-8.62402" type="curve"/>
      <point x="11.415" y="10.5361" type="line"/>
      <point x="147.517" y="75.165"/>
      <point x="255.561" y="154.812"/>
      <point x="255.561" y="280.442" type="curve" smooth="yes"/>
      <point x="255.561" y="313.314"/>
      <point x="245.037" y="345.941"/>
      <point x="230.812" y="366.661" type="curve"/>
      <point x="132.028" y="366.661" type="line" smooth="yes"/>
      <point x="126.42" y="366.661"/>
      <point x="123.961" y="374.766"/>
      <point x="123.961" y="383.273" type="curve" smooth="yes"/>
      <point x="123.961" y="392.668"/>
      <point x="126.96" y="402.553"/>
      <point x="132.028" y="402.553" type="curve" smooth="yes"/>
      <point x="309.712" y="402.553" type="line"/>
      <point x="326.82" y="380.727"/>
      <point x="338.662" y="344.609"/>
      <point x="338.662" y="308.114" type="curve" smooth="yes"/>
      <point x="338.662" y="186.22"/>
      <point x="228.443" y="82.2285"/>
      <point x="109.83" y="30.5264" type="curve"/>
      <point x="187.194" y="21.5006"/>
      <point x="256.994" y="1.43533"/>
    </contour>
  </outline>
</glyph>
<glyph name="d.init" format="2">
  <advance width="202"/>
  <unicode hex="E009"/>
  <outline>
    <contour>
      <point x="333.576" y="603.06" type="curve" smooth="yes"/>
      <point x="350.977" y="603.06"/>
      <point x="356.866" y="598.139"/>
      <point x="356.866" y="588.84" type="curve" smooth="yes"/>
      <point x="356.866" y="582.533"/>
      <point x="354.157" y="574.213"/>
      <point x="350.495" y="564.049" type="curve" smooth="yes"/>
      <point x="292.309" y="402.555" type="line"/>
      <point x="333.576" y="402.555" type="line" smooth="yes"/>
      <point x="339.356" y="402.555"/>
      <point x="342.234" y="393.606"/>
      <point x="342.234" y="384.645" type="curve" smooth="yes"/>
      <point x="342.234" y="375.66"/>
      <point x="339.34" y="366.663"/>
      <point x="333.576" y="366.663" type="curve" smooth="yes"/>
      <point x="304.631" y="366.663"/>
      <point x="275.335" y="351.201"/>
      <point x="250.443" y="286.359" type="curve"/>
      <point x="74.127" y="-202.998" type="line"/>
      <point x="49.9658" y="-212.684"/>
      <point x="12.1621" y="-222.97"/>
      <point x="-16.1367" y="-228.002" type="curve"/>
      <point x="258.281" y="534.091" type="line" smooth="yes"/>
      <point x="261.075" y="541.849"/>
      <point x="262.654" y="548.122"/>
      <point x="262.654" y="553.027" type="curve" smooth="yes"/>
      <point x="262.654" y="562.651"/>
      <point x="256.578" y="567.014"/>
      <point x="241.677" y="567.014" type="curve" smooth="yes"/>
      <point x="235.047" y="567.014"/>
      <point x="226.671" y="566.151"/>
      <point x="216.306" y="564.502" type="curve"/>
      <point x="216.306" y="582.762" type="line"/>
      <point x="252.802" y="595.17"/>
      <point x="322.254" y="603.06"/>
    </contour>
  </outline>
</glyph>
<glyph name="d.fina" format="2">
  <advance width="202"/>
  <unicode hex="E00B"/>
  <outline>
    <contour>
      <point x="197.523" y="365.359" type="line"/>
      <point x="160.366" y="366.664"/>
      <point x="160.366" y="366.664"/>
      <point x="155.352" y="366.664" type="curve" smooth="yes"/>
      <point x="132.031" y="366.664" type="line" smooth="yes"/>
      <point x="127.322" y="366.664"/>
      <point x="124.39" y="376.795"/>
      <point x="124.39" y="386.292" type="curve" smooth="yes"/>
      <point x="124.39" y="394.671"/>
      <point x="126.672" y="402.556"/>
      <point x="132.031" y="402.556" type="curve" smooth="yes"/>
      <point x="174.038" y="402.556" type="line" smooth="yes"/>
      <point x="190.121" y="402.556"/>
      <point x="203.069" y="403.593"/>
      <point x="213.525" y="409.798" type="curve"/>
      <point x="258.281" y="534.093" type="line" smooth="yes"/>
      <point x="261.075" y="541.851"/>
      <point x="262.654" y="548.124"/>
      <point x="262.654" y="553.029" type="curve" smooth="yes"/>
      <point x="262.654" y="562.652"/>
      <point x="256.578" y="567.016"/>
      <point x="241.677" y="567.016" type="curve" smooth="yes"/>
      <point x="235.047" y="567.016"/>
      <point x="226.671" y="566.152"/>
      <point x="216.306" y="564.504" type="curve"/>
      <point x="216.306" y="582.764" type="line"/>
      <point x="252.802" y="595.172"/>
      <point x="322.254" y="603.062"/>
      <point x="333.576" y="603.062" type="curve" smooth="yes"/>
      <point x="350.977" y="603.062"/>
      <point x="356.866" y="598.141"/>
      <point x="356.866" y="588.842" type="curve" smooth="yes"/>
      <point x="356.866" y="582.535"/>
      <point x="354.157" y="574.215"/>
      <point x="350.495" y="564.051" type="curve" smooth="yes"/>
      <point x="74.127" y="-202.995" type="line"/>
      <point x="49.9658" y="-212.682"/>
      <point x="12.1621" y="-222.968"/>
      <point x="-16.1367" y="-228" type="curve"/>
    </contour>
  </outline>
</glyph>
<glyph name="e.init" format="2">
  <advance width="184"/>
  <unicode hex="E00C"/>
  <outline>
    <contour>
      <point x="221.337" y="256.007" type="curve"/>
      <point x="56.0537" y="-203.001" type="line"/>
      <point x="31.8926" y="-212.688"/>
      <point x="-5.91113" y="-222.97"/>
      <point x="-34.21" y="-228.002" type="curve"/>
      <point x="156.908" y="302.758" type="line" smooth="yes"/>
      <point x="160.176" y="311.832"/>
      <point x="162.186" y="321.788"/>
      <point x="162.186" y="331.3" type="curve" smooth="yes"/>
      <point x="162.186" y="351.477"/>
      <point x="153.142" y="369.66"/>
      <point x="127.868" y="373.203" type="curve" smooth="yes"/>
      <point x="116.964" y="374.731" type="line"/>
      <point x="114.439" y="388.764" type="line"/>
      <point x="148.204" y="398.19"/>
      <point x="215.09" y="416.553"/>
      <point x="223.621" y="416.553" type="curve" smooth="yes"/>
      <point x="232.193" y="416.553"/>
      <point x="240.086" y="402.881"/>
      <point x="245.322" y="381.707" type="curve"/>
      <point x="266.504" y="395.206"/>
      <point x="310.285" y="402.352"/>
      <point x="315.502" y="402.554" type="curve" smooth="yes"/>
      <point x="320.581" y="402.554"/>
      <point x="323.693" y="392.5"/>
      <point x="323.693" y="383.034" type="curve" smooth="yes"/>
      <point x="323.693" y="374.615"/>
      <point x="321.231" y="366.662"/>
      <point x="315.502" y="366.662" type="curve" smooth="yes"/>
      <point x="287.519" y="366.662"/>
      <point x="254.271" y="341.191"/>
    </contour>
  </outline>
</glyph>
<glyph name="e.medi" format="2">
  <advance width="480"/>
  <unicode hex="E00D"/>
  <outline>
    <contour>
      <point x="559.339" y="411.499" type="line"/>
      <point x="580.261" y="403.65"/>
      <point x="600.812" y="402.553"/>
      <point x="611.894" y="402.553" type="curve" smooth="yes"/>
      <point x="617.491" y="402.553"/>
      <point x="620.637" y="392.929"/>
      <point x="620.637" y="383.649" type="curve" smooth="yes"/>
      <point x="620.637" y="375.007"/>
      <point x="617.909" y="366.662"/>
      <point x="611.894" y="366.662" type="curve" smooth="yes"/>
      <point x="570.071" y="366.662"/>
      <point x="537.133" y="350.68"/>
      <point x="504.826" y="330.175" type="curve"/>
      <point x="517.451" y="305.749"/>
      <point x="524.573" y="276.942"/>
      <point x="524.573" y="244.808" type="curve" smooth="yes"/>
      <point x="524.573" y="101.814"/>
      <point x="425.742" y="-13.6191"/>
      <point x="278.266" y="-13.6191" type="curve" smooth="yes"/>
      <point x="177.672" y="-13.6191"/>
      <point x="99.5195" y="55.124"/>
      <point x="99.5195" y="159.525" type="curve" smooth="yes"/>
      <point x="99.5195" y="247.538"/>
      <point x="136.666" y="311.524"/>
      <point x="187.343" y="353.642" type="curve"/>
      <point x="172.044" y="361.024"/>
      <point x="152.848" y="366.662"/>
      <point x="132.03" y="366.662" type="curve" smooth="yes"/>
      <point x="126.404" y="366.662"/>
      <point x="123.851" y="375.013"/>
      <point x="123.851" y="383.658" type="curve" smooth="yes"/>
      <point x="123.851" y="392.936"/>
      <point x="126.791" y="402.553"/>
      <point x="132.029" y="402.553" type="curve" smooth="yes"/>
      <point x="183.001" y="402.553" type="line"/>
      <point x="207.06" y="368.5" type="line"/>
      <point x="254.74" y="401.038"/>
      <point x="310.743" y="416.553"/>
      <point x="358.543" y="416.553" type="curve" smooth="yes"/>
      <point x="413.419" y="416.553"/>
      <point x="461.383" y="392.561"/>
      <point x="491.461" y="351.712" type="curve"/>
    </contour>
    <contour>
      <point x="312.53" y="374.176" type="curve" smooth="yes"/>
      <point x="250.075" y="374.176"/>
      <point x="180.781" y="303.684"/>
      <point x="180.781" y="195.417" type="curve" smooth="yes"/>
      <point x="180.781" y="88.1133"/>
      <point x="250.046" y="28.4512"/>
      <point x="309.533" y="28.4512" type="curve" smooth="yes"/>
      <point x="382.793" y="28.4512"/>
      <point x="443.312" y="102.121"/>
      <point x="443.312" y="208.916" type="curve" smooth="yes"/>
      <point x="443.312" y="308.202"/>
      <point x="395.415" y="374.176"/>
    </contour>
  </outline>
</glyph>
<glyph name="e.fina" format="2">
  <advance width="481"/>
  <unicode hex="E00E"/>
  <outline>
    <contour>
      <point x="175.324" y="110.362" type="line"/>
      <point x="267.533" y="200.752"/>
      <point x="484.035" y="334.465"/>
      <point x="564.903" y="416.552" type="curve"/>
      <point x="619.82" y="416.552" type="line"/>
      <point x="562.033" y="359.951"/>
      <point x="439.657" y="279.835"/>
      <point x="327.732" y="193.582" type="curve" smooth="yes"/>
      <point x="244.174" y="129.187"/>
      <point x="151.14" y="43.1953"/>
      <point x="100.254" y="-98.1163" type="curve" smooth="yes"/>
      <point x="62.4883" y="-202.996" type="line"/>
      <point x="38.3271" y="-212.682"/>
      <point x="0.522461" y="-222.964"/>
      <point x="-27.7764" y="-227.996" type="curve"/>
      <point x="159.914" y="293.236" type="line" smooth="yes"/>
      <point x="172.121" y="327.136"/>
      <point x="177.942" y="345.385"/>
      <point x="177.942" y="355.209" type="curve" smooth="yes"/>
      <point x="177.942" y="366.552"/>
      <point x="170.181" y="366.662"/>
      <point x="155.53" y="366.662" type="curve" smooth="yes"/>
      <point x="132.032" y="366.662" type="line" smooth="yes"/>
      <point x="126.323" y="366.662"/>
      <point x="123.561" y="375.432"/>
      <point x="123.561" y="384.301" type="curve" smooth="yes"/>
      <point x="123.561" y="393.375"/>
      <point x="126.451" y="402.554"/>
      <point x="132.032" y="402.554" type="curve" smooth="yes"/>
      <point x="243.011" y="402.554" type="line" smooth="yes"/>
      <point x="261.155" y="402.554"/>
      <point x="269.227" y="398.671"/>
      <point x="269.227" y="385.107" type="curve" smooth="yes"/>
      <point x="269.227" y="373.295"/>
      <point x="263.105" y="354.14"/>
      <point x="252.185" y="323.813" type="curve" smooth="yes"/>
    </contour>
  </outline>
</glyph>
<glyph name="f.init" format="2">
  <advance width="389"/>
  <unicode hex="E00F"/>
  <outline>
    <contour>
      <point x="144.251" y="-13.4499" type="curve" smooth="yes"/>
      <point x="139.848" y="-30.6916"/>
      <point x="133.121" y="-50.2059"/>
      <point x="124.208" y="-71.542" type="curve" smooth="yes"/>
      <point x="69.2881" y="-203.001" type="line"/>
      <point x="45.127" y="-212.688"/>
      <point x="7.32227" y="-222.97"/>
      <point x="-20.9766" y="-228.002" type="curve"/>
      <point x="34.665" y="-94.8174" type="line" smooth="yes"/>
      <point x="55.6396" y="-44.61"/>
      <point x="64.5205" y="-14.8853"/>
      <point x="64.5205" y="4.95503" type="curve" smooth="yes"/>
      <point x="64.5205" y="14.5963"/>
      <point x="62.4233" y="21.9035"/>
      <point x="58.5977" y="28.0928" type="curve"/>
      <point x="139.858" y="59.6396" type="line"/>
      <point x="158.508" y="45.5117"/>
      <point x="175.41" y="37.6055"/>
      <point x="207.877" y="37.6055" type="curve" smooth="yes"/>
      <point x="267.726" y="37.6055"/>
      <point x="368.65" y="91.8428"/>
      <point x="368.65" y="213.205" type="curve" smooth="yes"/>
      <point x="368.65" y="318.456"/>
      <point x="294.215" y="368.897"/>
      <point x="200.386" y="368.897" type="curve" smooth="yes"/>
      <point x="192.722" y="368.897"/>
      <point x="165.041" y="365.438"/>
      <point x="143.476" y="357.831" type="curve"/>
      <point x="143.476" y="382.162" type="line"/>
      <point x="185.936" y="398.977"/>
      <point x="243.553" y="416.552"/>
      <point x="262.465" y="416.552" type="curve" smooth="yes"/>
      <point x="291.103" y="416.552"/>
      <point x="318.414" y="411.816"/>
      <point x="342.891" y="402.554" type="curve"/>
      <point x="520.634" y="402.554" type="line" smooth="yes"/>
      <point x="525.927" y="402.554"/>
      <point x="528.886" y="392.959"/>
      <point x="528.886" y="383.691" type="curve" smooth="yes"/>
      <point x="528.886" y="375.034"/>
      <point x="526.305" y="366.662"/>
      <point x="520.634" y="366.662" type="curve" smooth="yes"/>
      <point x="401.035" y="366.662" type="line"/>
      <point x="431.295" y="337.911"/>
      <point x="449.913" y="297.102"/>
      <point x="449.913" y="245.204" type="curve" smooth="yes"/>
      <point x="449.913" y="161.099"/>
      <point x="402.011" y="92.3867"/>
      <point x="358.785" y="56.0967" type="curve"/>
      <point x="333.153" y="40.1829"/>
      <point x="209.513" y="-13.6201"/>
      <point x="151.535" y="-13.6201" type="curve" smooth="yes"/>
      <point x="149.041" y="-13.6201"/>
      <point x="146.615" y="-13.5627"/>
    </contour>
  </outline>
</glyph>
<glyph name="f.medi" format="2">
  <advance width="190"/>
  <unicode hex="E010"/>
  <outline>
    <contour>
      <point x="132.032" y="402.556" type="curve" smooth="yes"/>
      <point x="321.935" y="402.56" type="line" smooth="yes"/>
      <point x="327.055" y="402.56"/>
      <point x="330.565" y="391.999"/>
      <point x="330.565" y="382.334" type="curve" smooth="yes"/>
      <point x="330.565" y="374.182"/>
      <point x="328.068" y="366.668"/>
      <point x="321.935" y="366.668" type="curve" smooth="yes"/>
      <point x="291.996" y="366.668"/>
      <point x="261.687" y="350.124"/>
      <point x="236.256" y="279.51" type="curve" smooth="yes"/>
      <point x="62.4883" y="-202.998" type="line"/>
      <point x="38.3271" y="-212.685"/>
      <point x="0.522461" y="-222.967"/>
      <point x="-27.7764" y="-227.999" type="curve"/>
      <point x="159.872" y="293.124" type="line" smooth="yes"/>
      <point x="172.054" y="326.955"/>
      <point x="177.883" y="345.225"/>
      <point x="177.883" y="355.09" type="curve" smooth="yes"/>
      <point x="177.883" y="366.44"/>
      <point x="170.166" y="366.664"/>
      <point x="155.53" y="366.664" type="curve" smooth="yes"/>
      <point x="132.032" y="366.664" type="line" smooth="yes"/>
      <point x="126.349" y="366.664"/>
      <point x="123.815" y="374.891"/>
      <point x="123.815" y="383.467" type="curve" smooth="yes"/>
      <point x="123.815" y="392.804"/>
      <point x="126.819" y="402.556"/>
    </contour>
  </outline>
</glyph>
<glyph name="f.fina" format="2">
  <advance width="348"/>
  <unicode hex="E011"/>
  <outline>
    <contour>
      <point x="159.74" y="402.56" type="line" smooth="yes"/>
      <point x="221.27" y="402.56"/>
      <point x="345.864" y="393.655"/>
      <point x="347.746" y="393.655" type="curve" smooth="yes"/>
      <point x="388.593" y="393.655"/>
      <point x="413.16" y="403.906"/>
      <point x="460.179" y="446.401" type="curve"/>
      <point x="482.076" y="446.401" type="line"/>
      <point x="411.029" y="363.189"/>
      <point x="371.614" y="325.233"/>
      <point x="325.386" y="325.233" type="curve" smooth="yes"/>
      <point x="292.043" y="325.233"/>
      <point x="274.151" y="343.553"/>
      <point x="223.611" y="354.928" type="curve" smooth="yes"/>
      <point x="189.792" y="362.539"/>
      <point x="156.048" y="366.669"/>
      <point x="132.227" y="366.669" type="curve" smooth="yes"/>
      <point x="126.632" y="366.669"/>
      <point x="124.021" y="375.21"/>
      <point x="124.021" y="383.959" type="curve" smooth="yes"/>
      <point x="124.021" y="393.145"/>
      <point x="126.9" y="402.56"/>
      <point x="132.227" y="402.56" type="curve" smooth="yes"/>
    </contour>
  </outline>
</glyph>
<glyph name="g.init" format="2">
  <advance width="498"/>
  <unicode hex="E012"/>
  <outline>
    <contour>
      <point x="526.876" y="572.166" type="curve" smooth="yes"/>
      <point x="526.876" y="542.77"/>
      <point x="503.046" y="518.939"/>
      <point x="473.65" y="518.939" type="curve" smooth="yes"/>
      <point x="444.253" y="518.939"/>
      <point x="420.422" y="542.77"/>
      <point x="420.422" y="572.166" type="curve" smooth="yes"/>
      <point x="420.422" y="601.562"/>
      <point x="444.253" y="625.393"/>
      <point x="473.65" y="625.393" type="curve" smooth="yes"/>
      <point x="503.046" y="625.393"/>
      <point x="526.876" y="601.562"/>
    </contour>
    <contour>
      <point x="128.483" y="380.412" type="line"/>
      <point x="179.335" y="397.443"/>
      <point x="242.507" y="416.552"/>
      <point x="250.448" y="416.552" type="curve" smooth="yes"/>
      <point x="282.696" y="416.552"/>
      <point x="338.662" y="389.101"/>
      <point x="338.662" y="308.115" type="curve" smooth="yes"/>
      <point x="338.662" y="186.22"/>
      <point x="228.443" y="82.2295"/>
      <point x="109.83" y="30.5264" type="curve"/>
      <point x="176.202" y="22.7827"/>
      <point x="265.115" y="-1.22984"/>
      <point x="326.792" y="-99.4598" type="curve"/>
      <point x="494.637" y="366.661" type="line"/>
      <point x="462.827" y="414.338" type="line"/>
      <point x="494.035" y="424.572"/>
      <point x="532.146" y="435.383"/>
      <point x="564.223" y="443.145" type="curve"/>
      <point x="580.238" y="402.553" type="line"/>
      <point x="630.222" y="402.553" type="line" smooth="yes"/>
      <point x="635.422" y="402.553"/>
      <point x="637.909" y="393.853"/>
      <point x="637.909" y="385.02" type="curve" smooth="yes"/>
      <point x="637.909" y="375.911"/>
      <point x="635.264" y="366.661"/>
      <point x="630.222" y="366.661" type="curve" smooth="yes"/>
      <point x="575.9" y="366.661" type="line"/>
      <point x="370.771" y="-203" type="line"/>
      <point x="346.61" y="-212.686"/>
      <point x="308.807" y="-222.969"/>
      <point x="280.507" y="-228.001" type="curve"/>
      <point x="250.937" y="-71.0088"/>
      <point x="123.438" y="-9.37988"/>
      <point x="11.415" y="-8.62305" type="curve"/>
      <point x="11.415" y="10.5371" type="line"/>
      <point x="147.517" y="75.166"/>
      <point x="255.561" y="154.812"/>
      <point x="255.561" y="280.442" type="curve" smooth="yes"/>
      <point x="255.561" y="345.508"/>
      <point x="220.751" y="371.041"/>
      <point x="183.087" y="371.041" type="curve" smooth="yes"/>
      <point x="167.812" y="371.041"/>
      <point x="138.702" y="363.012"/>
      <point x="128.483" y="360.092" type="curve"/>
    </contour>
  </outline>
</glyph>
<glyph name="g.medi" format="2">
  <advance width="498"/>
  <unicode hex="E013"/>
  <outline>
    <contour>
      <point x="526.877" y="572.166" type="curve" smooth="yes"/>
      <point x="526.877" y="542.769"/>
      <point x="503.046" y="518.938"/>
      <point x="473.651" y="518.938" type="curve" smooth="yes"/>
      <point x="444.254" y="518.938"/>
      <point x="420.423" y="542.77"/>
      <point x="420.423" y="572.166" type="curve" smooth="yes"/>
      <point x="420.423" y="601.562"/>
      <point x="444.254" y="625.392"/>
      <point x="473.651" y="625.392" type="curve" smooth="yes"/>
      <point x="503.046" y="625.392"/>
      <point x="526.877" y="601.562"/>
    </contour>
    <contour>
      <point x="132.029" y="402.553" type="curve" smooth="yes"/>
      <point x="309.713" y="402.553" type="line"/>
      <point x="326.82" y="380.728"/>
      <point x="338.662" y="344.61"/>
      <point x="338.662" y="308.114" type="curve" smooth="yes"/>
      <point x="338.662" y="186.22"/>
      <point x="228.443" y="82.2285"/>
      <point x="109.83" y="30.5254" type="curve"/>
      <point x="176.203" y="22.7826"/>
      <point x="265.115" y="-1.22984"/>
      <point x="326.792" y="-99.4601" type="curve"/>
      <point x="494.638" y="366.661" type="line"/>
      <point x="462.828" y="414.337" type="line"/>
      <point x="494.035" y="424.572"/>
      <point x="532.147" y="435.383"/>
      <point x="564.223" y="443.145" type="curve"/>
      <point x="580.238" y="402.553" type="line"/>
      <point x="630.223" y="402.553" type="line" smooth="yes"/>
      <point x="635.265" y="402.553"/>
      <point x="638.171" y="392.801"/>
      <point x="638.171" y="383.464" type="curve" smooth="yes"/>
      <point x="638.171" y="374.888"/>
      <point x="635.72" y="366.661"/>
      <point x="630.223" y="366.661" type="curve" smooth="yes"/>
      <point x="575.901" y="366.661" type="line"/>
      <point x="370.771" y="-203.001" type="line"/>
      <point x="346.61" y="-212.687"/>
      <point x="308.807" y="-222.969"/>
      <point x="280.508" y="-228.001" type="curve"/>
      <point x="250.938" y="-71.0098"/>
      <point x="123.438" y="-9.38086"/>
      <point x="11.416" y="-8.62402" type="curve"/>
      <point x="11.416" y="10.5371" type="line"/>
      <point x="147.517" y="75.166"/>
      <point x="255.562" y="154.812"/>
      <point x="255.562" y="280.442" type="curve" smooth="yes"/>
      <point x="255.562" y="313.314"/>
      <point x="245.037" y="345.941"/>
      <point x="230.812" y="366.661" type="curve"/>
      <point x="132.029" y="366.661" type="line" smooth="yes"/>
      <point x="126.531" y="366.661"/>
      <point x="124.244" y="374.355"/>
      <point x="124.244" y="382.618" type="curve" smooth="yes"/>
      <point x="124.244" y="392.202"/>
      <point x="127.32" y="402.553"/>
    </contour>
  </outline>
</glyph>
<glyph name="g.fina" format="2">
  <advance width="756"/>
  <unicode hex="E014"/>
  <outline>
    <contour>
      <point x="515.394" y="572.166" type="curve" smooth="yes"/>
      <point x="515.394" y="542.769"/>
      <point x="491.563" y="518.938"/>
      <point x="462.168" y="518.938" type="curve" smooth="yes"/>
      <point x="432.771" y="518.938"/>
      <point x="408.939" y="542.77"/>
      <point x="408.939" y="572.166" type="curve" smooth="yes"/>
      <point x="408.939" y="601.562"/>
      <point x="432.771" y="625.392"/>
      <point x="462.168" y="625.392" type="curve" smooth="yes"/>
      <point x="491.563" y="625.392"/>
      <point x="515.394" y="601.562"/>
    </contour>
    <contour>
      <point x="299.495" y="-81.5938" type="curve"/>
      <point x="424.608" y="152.523"/>
      <point x="717.806" y="292.356"/>
      <point x="840.154" y="416.547" type="curve"/>
      <point x="895.071" y="416.547" type="line"/>
      <point x="838.6" y="361.235"/>
      <point x="730.378" y="290.751"/>
      <point x="636.566" y="218.449" type="curve" smooth="yes"/>
      <point x="481.965" y="99.3037"/>
      <point x="365.628" y="-4.5293"/>
      <point x="329.975" y="-203.002" type="curve"/>
      <point x="305.814" y="-212.689"/>
      <point x="268.012" y="-222.971"/>
      <point x="239.714" y="-228.003" type="curve"/>
      <point x="237.166" y="-78.3457"/>
      <point x="123.438" y="-9.38086"/>
      <point x="11.415" y="-8.62402" type="curve"/>
      <point x="11.415" y="10.5361" type="line"/>
      <point x="147.516" y="75.165"/>
      <point x="255.562" y="154.812"/>
      <point x="255.562" y="280.442" type="curve" smooth="yes"/>
      <point x="255.562" y="313.315"/>
      <point x="245.037" y="345.942"/>
      <point x="230.812" y="366.661" type="curve"/>
      <point x="132.028" y="366.661" type="line" smooth="yes"/>
      <point x="126.53" y="366.661"/>
      <point x="124.244" y="374.355"/>
      <point x="124.244" y="382.619" type="curve" smooth="yes"/>
      <point x="124.244" y="392.203"/>
      <point x="127.319" y="402.553"/>
      <point x="132.028" y="402.553" type="curve" smooth="yes"/>
      <point x="309.712" y="402.553" type="line"/>
      <point x="326.819" y="380.727"/>
      <point x="338.663" y="344.609"/>
      <point x="338.663" y="308.114" type="curve" smooth="yes"/>
      <point x="338.663" y="186.22"/>
      <point x="228.443" y="82.2295"/>
      <point x="109.831" y="30.5264" type="curve"/>
      <point x="187.194" y="21.5013"/>
      <point x="256.994" y="1.43569"/>
    </contour>
  </outline>
</glyph>
<glyph name="h.init" format="2">
  <advance width="686"/>
  <unicode hex="E015"/>
  <outline>
    <contour>
      <point x="456.078" y="402.552" type="line" smooth="yes"/>
      <point x="489.234" y="402.552"/>
      <point x="512.397" y="416.553"/>
      <point x="564.179" y="416.553" type="curve" smooth="yes"/>
      <point x="619.055" y="416.553"/>
      <point x="667.018" y="392.561"/>
      <point x="697.096" y="351.712" type="curve"/>
      <point x="764.975" y="411.5" type="line"/>
      <point x="785.896" y="403.65"/>
      <point x="806.448" y="402.554"/>
      <point x="817.529" y="402.554" type="curve" smooth="yes"/>
      <point x="822.654" y="402.554"/>
      <point x="825.243" y="393.519"/>
      <point x="825.243" y="384.516" type="curve" smooth="yes"/>
      <point x="825.243" y="375.574"/>
      <point x="822.689" y="366.662"/>
      <point x="817.529" y="366.662" type="curve" smooth="yes"/>
      <point x="775.706" y="366.662"/>
      <point x="742.767" y="350.68"/>
      <point x="710.46" y="330.175" type="curve"/>
      <point x="723.085" y="305.749"/>
      <point x="730.208" y="276.942"/>
      <point x="730.208" y="244.808" type="curve" smooth="yes"/>
      <point x="730.208" y="101.815"/>
      <point x="631.378" y="-13.6191"/>
      <point x="483.901" y="-13.6191" type="curve" smooth="yes"/>
      <point x="383.308" y="-13.6191"/>
      <point x="305.155" y="55.124"/>
      <point x="305.155" y="159.525" type="curve" smooth="yes"/>
      <point x="305.155" y="257.149"/>
      <point x="350.858" y="325.213"/>
      <point x="410.034" y="366.66" type="curve"/>
      <point x="144.968" y="366.66" type="line" smooth="yes"/>
      <point x="141.278" y="366.66"/>
      <point x="139.614" y="368.127"/>
      <point x="139.614" y="370.097" type="curve" smooth="yes"/>
      <point x="139.614" y="378.164"/>
      <point x="227.424" y="448.701"/>
      <point x="246.212" y="462.922" type="curve"/>
      <point x="298.954" y="402.795" type="line"/>
    </contour>
    <contour>
      <point x="518.165" y="374.176" type="curve" smooth="yes"/>
      <point x="455.711" y="374.176"/>
      <point x="386.417" y="303.685"/>
      <point x="386.417" y="195.418" type="curve" smooth="yes"/>
      <point x="386.417" y="88.1133"/>
      <point x="455.682" y="28.4512"/>
      <point x="515.169" y="28.4512" type="curve" smooth="yes"/>
      <point x="588.429" y="28.4512"/>
      <point x="648.947" y="102.121"/>
      <point x="648.947" y="208.916" type="curve" smooth="yes"/>
      <point x="648.947" y="308.202"/>
      <point x="601.051" y="374.176"/>
    </contour>
  </outline>
</glyph>
<glyph name="h.medi" format="2">
  <advance width="264"/>
  <unicode hex="E016"/>
  <outline>
    <contour>
      <point x="315.481" y="446.497" type="curve" smooth="yes"/>
      <point x="315.481" y="416.554"/>
      <point x="332.435" y="402.554"/>
      <point x="388.8" y="402.554" type="curve" smooth="yes"/>
      <point x="396.146" y="402.554" type="line" smooth="yes"/>
      <point x="401.049" y="402.554"/>
      <point x="403.617" y="393.313"/>
      <point x="403.617" y="384.209" type="curve" smooth="yes"/>
      <point x="403.617" y="375.371"/>
      <point x="401.197" y="366.663"/>
      <point x="396.146" y="366.663" type="curve" smooth="yes"/>
      <point x="320.67" y="366.663" type="line" smooth="yes"/>
      <point x="304.487" y="366.663"/>
      <point x="289.703" y="368.066"/>
      <point x="277.062" y="371.182" type="curve"/>
      <point x="275.495" y="362.586"/>
      <point x="271.667" y="351.877"/>
      <point x="266.142" y="338.652" type="curve" smooth="yes"/>
      <point x="170.106" y="108.782" type="line" smooth="yes"/>
      <point x="135.018" y="24.7939"/>
      <point x="98.4111" y="-18.9434"/>
      <point x="69.2344" y="-45.2793" type="curve"/>
      <point x="58.3584" y="-42.7002" type="line"/>
      <point x="58.3437" y="-41.6851"/>
      <point x="58.3362" y="-40.6509"/>
      <point x="58.3362" y="-39.598" type="curve" smooth="yes"/>
      <point x="58.3362" y="-4.83543"/>
      <point x="66.4574" y="50.2445"/>
      <point x="89.9424" y="106.455" type="curve" smooth="yes"/>
      <point x="171.955" y="302.761" type="line" smooth="yes"/>
      <point x="183.756" y="331.008"/>
      <point x="190.052" y="347.622"/>
      <point x="190.052" y="356.793" type="curve" smooth="yes"/>
      <point x="190.052" y="364.071"/>
      <point x="186.088" y="366.662"/>
      <point x="177.764" y="366.662" type="curve" smooth="yes"/>
      <point x="132.033" y="366.662" type="line" smooth="yes"/>
      <point x="126.744" y="366.662"/>
      <point x="124.39" y="374.878"/>
      <point x="124.39" y="383.448" type="curve" smooth="yes"/>
      <point x="124.39" y="392.79"/>
      <point x="127.188" y="402.554"/>
      <point x="132.033" y="402.554" type="curve" smooth="yes"/>
      <point x="226.337" y="402.554" type="line" smooth="yes"/>
      <point x="229.441" y="402.554"/>
      <point x="232.387" y="402.512"/>
      <point x="235.18" y="402.426" type="curve"/>
      <point x="233.524" y="407.09"/>
      <point x="232.654" y="412.272"/>
      <point x="232.654" y="418.006" type="curve" smooth="yes"/>
      <point x="232.654" y="478.514"/>
      <point x="289.86" y="499.502"/>
      <point x="382.76" y="533.585" type="curve"/>
      <point x="382.76" y="514.12" type="line"/>
      <point x="336.136" y="497.088"/>
      <point x="315.481" y="469.327"/>
    </contour>
  </outline>
</glyph>
<glyph name="h.fina" format="2">
  <advance width="191"/>
  <unicode hex="E017"/>
  <outline>
    <contour>
      <point x="132.031" y="402.553" type="curve" smooth="yes"/>
      <point x="226.335" y="402.553" type="line" smooth="yes"/>
      <point x="263.384" y="402.553"/>
      <point x="277.852" y="396.655"/>
      <point x="277.852" y="379.071" type="curve" smooth="yes"/>
      <point x="277.852" y="369.429"/>
      <point x="273.502" y="356.274"/>
      <point x="266.14" y="338.651" type="curve" smooth="yes"/>
      <point x="170.104" y="108.781" type="line" smooth="yes"/>
      <point x="135.016" y="24.793"/>
      <point x="98.4092" y="-18.9443"/>
      <point x="69.2324" y="-45.2803" type="curve"/>
      <point x="58.3555" y="-42.7021" type="line"/>
      <point x="58.3408" y="-41.6889"/>
      <point x="58.3334" y="-40.6566"/>
      <point x="58.3334" y="-39.6057" type="curve" smooth="yes"/>
      <point x="58.3334" y="-4.84337"/>
      <point x="66.4541" y="50.2404"/>
      <point x="89.9395" y="106.454" type="curve" smooth="yes"/>
      <point x="171.953" y="302.76" type="line" smooth="yes"/>
      <point x="183.754" y="331.007"/>
      <point x="190.05" y="347.621"/>
      <point x="190.05" y="356.792" type="curve" smooth="yes"/>
      <point x="190.05" y="364.07"/>
      <point x="186.086" y="366.662"/>
      <point x="177.761" y="366.662" type="curve" smooth="yes"/>
      <point x="132.031" y="366.662" type="line" smooth="yes"/>
      <point x="126.914" y="366.662"/>
      <point x="124.337" y="375.676"/>
      <point x="124.337" y="384.669" type="curve" smooth="yes"/>
      <point x="124.337" y="393.621"/>
      <point x="126.89" y="402.553"/>
    </contour>
    <contour>
      <point x="249.838" y="519.737" type="curve"/>
      <point x="249.838" y="528.253" type="line"/>
      <point x="328.533" y="558.006" type="line"/>
      <point x="335.832" y="544.137"/>
      <point x="339.245" y="528.083"/>
      <point x="339.245" y="512.924" type="curve" smooth="yes"/>
      <point x="339.245" y="487.663"/>
      <point x="322.192" y="460.77"/>
      <point x="297.407" y="450.292" type="curve" smooth="yes"/>
      <point x="287.176" y="445.968"/>
      <point x="264.479" y="440.303"/>
      <point x="251.054" y="438.255" type="curve"/>
      <point x="246.188" y="445.041" type="line"/>
      <point x="253.748" y="453.086"/>
      <point x="258.201" y="468.127"/>
      <point x="258.201" y="482.203" type="curve" smooth="yes"/>
      <point x="258.201" y="496.238"/>
      <point x="254.217" y="508.545"/>
    </contour>
  </outline>
</glyph>
<glyph name="i.init" format="2">
  <advance width="480"/>
  <unicode hex="E018"/>
  <outline>
    <contour>
      <point x="559.34" y="411.5" type="line"/>
      <point x="580.261" y="403.651"/>
      <point x="600.812" y="402.554"/>
      <point x="611.895" y="402.554" type="curve" smooth="yes"/>
      <point x="617.124" y="402.554"/>
      <point x="619.862" y="393.313"/>
      <point x="619.862" y="384.209" type="curve" smooth="yes"/>
      <point x="619.862" y="375.371"/>
      <point x="617.281" y="366.663"/>
      <point x="611.895" y="366.663" type="curve" smooth="yes"/>
      <point x="570.072" y="366.663"/>
      <point x="537.133" y="350.681"/>
      <point x="504.826" y="330.176" type="curve"/>
      <point x="517.451" y="305.75"/>
      <point x="524.573" y="276.943"/>
      <point x="524.573" y="244.809" type="curve" smooth="yes"/>
      <point x="524.573" y="101.815"/>
      <point x="425.743" y="-13.6182"/>
      <point x="278.267" y="-13.6182" type="curve" smooth="yes"/>
      <point x="177.673" y="-13.6182"/>
      <point x="99.5205" y="55.125"/>
      <point x="99.5205" y="159.526" type="curve" smooth="yes"/>
      <point x="99.5205" y="336.745"/>
      <point x="250.131" y="416.554"/>
      <point x="358.544" y="416.554" type="curve" smooth="yes"/>
      <point x="413.42" y="416.554"/>
      <point x="461.384" y="392.562"/>
      <point x="491.462" y="351.713" type="curve"/>
    </contour>
    <contour>
      <point x="312.53" y="374.177" type="curve" smooth="yes"/>
      <point x="250.076" y="374.177"/>
      <point x="180.782" y="303.685"/>
      <point x="180.782" y="195.418" type="curve" smooth="yes"/>
      <point x="180.782" y="88.1143"/>
      <point x="250.047" y="28.4521"/>
      <point x="309.534" y="28.4521" type="curve" smooth="yes"/>
      <point x="382.794" y="28.4521"/>
      <point x="443.312" y="102.122"/>
      <point x="443.312" y="208.916" type="curve" smooth="yes"/>
      <point x="443.312" y="308.203"/>
      <point x="395.416" y="374.177"/>
    </contour>
  </outline>
</glyph>
<glyph name="i.medi" format="2">
  <advance width="251"/>
  <unicode hex="E019"/>
  <outline>
    <contour>
      <point x="423.162" y="608.742" type="curve"/>
      <point x="437.517" y="596.596" type="line"/>
      <point x="436.496" y="595.997"/>
      <point x="350.043" y="546.322"/>
      <point x="335.03" y="537.346" type="curve" smooth="yes"/>
      <point x="302.323" y="517.79"/>
      <point x="274.915" y="486.447"/>
      <point x="274.915" y="457.84" type="curve" smooth="yes"/>
      <point x="274.915" y="424.113"/>
      <point x="315.856" y="402.553"/>
      <point x="381.459" y="402.553" type="curve" smooth="yes"/>
      <point x="383.181" y="402.553" type="line" smooth="yes"/>
      <point x="388.256" y="402.553"/>
      <point x="390.906" y="393.329"/>
      <point x="390.906" y="384.232" type="curve" smooth="yes"/>
      <point x="390.906" y="375.386"/>
      <point x="388.4" y="366.66"/>
      <point x="383.181" y="366.66" type="curve" smooth="yes"/>
      <point x="287.712" y="366.66" type="line" smooth="yes"/>
      <point x="264.526" y="366.66"/>
      <point x="244.913" y="371.041"/>
      <point x="229.696" y="378.396" type="curve"/>
      <point x="215.485" y="371.334"/>
      <point x="198.228" y="366.666"/>
      <point x="177.182" y="366.666" type="curve" smooth="yes"/>
      <point x="132.033" y="366.666" type="line" smooth="yes"/>
      <point x="127.043" y="366.666"/>
      <point x="124.69" y="375.271"/>
      <point x="124.69" y="384.054" type="curve" smooth="yes"/>
      <point x="124.69" y="393.207"/>
      <point x="127.245" y="402.553"/>
      <point x="132.033" y="402.553" type="curve" smooth="yes"/>
      <point x="171.294" y="402.553" type="line" smooth="yes"/>
      <point x="181.81" y="402.553"/>
      <point x="191.277" y="403.254"/>
      <point x="199.896" y="404.438" type="curve"/>
      <point x="195.799" y="411.571"/>
      <point x="193.653" y="419.352"/>
      <point x="193.653" y="427.453" type="curve" smooth="yes"/>
      <point x="193.653" y="469.827"/>
      <point x="229.104" y="505.909"/>
      <point x="318.852" y="548.029" type="curve"/>
      <point x="307.808" y="550.304"/>
      <point x="296.478" y="552.867"/>
      <point x="284.146" y="556.431" type="curve"/>
      <point x="288.981" y="568.597" type="line"/>
      <point x="288.981" y="568.597"/>
      <point x="382.286" y="581.979"/>
    </contour>
  </outline>
</glyph>
<glyph name="i.fina" format="2">
  <advance width="392"/>
  <unicode hex="E01A"/>
  <outline>
    <contour>
      <point x="132.305" y="402.552" type="curve" smooth="yes"/>
      <point x="445.306" y="402.55" type="line" smooth="yes"/>
      <point x="463.45" y="402.55"/>
      <point x="471.521" y="398.667"/>
      <point x="471.521" y="385.102" type="curve" smooth="yes"/>
      <point x="471.521" y="373.29"/>
      <point x="465.4" y="354.134"/>
      <point x="454.479" y="323.807" type="curve" smooth="yes"/>
      <point x="264.78" y="-203.003" type="line"/>
      <point x="240.62" y="-212.688"/>
      <point x="202.816" y="-222.971"/>
      <point x="174.517" y="-228.003" type="curve"/>
      <point x="258.783" y="6.01363" type="line"/>
      <point x="240.416" y="-0.705165"/>
      <point x="193.118" y="-13.6201"/>
      <point x="154.943" y="-13.6201" type="curve" smooth="yes"/>
      <point x="70.6416" y="-13.6201"/>
      <point x="47.9307" y="24.4473"/>
      <point x="47.9307" y="62.2969" type="curve" smooth="yes"/>
      <point x="47.9307" y="167.169"/>
      <point x="191.699" y="203.909"/>
      <point x="344.064" y="242.846" type="curve"/>
      <point x="362.166" y="293.117" type="line" smooth="yes"/>
      <point x="374.348" y="326.948"/>
      <point x="380.177" y="345.218"/>
      <point x="380.177" y="355.083" type="curve" smooth="yes"/>
      <point x="380.177" y="366.434"/>
      <point x="372.46" y="366.658"/>
      <point x="357.824" y="366.658" type="curve" smooth="yes"/>
      <point x="132.305" y="366.66" type="line" smooth="yes"/>
      <point x="126.984" y="366.66"/>
      <point x="124.457" y="375.316"/>
      <point x="124.457" y="384.126" type="curve" smooth="yes"/>
      <point x="124.457" y="393.256"/>
      <point x="127.171" y="402.552"/>
    </contour>
    <contour>
      <point x="333.074" y="212.326" type="line"/>
      <point x="312.129" y="208.229"/>
      <point x="287.565" y="202.506"/>
      <point x="270.212" y="197.538" type="curve" smooth="yes"/>
      <point x="210.676" y="180.493"/>
      <point x="131.89" y="141.832"/>
      <point x="131.89" y="89.4805" type="curve" smooth="yes"/>
      <point x="131.89" y="42.3398"/>
      <point x="166.986" y="26.168"/>
      <point x="218.6" y="26.168" type="curve" smooth="yes"/>
      <point x="235.873" y="26.168"/>
      <point x="251.427" y="27.9594"/>
      <point x="267.811" y="31.0845" type="curve"/>
    </contour>
  </outline>
</glyph>
<glyph name="j.fina" format="2">
  <advance width="480"/>
  <unicode hex="E01D"/>
  <outline>
    <contour>
      <point x="312.53" y="374.176" type="curve" smooth="yes"/>
      <point x="250.075" y="374.176"/>
      <point x="180.781" y="303.684"/>
      <point x="180.781" y="195.417" type="curve" smooth="yes"/>
      <point x="180.781" y="88.1133"/>
      <point x="250.046" y="28.4512"/>
      <point x="309.533" y="28.4512" type="curve" smooth="yes"/>
      <point x="382.793" y="28.4512"/>
      <point x="443.312" y="102.121"/>
      <point x="443.312" y="208.915" type="curve" smooth="yes"/>
      <point x="443.312" y="308.202"/>
      <point x="395.415" y="374.176"/>
    </contour>
    <contour>
      <point x="358.543" y="416.553" type="curve" smooth="yes"/>
      <point x="451.469" y="416.553"/>
      <point x="524.573" y="347.756"/>
      <point x="524.573" y="244.808" type="curve" smooth="yes"/>
      <point x="524.573" y="101.814"/>
      <point x="425.742" y="-13.6191"/>
      <point x="278.266" y="-13.6191" type="curve" smooth="yes"/>
      <point x="177.672" y="-13.6191"/>
      <point x="99.5195" y="55.124"/>
      <point x="99.5195" y="159.525" type="curve" smooth="yes"/>
      <point x="99.5195" y="247.538"/>
      <point x="136.666" y="311.524"/>
      <point x="187.343" y="353.642" type="curve"/>
      <point x="172.044" y="361.024"/>
      <point x="152.848" y="366.662"/>
      <point x="132.03" y="366.662" type="curve" smooth="yes"/>
      <point x="126.869" y="366.662"/>
      <point x="124.199" y="375.835"/>
      <point x="124.199" y="384.906" type="curve" smooth="yes"/>
      <point x="124.199" y="393.778"/>
      <point x="126.753" y="402.553"/>
      <point x="132.029" y="402.553" type="curve" smooth="yes"/>
      <point x="183.001" y="402.553" type="line"/>
      <point x="207.06" y="368.5" type="line"/>
      <point x="254.74" y="401.038"/>
      <point x="310.743" y="416.553"/>
    </contour>
  </outline>
</glyph>
<glyph name="k.init" format="2">
  <advance width="283"/>
  <unicode hex="E01E"/>
  <outline>
    <contour>
      <point x="293.731" y="366.664" type="line" smooth="yes"/>
      <point x="261.993" y="366.664"/>
      <point x="213.391" y="368.712"/>
      <point x="212.579" y="368.712" type="curve" smooth="yes"/>
      <point x="187.867" y="368.712"/>
      <point x="165.669" y="360.67"/>
      <point x="129.884" y="347.25" type="curve"/>
      <point x="129.884" y="364.414" type="line"/>
      <point x="192.633" y="392.096"/>
      <point x="262.23" y="418.658"/>
      <point x="272.207" y="418.658" type="curve" smooth="yes"/>
      <point x="286.788" y="418.658"/>
      <point x="308.028" y="402.556"/>
      <point x="375.727" y="402.556" type="curve" smooth="yes"/>
      <point x="415.071" y="402.556" type="line" smooth="yes"/>
      <point x="420.426" y="402.556"/>
      <point x="422.812" y="394.334"/>
      <point x="422.812" y="385.76" type="curve" smooth="yes"/>
      <point x="422.812" y="376.421"/>
      <point x="419.981" y="366.664"/>
      <point x="415.071" y="366.664" type="curve" smooth="yes"/>
    </contour>
    <contour>
      <point x="180.636" y="171.505" type="curve" smooth="yes"/>
      <point x="150.488" y="171.505"/>
      <point x="113.659" y="181.784"/>
      <point x="105.679" y="193.781" type="curve"/>
      <point x="105.678" y="210.801" type="line"/>
      <point x="128" y="220"/>
      <point x="153" y="229"/>
      <point x="179.646" y="235.677" type="curve"/>
      <point x="199.091" y="227.061"/>
      <point x="219.812" y="218.351"/>
      <point x="253.107" y="218.351" type="curve" smooth="yes"/>
      <point x="274.519" y="218.351"/>
      <point x="323.199" y="230.129"/>
      <point x="345.583" y="239.861" type="curve"/>
      <point x="356.046" y="229.155" type="line"/>
      <point x="288.935" y="199.508"/>
      <point x="225.544" y="171.505"/>
    </contour>
  </outline>
</glyph>
<glyph name="k.medi" format="2">
  <advance width="256"/>
  <unicode hex="E01F"/>
  <outline>
    <contour>
      <point x="155.261" y="171.498" type="curve" smooth="yes"/>
      <point x="125.119" y="171.498"/>
      <point x="88.2876" y="181.777"/>
      <point x="80.3066" y="193.774" type="curve"/>
      <point x="80.3057" y="210.795" type="line"/>
      <point x="80.3057" y="210.795"/>
      <point x="134.444" y="229.588"/>
      <point x="154.274" y="235.671" type="curve"/>
      <point x="173.719" y="227.055"/>
      <point x="194.438" y="218.344"/>
      <point x="227.734" y="218.344" type="curve" smooth="yes"/>
      <point x="249.146" y="218.344"/>
      <point x="297.827" y="230.122"/>
      <point x="320.211" y="239.854" type="curve"/>
      <point x="330.673" y="229.149" type="line"/>
      <point x="263.58" y="199.51"/>
      <point x="200.173" y="171.498"/>
    </contour>
    <contour>
      <point x="239.12" y="317.112" type="line"/>
      <point x="268.276" y="355.221"/>
      <point x="268.276" y="355.221"/>
      <point x="268.276" y="359.85" type="curve" smooth="yes"/>
      <point x="268.276" y="365.615"/>
      <point x="259.533" y="366.564"/>
      <point x="239.495" y="366.579" type="curve" smooth="yes"/>
      <point x="132.031" y="366.663" type="line" smooth="yes"/>
      <point x="126.891" y="366.663"/>
      <point x="123.943" y="376.391"/>
      <point x="123.943" y="385.718" type="curve" smooth="yes"/>
      <point x="123.943" y="394.306"/>
      <point x="126.442" y="402.555"/>
      <point x="132.031" y="402.555" type="curve" smooth="yes"/>
      <point x="302.426" y="402.555" type="line" smooth="yes"/>
      <point x="316.37" y="402.555"/>
      <point x="325.116" y="398.493"/>
      <point x="327.857" y="392.49" type="curve"/>
      <point x="338.003" y="398.946"/>
      <point x="347.5" y="402.555"/>
      <point x="361.504" y="402.555" type="curve" smooth="yes"/>
      <point x="387.82" y="402.555" type="line" smooth="yes"/>
      <point x="393.173" y="402.555"/>
      <point x="395.739" y="393.84"/>
      <point x="395.739" y="384.999" type="curve" smooth="yes"/>
      <point x="395.739" y="375.897"/>
      <point x="393.019" y="366.661"/>
      <point x="387.82" y="366.661" type="curve" smooth="yes"/>
      <point x="333.711" y="366.661"/>
      <point x="298.033" y="355.882"/>
      <point x="258.584" y="317.112" type="curve"/>
    </contour>
  </outline>
</glyph>
<glyph name="k.fina" format="2">
  <advance width="347"/>
  <unicode hex="E020"/>
  <outline>
    <contour>
      <point x="159.74" y="402.56" type="line" smooth="yes"/>
      <point x="221.27" y="402.56"/>
      <point x="345.864" y="393.655"/>
      <point x="347.746" y="393.655" type="curve" smooth="yes"/>
      <point x="388.593" y="393.655"/>
      <point x="413.16" y="403.906"/>
      <point x="460.179" y="446.401" type="curve"/>
      <point x="482.076" y="446.401" type="line"/>
      <point x="411.029" y="363.189"/>
      <point x="371.613" y="325.233"/>
      <point x="325.386" y="325.233" type="curve" smooth="yes"/>
      <point x="292.033" y="325.233"/>
      <point x="274.173" y="343.548"/>
      <point x="223.611" y="354.928" type="curve" smooth="yes"/>
      <point x="189.792" y="362.539"/>
      <point x="156.048" y="366.669"/>
      <point x="132.227" y="366.669" type="curve" smooth="yes"/>
      <point x="127.117" y="366.669"/>
      <point x="124.779" y="375.076"/>
      <point x="124.779" y="383.753" type="curve" smooth="yes"/>
      <point x="124.779" y="393.003"/>
      <point x="127.437" y="402.56"/>
      <point x="132.227" y="402.56" type="curve" smooth="yes"/>
    </contour>
    <contour>
      <point x="195.139" y="171.504" type="curve" smooth="yes"/>
      <point x="164.991" y="171.504"/>
      <point x="128.162" y="181.783"/>
      <point x="120.182" y="193.78" type="curve"/>
      <point x="120.181" y="210.8" type="line"/>
      <point x="120.181" y="210.8"/>
      <point x="174.32" y="229.594"/>
      <point x="194.149" y="235.676" type="curve"/>
      <point x="213.594" y="227.06"/>
      <point x="234.314" y="218.35"/>
      <point x="267.61" y="218.35" type="curve" smooth="yes"/>
      <point x="289.021" y="218.35"/>
      <point x="337.702" y="230.128"/>
      <point x="360.086" y="239.86" type="curve"/>
      <point x="370.549" y="229.154" type="line"/>
      <point x="303.438" y="199.507"/>
      <point x="240.047" y="171.504"/>
    </contour>
  </outline>
</glyph>
<glyph name="l.init" format="2">
  <advance width="264"/>
  <unicode hex="E021"/>
  <outline>
    <contour>
      <point x="293.731" y="366.664" type="line" smooth="yes"/>
      <point x="261.992" y="366.664"/>
      <point x="213.392" y="368.712"/>
      <point x="212.58" y="368.712" type="curve" smooth="yes"/>
      <point x="187.867" y="368.712"/>
      <point x="165.67" y="360.67"/>
      <point x="129.884" y="347.25" type="curve"/>
      <point x="129.884" y="364.414" type="line"/>
      <point x="192.633" y="392.096"/>
      <point x="262.231" y="418.658"/>
      <point x="272.207" y="418.658" type="curve" smooth="yes"/>
      <point x="286.789" y="418.658"/>
      <point x="308.028" y="402.556"/>
      <point x="375.727" y="402.556" type="curve" smooth="yes"/>
      <point x="395.606" y="402.556" type="line" smooth="yes"/>
      <point x="400.814" y="402.556"/>
      <point x="403.298" y="393.873"/>
      <point x="403.298" y="385.048" type="curve" smooth="yes"/>
      <point x="403.298" y="375.931"/>
      <point x="400.647" y="366.664"/>
      <point x="395.606" y="366.664" type="curve" smooth="yes"/>
    </contour>
    <contour>
      <point x="320.643" y="250.899" type="line"/>
      <point x="290.248" y="195.141"/>
      <point x="228.992" y="119.104"/>
      <point x="203.687" y="119.104" type="curve" smooth="yes"/>
      <point x="189.12" y="119.104"/>
      <point x="173.822" y="174.342"/>
      <point x="173.822" y="231.334" type="curve" smooth="yes"/>
      <point x="173.822" y="237.86"/>
      <point x="174.022" y="244.408"/>
      <point x="174.447" y="250.899" type="curve"/>
      <point x="195.874" y="250.899" type="line"/>
      <point x="198.047" y="223.014"/>
      <point x="210.264" y="193.837"/>
      <point x="226.959" y="193.837" type="curve" smooth="yes"/>
      <point x="244.932" y="193.837"/>
      <point x="281.456" y="228.949"/>
      <point x="296.465" y="250.899" type="curve"/>
    </contour>
  </outline>
</glyph>
